<svg width="500" height="328" viewBox="0 0 500 328" fill="none" xmlns="http://www.w3.org/2000/svg">
<g clip-path="url(#clip0_38_260)">
<path d="M247.429 55.6529C255.806 55.6529 262.597 48.8619 262.597 40.4848C262.597 32.1076 255.806 25.3167 247.429 25.3167C239.052 25.3167 232.261 32.1076 232.261 40.4848C232.261 48.8619 239.052 55.6529 247.429 55.6529Z" fill="#FD6584"/>
<path d="M281.377 33.3024C280.949 31.8998 280.12 30.6529 278.993 29.7152C277.865 28.7775 276.488 28.19 275.031 28.025C274.997 28.0221 274.963 28.0221 274.929 28.025C274.888 28.0122 274.846 28.0027 274.804 27.9965C269.725 27.3376 264.079 28.9396 260.278 32.4276C258.867 33.702 257.739 35.2578 256.966 36.9949C256.262 36.0326 255.333 35.2566 254.261 34.7339C253.189 34.2113 252.006 33.9578 250.814 33.9955C249.277 34.0971 247.808 34.6704 246.609 35.6372C245.409 36.604 244.537 37.9172 244.111 39.3979C244.064 39.5788 244.077 39.77 244.147 39.9429C244.218 40.1159 244.343 40.2615 244.503 40.3579C244.96 40.7487 245.503 41.0252 246.088 41.1646C247.343 41.4316 248.61 41.6759 249.877 41.8974C252.354 42.3292 254.844 42.6795 257.347 42.9484C259 43.1245 260.657 43.2646 262.318 43.3687C265.749 43.5846 269.197 43.6357 272.634 43.5278C274.338 43.471 275.974 43.4142 277.531 42.6643C278.665 42.1065 279.634 41.2626 280.343 40.2159C281.01 39.2091 281.448 38.0683 281.627 36.8739C281.805 35.6794 281.72 34.4603 281.377 33.3024Z" fill="#E6E6E6"/>
<path d="M250.172 55.4007C250.143 54.7652 250.037 54.1355 249.854 53.5261C249.424 52.1236 248.594 50.877 247.466 49.9396C246.338 49.0021 244.96 48.4144 243.503 48.2486C243.471 48.2458 243.438 48.2458 243.406 48.2486C243.363 48.2364 243.32 48.227 243.276 48.2202C240.465 47.8759 237.613 48.1691 234.931 49.078C230.806 50.4585 227.188 53.242 225.444 57.2186C224.738 56.2557 223.809 55.4793 222.736 54.9566C221.663 54.4339 220.479 54.1808 219.286 54.2191C217.748 54.3208 216.28 54.8941 215.08 55.8609C213.881 56.8277 213.008 58.1409 212.582 59.6216C212.538 59.8025 212.552 59.9927 212.623 60.1651C212.693 60.3376 212.816 60.4833 212.974 60.5816C213.432 60.9713 213.975 61.2477 214.559 61.3883C215.82 61.6553 217.082 61.8996 218.354 62.1211C220.831 62.5528 223.319 62.9032 225.819 63.1721C230.897 63.7172 236.006 63.9108 241.111 63.7515C242.81 63.6946 244.452 63.6378 246.008 62.888C247.141 62.33 248.108 61.486 248.814 60.4396C249.81 58.9556 250.288 57.1841 250.172 55.4007Z" fill="#E6E6E6"/>
<path d="M447.721 239.452C447.939 249.794 446.512 260.105 443.493 269.999C443.387 270.358 443.26 270.717 443.134 271.077H380.898C381.787 266.696 383.2 262.437 385.105 258.393C390.284 247.4 398.74 237.993 407.09 228.649C418.59 215.775 429.816 203.006 431.591 186.264C436.15 193.213 439.788 200.724 442.415 208.609C439.199 209.8 436.247 211.61 433.726 213.936C433.029 214.591 432.289 215.542 432.648 216.451C432.987 217.212 433.917 217.466 434.741 217.635C436.728 218.016 438.715 218.396 440.703 218.756C442.267 219.073 443.852 219.369 445.438 219.665C446.831 226.172 447.596 232.798 447.721 239.452Z" fill="#F2F2F2"/>
<path d="M500 232.602C490.022 238.67 483.68 248.056 478.501 258.562C473.994 259.589 469.833 261.775 466.43 264.904C465.711 265.56 464.971 266.511 465.352 267.42C465.669 268.181 466.62 268.435 467.444 268.604C469.41 268.984 471.419 269.365 473.385 269.724C473.195 270.168 473.004 270.633 472.814 271.077H406.858C409.852 267.039 413.167 263.25 416.772 259.746C417.554 258.964 418.358 258.224 419.182 257.463C427.59 249.864 437.244 243.772 447.721 239.452C464.226 232.552 482.275 230.187 500 232.602Z" fill="#F2F2F2"/>
<path d="M417.85 271.077H359.124C358.803 266.374 358.831 261.654 359.208 256.956C361.555 227.93 377.346 200.28 401.171 183.537C398.127 194.381 399.691 205.163 402.862 215.986C402.418 216.134 401.974 216.261 401.573 216.43C398.356 217.622 395.405 219.432 392.884 221.758C392.187 222.413 391.447 223.364 391.806 224.273C392.123 225.034 393.074 225.288 393.899 225.457C395.886 225.838 397.873 226.218 399.839 226.578C401.425 226.895 403.01 227.191 404.596 227.508C405.335 227.635 406.075 227.782 406.815 227.93C406.921 228.184 406.984 228.417 407.09 228.649C410.811 238.902 414.87 249.239 416.772 259.746C417.243 262.383 417.568 265.043 417.745 267.716C417.808 268.836 417.85 269.957 417.85 271.077Z" fill="#F2F2F2"/>
<path d="M97.7848 239.452C98.0027 249.794 96.5756 260.105 93.5568 269.999C93.451 270.358 93.3242 270.717 93.1973 271.077H30.9615C31.8511 266.696 33.2635 262.437 35.1684 258.393C40.3476 247.4 48.8035 237.993 57.1538 228.649C68.6539 215.775 79.8792 203.006 81.655 186.264C86.2134 193.213 89.8516 200.724 92.4786 208.609C89.2624 209.8 86.3107 211.61 83.7902 213.936C83.0925 214.591 82.3525 215.542 82.712 216.451C83.0502 217.212 83.9804 217.466 84.8048 217.635C86.792 218.016 88.7791 218.396 90.7663 218.756C92.3306 219.073 93.9161 219.369 95.5016 219.665C96.8952 226.172 97.6597 232.798 97.7848 239.452Z" fill="#F2F2F2"/>
<path d="M150.064 232.602C140.086 238.67 133.744 248.056 128.564 258.562C124.057 259.589 119.897 261.775 116.494 264.904C115.775 265.56 115.035 266.511 115.415 267.42C115.732 268.181 116.684 268.435 117.508 268.604C119.474 268.984 121.482 269.365 123.448 269.724C123.258 270.168 123.068 270.633 122.878 271.077H56.9213C59.9154 267.039 63.2311 263.25 66.8359 259.746C67.6181 258.964 68.4214 258.224 69.2459 257.463C77.6537 249.864 87.3079 243.772 97.7848 239.452C114.29 232.552 132.338 230.187 150.064 232.602Z" fill="#F2F2F2"/>
<path d="M67.9141 271.077H9.18739C8.86669 266.374 8.89498 261.654 9.27203 256.956C11.6185 227.93 27.41 200.28 51.2347 183.537C48.1905 194.381 49.7548 205.163 52.9258 215.986C52.482 216.134 52.038 216.261 51.6363 216.43C48.4201 217.622 45.4684 219.432 42.9479 221.758C42.2502 222.413 41.5104 223.364 41.8697 224.273C42.1867 225.034 43.1381 225.288 43.9625 225.457C45.9496 225.838 47.9368 226.218 49.9028 226.578C51.4883 226.895 53.0738 227.191 54.6593 227.508C55.3991 227.635 56.1391 227.782 56.879 227.93C56.9846 228.184 57.0481 228.417 57.1538 228.649C60.8744 238.902 64.9333 249.239 66.8359 259.746C67.3068 262.383 67.6315 265.043 67.8084 267.716C67.8718 268.836 67.9141 269.957 67.9141 271.077Z" fill="#F2F2F2"/>
<path d="M286.544 246.421L339.018 251.079L339.58 251.13V27.228C339.393 27.0973 339.205 26.9667 339.018 26.836C328.082 19.1867 316.252 12.9026 303.791 8.12354L301.11 45.1054L300.866 48.4912L298.213 85.1663L297.395 96.4484L286.641 245.115L286.544 246.421Z" fill="#E6E6E6"/>
<path d="M156.778 23.0583C156.403 23.2969 156.028 23.5355 155.653 23.7855V251.13L156.778 251.028L208.684 246.421L208.587 245.115L197.833 96.4484L197.015 85.1664L194.362 48.4912L194.118 45.1055L191.306 6.32275C179.18 10.5262 167.59 16.1434 156.778 23.0583Z" fill="#E6E6E6"/>
<path d="M155.653 23.7855C154.898 24.274 154.142 24.7739 153.398 25.2795V254.232C153.398 259.953 156.79 264.747 161.323 265.969C162.064 266.169 162.828 266.271 163.595 266.27H332.201C332.967 266.271 333.729 266.17 334.468 265.969C336.153 265.501 337.68 264.586 338.887 263.321C341.19 260.86 342.448 257.602 342.398 254.232V29.2618C341.466 28.5744 340.529 27.8927 339.58 27.228C339.393 27.0974 339.205 26.9667 339.018 26.8361V254.232C339.019 254.969 338.931 255.703 338.757 256.419C337.956 259.799 335.314 262.276 332.201 262.276H163.595C159.835 262.276 156.778 258.669 156.778 254.232V23.0583C156.403 23.2969 156.028 23.5355 155.653 23.7855Z" fill="#E6E6E6"/>
<path d="M340.708 45.1077H155.087V48.4929H340.708V45.1077Z" fill="#E6E6E6"/>
<path d="M283.857 1.9258C282.733 1.64744 281.608 1.38612 280.472 1.14185V93.0626H283.857V1.9258Z" fill="#E6E6E6"/>
<path d="M215.324 0C214.194 0.210189 213.064 0.426061 211.939 0.658973V93.0626H215.324V0Z" fill="#E6E6E6"/>
<path d="M118.694 260.345C118.694 262.287 119.066 264.212 119.791 266.014C120.069 266.713 120.402 267.389 120.785 268.036C121.28 268.881 121.854 269.676 122.5 270.411C123.928 272.037 125.685 273.34 127.656 274.233C129.628 275.125 131.766 275.587 133.93 275.586H356.225C360.266 275.586 364.141 273.981 366.998 271.124C369.856 268.266 371.461 264.391 371.461 260.35C371.461 256.31 369.856 252.434 366.998 249.577C364.141 246.72 360.266 245.115 356.225 245.115H133.93C129.892 245.118 126.019 246.724 123.163 249.579C120.307 252.435 118.7 256.306 118.694 260.345Z" fill="#E6E6E6"/>
<path d="M155.087 96.4497L339.579 96.4497V85.1658L155.087 85.1658V96.4497Z" fill="#E6E6E6"/>
<path d="M255.232 87.9866H239.434C239.434 86.3406 240.088 84.762 241.252 83.5982C242.416 82.4343 243.995 81.7804 245.641 81.7804H249.026C249.841 81.7804 250.648 81.9409 251.401 82.2528C252.154 82.5647 252.838 83.0219 253.414 83.5982C253.99 84.1745 254.448 84.8586 254.759 85.6116C255.071 86.3645 255.232 87.1716 255.232 87.9866H255.232Z" fill="#E6E6E6"/>
<path d="M0 269.048C4.93504 274.895 10.2728 280.39 15.9744 285.493H474.175C479.877 280.39 485.214 274.895 490.149 269.048H0Z" fill="#3F3D56"/>
<path d="M225.351 214.052V272.314H266.167V214.052C266.168 213.633 266.034 213.225 265.786 212.887C265.538 212.55 265.187 212.301 264.787 212.177C264.598 212.115 264.401 212.084 264.202 212.086H227.322C227.064 212.086 226.808 212.136 226.569 212.235C226.33 212.333 226.112 212.478 225.929 212.661C225.746 212.843 225.601 213.06 225.502 213.299C225.402 213.537 225.351 213.793 225.351 214.052ZM241.28 234.071C241.291 232.922 241.755 231.825 242.571 231.016C243.386 230.208 244.489 229.755 245.637 229.755C246.786 229.755 247.888 230.208 248.704 231.016C249.52 231.825 249.983 232.922 249.994 234.071V240.831C249.988 241.983 249.527 243.085 248.71 243.898C247.894 244.71 246.789 245.166 245.637 245.166C244.485 245.166 243.38 244.71 242.564 243.898C241.747 243.085 241.286 241.983 241.28 240.831V234.071Z" fill="#2F2E41"/>
<path d="M225.226 270.451V276.069C225.227 276.36 225.343 276.639 225.548 276.845C225.753 277.052 226.031 277.169 226.322 277.171H265.196C265.487 277.17 265.766 277.053 265.972 276.846C266.177 276.64 266.293 276.36 266.292 276.069V270.451H225.226Z" fill="#3F3D56"/>
<path d="M161.141 126.273V232.651C161.142 234.007 161.681 235.306 162.64 236.265C163.598 237.224 164.898 237.763 166.254 237.764H323.896C325.251 237.763 326.551 237.224 327.51 236.265C328.468 235.306 329.007 234.007 329.008 232.651V126.273C329.005 124.918 328.465 123.62 327.507 122.663C326.549 121.706 325.25 121.167 323.896 121.166H166.254C164.899 121.167 163.601 121.706 162.643 122.663C161.684 123.62 161.144 124.918 161.141 126.273Z" fill="#3F3D56"/>
<path d="M164.839 127.596V231.339C164.841 232.063 165.129 232.757 165.641 233.269C166.153 233.781 166.847 234.07 167.572 234.071H322.583C323.308 234.07 324.002 233.781 324.514 233.269C325.026 232.757 325.315 232.063 325.316 231.339V127.596C325.316 126.871 325.028 126.175 324.516 125.662C324.003 125.149 323.309 124.859 322.583 124.858H167.572C166.847 124.859 166.152 125.149 165.639 125.662C165.127 126.175 164.839 126.871 164.839 127.596Z" fill="#333333"/>
<path d="M196.447 278.495C196.605 278.693 196.806 278.852 197.034 278.961C197.262 279.071 197.512 279.127 197.765 279.125H289.987C290.239 279.125 290.488 279.069 290.716 278.96C290.943 278.851 291.144 278.693 291.303 278.497C291.462 278.302 291.575 278.073 291.634 277.828C291.694 277.582 291.698 277.327 291.646 277.08L290.214 270.28C290.155 270.003 290.027 269.745 289.843 269.53C289.658 269.314 289.423 269.149 289.158 269.048C288.966 268.972 288.762 268.934 288.555 268.934H199.191C198.985 268.934 198.781 268.972 198.589 269.048C198.324 269.149 198.088 269.314 197.904 269.53C197.719 269.745 197.592 270.003 197.532 270.28L196.101 277.08C196.05 277.327 196.054 277.582 196.114 277.827C196.174 278.071 196.288 278.3 196.447 278.495Z" fill="#2F2E41"/>
<path d="M285.337 271.863H287.623C287.776 271.863 287.9 271.739 287.9 271.585V270.436C287.9 270.283 287.776 270.159 287.623 270.159H285.337C285.184 270.159 285.06 270.283 285.06 270.436V271.585C285.06 271.739 285.184 271.863 285.337 271.863Z" fill="#3F3D56"/>
<path d="M279.657 271.863H281.942C282.095 271.863 282.22 271.739 282.22 271.585V270.436C282.22 270.283 282.095 270.159 281.942 270.159H279.657C279.503 270.159 279.379 270.283 279.379 270.436V271.585C279.379 271.739 279.503 271.863 279.657 271.863Z" fill="#3F3D56"/>
<path d="M273.976 271.863H276.262C276.415 271.863 276.539 271.739 276.539 271.585V270.436C276.539 270.283 276.415 270.159 276.262 270.159H273.976C273.823 270.159 273.698 270.283 273.698 270.436V271.585C273.698 271.739 273.823 271.863 273.976 271.863Z" fill="#3F3D56"/>
<path d="M268.295 271.863H270.581C270.734 271.863 270.858 271.739 270.858 271.585V270.436C270.858 270.283 270.734 270.159 270.581 270.159H268.295C268.142 270.159 268.018 270.283 268.018 270.436V271.585C268.018 271.739 268.142 271.863 268.295 271.863Z" fill="#3F3D56"/>
<path d="M262.614 271.863H264.9C265.053 271.863 265.177 271.739 265.177 271.585V270.436C265.177 270.283 265.053 270.159 264.9 270.159H262.614C262.461 270.159 262.337 270.283 262.337 270.436V271.585C262.337 271.739 262.461 271.863 262.614 271.863Z" fill="#3F3D56"/>
<path d="M256.933 271.863H259.219C259.372 271.863 259.497 271.739 259.497 271.585V270.436C259.497 270.283 259.372 270.159 259.219 270.159H256.933C256.78 270.159 256.656 270.283 256.656 270.436V271.585C256.656 271.739 256.78 271.863 256.933 271.863Z" fill="#3F3D56"/>
<path d="M251.253 271.863H253.538C253.692 271.863 253.816 271.739 253.816 271.585V270.436C253.816 270.283 253.692 270.159 253.538 270.159H251.253C251.099 270.159 250.975 270.283 250.975 270.436V271.585C250.975 271.739 251.099 271.863 251.253 271.863Z" fill="#3F3D56"/>
<path d="M245.572 271.863H247.858C248.011 271.863 248.135 271.739 248.135 271.585V270.436C248.135 270.283 248.011 270.159 247.858 270.159H245.572C245.419 270.159 245.295 270.283 245.295 270.436V271.585C245.295 271.739 245.419 271.863 245.572 271.863Z" fill="#3F3D56"/>
<path d="M239.891 271.863H242.177C242.33 271.863 242.454 271.739 242.454 271.585V270.436C242.454 270.283 242.33 270.159 242.177 270.159H239.891C239.738 270.159 239.614 270.283 239.614 270.436V271.585C239.614 271.739 239.738 271.863 239.891 271.863Z" fill="#3F3D56"/>
<path d="M234.21 271.863H236.496C236.649 271.863 236.773 271.739 236.773 271.585V270.436C236.773 270.283 236.649 270.159 236.496 270.159H234.21C234.057 270.159 233.933 270.283 233.933 270.436V271.585C233.933 271.739 234.057 271.863 234.21 271.863Z" fill="#3F3D56"/>
<path d="M228.53 271.863H230.815C230.968 271.863 231.093 271.739 231.093 271.585V270.436C231.093 270.283 230.968 270.159 230.815 270.159H228.53C228.376 270.159 228.252 270.283 228.252 270.436V271.585C228.252 271.739 228.376 271.863 228.53 271.863Z" fill="#3F3D56"/>
<path d="M222.849 271.863H225.134C225.288 271.863 225.412 271.739 225.412 271.585V270.436C225.412 270.283 225.288 270.159 225.134 270.159H222.849C222.696 270.159 222.571 270.283 222.571 270.436V271.585C222.571 271.739 222.696 271.863 222.849 271.863Z" fill="#3F3D56"/>
<path d="M217.168 271.863H219.454C219.607 271.863 219.731 271.739 219.731 271.585V270.436C219.731 270.283 219.607 270.159 219.454 270.159H217.168C217.015 270.159 216.891 270.283 216.891 270.436V271.585C216.891 271.739 217.015 271.863 217.168 271.863Z" fill="#3F3D56"/>
<path d="M211.487 271.863H213.773C213.926 271.863 214.05 271.739 214.05 271.585V270.436C214.05 270.283 213.926 270.159 213.773 270.159H211.487C211.334 270.159 211.21 270.283 211.21 270.436V271.585C211.21 271.739 211.334 271.863 211.487 271.863Z" fill="#3F3D56"/>
<path d="M205.806 271.863H208.092C208.245 271.863 208.369 271.739 208.369 271.585V270.436C208.369 270.283 208.245 270.159 208.092 270.159H205.806C205.653 270.159 205.529 270.283 205.529 270.436V271.585C205.529 271.739 205.653 271.863 205.806 271.863Z" fill="#3F3D56"/>
<path d="M200.126 271.863H202.411C202.564 271.863 202.689 271.739 202.689 271.585V270.436C202.689 270.283 202.564 270.159 202.411 270.159H200.126C199.972 270.159 199.848 270.283 199.848 270.436V271.585C199.848 271.739 199.972 271.863 200.126 271.863Z" fill="#3F3D56"/>
<path d="M285.405 274.703H287.69C287.843 274.703 287.968 274.579 287.968 274.426V273.276C287.968 273.123 287.843 272.999 287.69 272.999H285.405C285.251 272.999 285.127 273.123 285.127 273.276V274.426C285.127 274.579 285.251 274.703 285.405 274.703Z" fill="#3F3D56"/>
<path d="M279.724 274.703H282.009C282.163 274.703 282.287 274.579 282.287 274.426V273.276C282.287 273.123 282.163 272.999 282.009 272.999H279.724C279.571 272.999 279.446 273.123 279.446 273.276V274.426C279.446 274.579 279.571 274.703 279.724 274.703Z" fill="#3F3D56"/>
<path d="M274.043 274.703H276.329C276.482 274.703 276.606 274.579 276.606 274.426V273.276C276.606 273.123 276.482 272.999 276.329 272.999H274.043C273.89 272.999 273.766 273.123 273.766 273.276V274.426C273.766 274.579 273.89 274.703 274.043 274.703Z" fill="#3F3D56"/>
<path d="M268.362 274.703H270.648C270.801 274.703 270.925 274.579 270.925 274.426V273.276C270.925 273.123 270.801 272.999 270.648 272.999H268.362C268.209 272.999 268.085 273.123 268.085 273.276V274.426C268.085 274.579 268.209 274.703 268.362 274.703Z" fill="#3F3D56"/>
<path d="M262.681 274.703H264.967C265.12 274.703 265.244 274.579 265.244 274.426V273.276C265.244 273.123 265.12 272.999 264.967 272.999H262.681C262.528 272.999 262.404 273.123 262.404 273.276V274.426C262.404 274.579 262.528 274.703 262.681 274.703Z" fill="#3F3D56"/>
<path d="M257.001 274.703H259.286C259.439 274.703 259.564 274.579 259.564 274.426V273.276C259.564 273.123 259.439 272.999 259.286 272.999H257.001C256.847 272.999 256.723 273.123 256.723 273.276V274.426C256.723 274.579 256.847 274.703 257.001 274.703Z" fill="#3F3D56"/>
<path d="M251.32 274.703H253.606C253.759 274.703 253.883 274.579 253.883 274.426V273.276C253.883 273.123 253.759 272.999 253.606 272.999H251.32C251.167 272.999 251.042 273.123 251.042 273.276V274.426C251.042 274.579 251.167 274.703 251.32 274.703Z" fill="#3F3D56"/>
<path d="M245.639 274.703H247.925C248.078 274.703 248.202 274.579 248.202 274.426V273.276C248.202 273.123 248.078 272.999 247.925 272.999H245.639C245.486 272.999 245.362 273.123 245.362 273.276V274.426C245.362 274.579 245.486 274.703 245.639 274.703Z" fill="#3F3D56"/>
<path d="M239.958 274.703H242.244C242.397 274.703 242.521 274.579 242.521 274.426V273.276C242.521 273.123 242.397 272.999 242.244 272.999H239.958C239.805 272.999 239.681 273.123 239.681 273.276V274.426C239.681 274.579 239.805 274.703 239.958 274.703Z" fill="#3F3D56"/>
<path d="M234.277 274.703H236.563C236.716 274.703 236.841 274.579 236.841 274.426V273.276C236.841 273.123 236.716 272.999 236.563 272.999H234.277C234.124 272.999 234 273.123 234 273.276V274.426C234 274.579 234.124 274.703 234.277 274.703Z" fill="#3F3D56"/>
<path d="M228.597 274.703H230.882C231.036 274.703 231.16 274.579 231.16 274.426V273.276C231.16 273.123 231.036 272.999 230.882 272.999H228.597C228.443 272.999 228.319 273.123 228.319 273.276V274.426C228.319 274.579 228.443 274.703 228.597 274.703Z" fill="#3F3D56"/>
<path d="M222.916 274.703H225.202C225.355 274.703 225.479 274.579 225.479 274.426V273.276C225.479 273.123 225.355 272.999 225.202 272.999H222.916C222.763 272.999 222.639 273.123 222.639 273.276V274.426C222.639 274.579 222.763 274.703 222.916 274.703Z" fill="#3F3D56"/>
<path d="M217.235 274.703H219.521C219.674 274.703 219.798 274.579 219.798 274.426V273.276C219.798 273.123 219.674 272.999 219.521 272.999H217.235C217.082 272.999 216.958 273.123 216.958 273.276V274.426C216.958 274.579 217.082 274.703 217.235 274.703Z" fill="#3F3D56"/>
<path d="M211.554 274.703H213.84C213.993 274.703 214.117 274.579 214.117 274.426V273.276C214.117 273.123 213.993 272.999 213.84 272.999H211.554C211.401 272.999 211.277 273.123 211.277 273.276V274.426C211.277 274.579 211.401 274.703 211.554 274.703Z" fill="#3F3D56"/>
<path d="M205.874 274.703H208.159C208.312 274.703 208.437 274.579 208.437 274.426V273.276C208.437 273.123 208.312 272.999 208.159 272.999H205.874C205.72 272.999 205.596 273.123 205.596 273.276V274.426C205.596 274.579 205.72 274.703 205.874 274.703Z" fill="#3F3D56"/>
<path d="M200.193 274.703H202.478C202.632 274.703 202.756 274.579 202.756 274.426V273.276C202.756 273.123 202.632 272.999 202.478 272.999H200.193C200.04 272.999 199.915 273.123 199.915 273.276V274.426C199.915 274.579 200.04 274.703 200.193 274.703Z" fill="#3F3D56"/>
<path d="M238.254 278.112H260.422C260.576 278.112 260.7 277.988 260.7 277.835V276.685C260.7 276.532 260.576 276.408 260.422 276.408H238.254C238.101 276.408 237.977 276.532 237.977 276.685V277.835C237.977 277.988 238.101 278.112 238.254 278.112Z" fill="#3F3D56"/>
<path d="M175.361 139.149H320.405C320.556 139.146 320.699 139.083 320.805 138.976C320.91 138.868 320.969 138.723 320.969 138.572C320.969 138.421 320.91 138.277 320.805 138.169C320.699 138.061 320.556 137.999 320.405 137.995H175.361C175.21 137.999 175.067 138.061 174.961 138.169C174.856 138.277 174.797 138.421 174.797 138.572C174.797 138.723 174.856 138.868 174.961 138.976C175.067 139.083 175.21 139.146 175.361 139.149Z" fill="#DDDDDD"/>
<path d="M310.532 135.05C312.398 135.05 313.912 133.503 313.912 131.595C313.912 129.686 312.398 128.139 310.532 128.139C308.665 128.139 307.151 129.686 307.151 131.595C307.151 133.503 308.665 135.05 310.532 135.05Z" fill="#DDDDDD"/>
<path d="M298.854 135.05C300.721 135.05 302.234 133.503 302.234 131.595C302.234 129.686 300.721 128.139 298.854 128.139C296.987 128.139 295.474 129.686 295.474 131.595C295.474 133.503 296.987 135.05 298.854 135.05Z" fill="#DDDDDD"/>
<path d="M287.177 135.05C289.044 135.05 290.557 133.503 290.557 131.595C290.557 129.686 289.044 128.139 287.177 128.139C285.31 128.139 283.796 129.686 283.796 131.595C283.796 133.503 285.31 135.05 287.177 135.05Z" fill="#DDDDDD"/>
<path d="M181.774 129.624C181.773 129.706 181.789 129.787 181.82 129.862C181.851 129.938 181.896 130.007 181.954 130.065C182.011 130.123 182.08 130.169 182.155 130.201C182.23 130.232 182.311 130.249 182.393 130.249H190.687C190.851 130.245 191.007 130.177 191.121 130.06C191.236 129.943 191.3 129.785 191.3 129.621C191.3 129.457 191.236 129.3 191.121 129.183C191.007 129.065 190.851 128.997 190.687 128.994H182.393C182.227 128.996 182.069 129.063 181.953 129.181C181.837 129.299 181.773 129.459 181.774 129.624Z" fill="#DDDDDD"/>
<path d="M181.774 131.982C181.773 132.063 181.789 132.144 181.82 132.22C181.851 132.296 181.896 132.364 181.954 132.422C182.011 132.48 182.08 132.527 182.155 132.558C182.23 132.59 182.311 132.606 182.393 132.607H190.687C190.851 132.603 191.007 132.535 191.122 132.418C191.237 132.301 191.301 132.143 191.301 131.979C191.301 131.815 191.237 131.657 191.122 131.54C191.007 131.422 190.851 131.355 190.687 131.351H182.393C182.227 131.353 182.069 131.421 181.953 131.539C181.837 131.657 181.773 131.816 181.774 131.982Z" fill="#DDDDDD"/>
<path d="M181.774 134.334C181.773 134.499 181.837 134.658 181.953 134.777C182.069 134.895 182.227 134.962 182.393 134.964H190.687C190.851 134.96 191.007 134.893 191.121 134.775C191.236 134.658 191.3 134.5 191.3 134.336C191.3 134.172 191.236 134.015 191.121 133.898C191.007 133.78 190.851 133.713 190.687 133.709H182.393C182.311 133.709 182.23 133.726 182.155 133.757C182.08 133.789 182.011 133.835 181.954 133.893C181.896 133.951 181.851 134.02 181.82 134.095C181.789 134.171 181.773 134.252 181.774 134.334Z" fill="#DDDDDD"/>
<path d="M184.337 152.554H181.357C180.453 152.554 179.721 153.286 179.721 154.19C179.721 155.093 180.453 155.826 181.357 155.826H184.337C185.241 155.826 185.973 155.093 185.973 154.19C185.973 153.286 185.241 152.554 184.337 152.554Z" fill="#63FF68"/>
<path d="M218.422 152.554H215.441C214.538 152.554 213.805 153.286 213.805 154.19C213.805 155.093 214.538 155.826 215.441 155.826H218.422C219.325 155.826 220.058 155.093 220.058 154.19C220.058 153.286 219.325 152.554 218.422 152.554Z" fill="#63FF68"/>
<path d="M228.079 152.554H225.099C224.195 152.554 223.463 153.286 223.463 154.19C223.463 155.093 224.195 155.826 225.099 155.826H228.079C228.983 155.826 229.715 155.093 229.715 154.19C229.715 153.286 228.983 152.554 228.079 152.554Z" fill="#63FF68"/>
<path d="M209.151 152.281H190.628C189.724 152.281 188.992 153.013 188.992 153.917C188.992 154.821 189.724 155.553 190.628 155.553H209.151C210.054 155.553 210.787 154.821 210.787 153.917C210.787 153.013 210.054 152.281 209.151 152.281Z" fill="#63FF68"/>
<path d="M254.597 152.281H236.074C235.171 152.281 234.438 153.013 234.438 153.917C234.438 154.821 235.171 155.553 236.074 155.553H254.597C255.5 155.553 256.233 154.821 256.233 153.917C256.233 153.013 255.5 152.281 254.597 152.281Z" fill="#63FF68"/>
<path d="M193.426 159.939H190.446C189.542 159.939 188.81 160.671 188.81 161.575C188.81 162.478 189.542 163.211 190.446 163.211H193.426C194.33 163.211 195.062 162.478 195.062 161.575C195.062 160.671 194.33 159.939 193.426 159.939Z" fill="#63FF68"/>
<path d="M227.511 159.939H224.531C223.627 159.939 222.895 160.671 222.895 161.575C222.895 162.478 223.627 163.211 224.531 163.211H227.511C228.414 163.211 229.147 162.478 229.147 161.575C229.147 160.671 228.414 159.939 227.511 159.939Z" fill="#63FF68"/>
<path d="M237.168 159.939H234.188C233.284 159.939 232.552 160.671 232.552 161.575C232.552 162.478 233.284 163.211 234.188 163.211H237.168C238.072 163.211 238.804 162.478 238.804 161.575C238.804 160.671 238.072 159.939 237.168 159.939Z" fill="#63FF68"/>
<path d="M218.24 159.666H199.717C198.814 159.666 198.081 160.399 198.081 161.302C198.081 162.206 198.814 162.938 199.717 162.938H218.24C219.143 162.938 219.876 162.206 219.876 161.302C219.876 160.399 219.143 159.666 218.24 159.666Z" fill="#63FF68"/>
<path d="M263.686 159.666H245.163C244.26 159.666 243.527 160.399 243.527 161.302C243.527 162.206 244.26 162.938 245.163 162.938H263.686C264.59 162.938 265.322 162.206 265.322 161.302C265.322 160.399 264.59 159.666 263.686 159.666Z" fill="#63FF68"/>
<path d="M202.515 167.324H199.535C198.632 167.324 197.899 168.056 197.899 168.96C197.899 169.863 198.632 170.596 199.535 170.596H202.515C203.419 170.596 204.152 169.863 204.152 168.96C204.152 168.056 203.419 167.324 202.515 167.324Z" fill="#63FF68"/>
<path d="M236.6 167.324H233.62C232.716 167.324 231.984 168.056 231.984 168.96C231.984 169.863 232.716 170.596 233.62 170.596H236.6C237.504 170.596 238.236 169.863 238.236 168.96C238.236 168.056 237.504 167.324 236.6 167.324Z" fill="#63FF68"/>
<path d="M246.258 167.324H243.277C242.374 167.324 241.641 168.056 241.641 168.96C241.641 169.863 242.374 170.596 243.277 170.596H246.258C247.161 170.596 247.894 169.863 247.894 168.96C247.894 168.056 247.161 167.324 246.258 167.324Z" fill="#63FF68"/>
<path d="M227.329 167.051H208.806C207.903 167.051 207.17 167.784 207.17 168.687C207.17 169.591 207.903 170.323 208.806 170.323H227.329C228.233 170.323 228.965 169.591 228.965 168.687C228.965 167.784 228.233 167.051 227.329 167.051Z" fill="#63FF68"/>
<path d="M272.775 167.051H254.253C253.349 167.051 252.617 167.784 252.617 168.687C252.617 169.591 253.349 170.323 254.253 170.323H272.775C273.679 170.323 274.411 169.591 274.411 168.687C274.411 167.784 273.679 167.051 272.775 167.051Z" fill="#63FF68"/>
<path d="M211.605 174.709H208.624C207.721 174.709 206.988 175.441 206.988 176.345C206.988 177.248 207.721 177.981 208.624 177.981H211.605C212.508 177.981 213.241 177.248 213.241 176.345C213.241 175.441 212.508 174.709 211.605 174.709Z" fill="#63FF68"/>
<path d="M245.689 174.709H242.709C241.806 174.709 241.073 175.441 241.073 176.345C241.073 177.248 241.806 177.981 242.709 177.981H245.689C246.593 177.981 247.325 177.248 247.325 176.345C247.325 175.441 246.593 174.709 245.689 174.709Z" fill="#63FF68"/>
<path d="M255.347 174.709H252.367C251.463 174.709 250.73 175.441 250.73 176.345C250.73 177.248 251.463 177.981 252.367 177.981H255.347C256.25 177.981 256.983 177.248 256.983 176.345C256.983 175.441 256.25 174.709 255.347 174.709Z" fill="#63FF68"/>
<path d="M236.418 174.436H217.896C216.992 174.436 216.26 175.169 216.26 176.072C216.26 176.976 216.992 177.708 217.896 177.708H236.418C237.322 177.708 238.054 176.976 238.054 176.072C238.054 175.169 237.322 174.436 236.418 174.436Z" fill="#63FF68"/>
<path d="M218.422 204.075H215.441C214.538 204.075 213.805 204.807 213.805 205.711C213.805 206.614 214.538 207.347 215.441 207.347H218.422C219.325 207.347 220.058 206.614 220.058 205.711C220.058 204.807 219.325 204.075 218.422 204.075Z" fill="#63FF68"/>
<path d="M228.079 204.075H225.099C224.195 204.075 223.463 204.807 223.463 205.711C223.463 206.614 224.195 207.347 225.099 207.347H228.079C228.983 207.347 229.715 206.614 229.715 205.711C229.715 204.807 228.983 204.075 228.079 204.075Z" fill="#63FF68"/>
<path d="M254.597 204.347H236.074C235.171 204.347 234.438 205.08 234.438 205.983C234.438 206.887 235.171 207.619 236.074 207.619H254.597C255.5 207.619 256.233 206.887 256.233 205.983C256.233 205.08 255.5 204.347 254.597 204.347Z" fill="#63FF68"/>
<path d="M184.337 204.075H181.357C180.453 204.075 179.721 204.807 179.721 205.711C179.721 206.614 180.453 207.347 181.357 207.347H184.337C185.241 207.347 185.973 206.614 185.973 205.711C185.973 204.807 185.241 204.075 184.337 204.075Z" fill="#63FF68"/>
<path d="M209.151 204.347H190.628C189.724 204.347 188.992 205.08 188.992 205.983C188.992 206.887 189.724 207.619 190.628 207.619H209.151C210.054 207.619 210.787 206.887 210.787 205.983C210.787 205.08 210.054 204.347 209.151 204.347Z" fill="#63FF68"/>
<path d="M193.426 196.69H190.446C189.542 196.69 188.81 197.422 188.81 198.326C188.81 199.229 189.542 199.962 190.446 199.962H193.426C194.33 199.962 195.062 199.229 195.062 198.326C195.062 197.422 194.33 196.69 193.426 196.69Z" fill="#63FF68"/>
<path d="M227.511 196.69H224.531C223.627 196.69 222.895 197.422 222.895 198.326C222.895 199.229 223.627 199.962 224.531 199.962H227.511C228.414 199.962 229.147 199.229 229.147 198.326C229.147 197.422 228.414 196.69 227.511 196.69Z" fill="#63FF68"/>
<path d="M237.168 196.69H234.188C233.284 196.69 232.552 197.422 232.552 198.326C232.552 199.229 233.284 199.962 234.188 199.962H237.168C238.072 199.962 238.804 199.229 238.804 198.326C238.804 197.422 238.072 196.69 237.168 196.69Z" fill="#63FF68"/>
<path d="M218.24 196.962H199.717C198.814 196.962 198.081 197.695 198.081 198.598C198.081 199.502 198.814 200.234 199.717 200.234H218.24C219.143 200.234 219.876 199.502 219.876 198.598C219.876 197.695 219.143 196.962 218.24 196.962Z" fill="#63FF68"/>
<path d="M202.515 189.305H199.535C198.632 189.305 197.899 190.037 197.899 190.941C197.899 191.844 198.632 192.577 199.535 192.577H202.515C203.419 192.577 204.152 191.844 204.152 190.941C204.152 190.037 203.419 189.305 202.515 189.305Z" fill="#63FF68"/>
<path d="M236.6 189.305H233.62C232.716 189.305 231.984 190.037 231.984 190.941C231.984 191.844 232.716 192.577 233.62 192.577H236.6C237.504 192.577 238.236 191.844 238.236 190.941C238.236 190.037 237.504 189.305 236.6 189.305Z" fill="#63FF68"/>
<path d="M246.258 189.305H243.277C242.374 189.305 241.641 190.037 241.641 190.941C241.641 191.844 242.374 192.577 243.277 192.577H246.258C247.161 192.577 247.894 191.844 247.894 190.941C247.894 190.037 247.161 189.305 246.258 189.305Z" fill="#63FF68"/>
<path d="M227.329 189.577H208.806C207.903 189.577 207.17 190.31 207.17 191.213C207.17 192.117 207.903 192.849 208.806 192.849H227.329C228.233 192.849 228.965 192.117 228.965 191.213C228.965 190.31 228.233 189.577 227.329 189.577Z" fill="#63FF68"/>
<path d="M211.605 181.92H208.624C207.721 181.92 206.988 182.652 206.988 183.556C206.988 184.459 207.721 185.192 208.624 185.192H211.605C212.508 185.192 213.241 184.459 213.241 183.556C213.241 182.652 212.508 181.92 211.605 181.92Z" fill="#63FF68"/>
<path d="M245.689 181.92H242.709C241.806 181.92 241.073 182.652 241.073 183.556C241.073 184.459 241.806 185.192 242.709 185.192H245.689C246.593 185.192 247.325 184.459 247.325 183.556C247.325 182.652 246.593 181.92 245.689 181.92Z" fill="#63FF68"/>
<path d="M255.347 181.92H252.367C251.463 181.92 250.73 182.652 250.73 183.556C250.73 184.459 251.463 185.192 252.367 185.192H255.347C256.25 185.192 256.983 184.459 256.983 183.556C256.983 182.652 256.25 181.92 255.347 181.92Z" fill="#63FF68"/>
<path d="M236.418 182.192H217.896C216.992 182.192 216.26 182.925 216.26 183.828C216.26 184.732 216.992 185.464 217.896 185.464H236.418C237.322 185.464 238.054 184.732 238.054 183.828C238.054 182.925 237.322 182.192 236.418 182.192Z" fill="#63FF68"/>
<path d="M198.777 310.144C198.652 310.206 198.527 310.269 198.402 310.325C197.613 310.717 196.818 311.104 196.017 311.484C193.619 312.626 191.192 313.711 188.734 314.739C182.267 317.444 175.631 319.727 168.868 321.573C167.732 314.489 166.63 297.782 165.573 285.495C165.374 283.183 165.176 281.03 164.977 279.127C164.788 276.628 164.429 274.146 163.903 271.696C163.852 271.504 163.777 271.319 163.682 271.145C163.789 272.128 163.903 275.059 164.011 279.127C164.068 281.03 164.119 283.183 164.176 285.495C164.443 297.322 164.721 313.416 164.999 322.579C164.21 322.772 163.415 322.965 162.619 323.147C162.119 323.266 161.614 323.38 161.108 323.488C160.495 323.624 159.881 323.76 159.268 323.885C158.626 324.022 157.984 324.152 157.342 324.277C146.852 326.338 136.186 327.373 125.495 327.368C124.785 327.368 124.081 327.362 123.371 327.356C123.155 327.356 122.939 327.351 122.717 327.345C122.093 327.334 121.445 327.322 120.786 327.305C108.152 326.956 95.6016 325.147 83.3836 321.914L83.8779 285.495L83.9631 279.127L83.9972 276.712C83.7158 277.489 83.5474 278.302 83.4973 279.127C83.2984 280.677 83.0939 282.876 82.8894 285.495C82.1112 295.584 81.3102 311.859 80.4808 321.119C70.6587 318.324 63.4782 315.773 54.5025 311.285C54.156 311.115 53.8038 310.939 53.4573 310.763C53.5198 310.325 53.5879 309.888 53.6504 309.439C54.6673 302.372 53.4686 293.175 54.5934 285.495C55.4512 279.57 56.3374 273.878 57.2293 269.049C58.3087 263.237 59.405 258.67 60.4901 256.449C61.7399 253.887 62.9896 251.365 64.1996 248.95C64.7223 247.911 65.2355 246.89 65.7391 245.888C66.0118 245.349 66.2845 244.815 66.5515 244.292C67.7672 241.912 68.9147 239.713 69.9656 237.765C70.7041 236.396 71.3858 235.157 72.0107 234.072C72.7435 232.794 73.3912 231.737 73.9251 230.936C77.8693 224.958 83.7379 220.506 90.5585 218.319L90.7289 218.274L90.8936 218.342L91.0811 218.427L101.909 214.468L106.743 202.828L131.574 201.3L135.584 204.35L137.635 205.913L139.822 207.577L143.844 210.639L144.986 210.991L146.685 211.514L158.302 215.081L158.421 215.03L158.592 215.076C164.798 217.062 170.231 220.935 174.134 226.153C174.52 226.653 174.878 227.17 175.225 227.693C176.168 229.09 177.44 231.3 178.94 234.072C179.559 235.214 180.213 236.452 180.9 237.765C181.315 238.554 184.894 249.723 188.376 261.13C191.631 271.81 194.801 282.7 195.216 285.495C195.289 286.012 195.369 286.534 195.443 287.051C195.914 290.284 196.38 293.539 196.829 296.714C197.494 301.424 198.141 305.968 198.76 310.03C198.766 310.07 198.772 310.104 198.777 310.144Z" fill="#3F3D56"/>
<path opacity="0.2" d="M172.463 269.023L167.636 250.394L163.374 266.469L172.463 269.023Z" fill="black"/>
<path d="M8.99229 268.807C9.24257 269.535 9.71734 270.166 10.3484 270.608C10.9795 271.05 11.7344 271.281 12.5048 271.267L27.5542 270.88C28.3302 270.865 29.0805 270.599 29.6929 270.122C30.3053 269.645 30.747 268.983 30.9518 268.234L33.0815 245.462C33.837 245.804 34.6596 245.973 35.4889 245.956C36.9441 245.92 38.3251 245.307 39.3283 244.252C40.3314 243.197 40.8744 241.787 40.8379 240.332C40.8013 238.877 40.1883 237.496 39.1335 236.493C38.0787 235.489 36.6686 234.946 35.2135 234.983C34.882 234.982 34.5514 235.016 34.2272 235.085C33.8747 234.704 33.4462 234.401 32.9693 234.195C32.4924 233.989 31.9777 233.886 31.4584 233.891L8.30886 234.489C8.11683 234.496 7.92577 234.519 7.73783 234.559C7.23017 234.654 6.74867 234.856 6.32573 235.153C5.9028 235.449 5.54825 235.833 5.28595 236.277C5.02365 236.722 4.8597 237.218 4.80511 237.732C4.75052 238.245 4.80657 238.764 4.96949 239.254L8.99229 268.807ZM33.5182 243.915L35.0336 238.489C35.206 237.862 35.21 237.201 35.0452 236.572C35.1187 236.571 35.1836 236.537 35.2571 236.536C36.2962 236.515 37.3014 236.906 38.0523 237.625C38.8032 238.343 39.2386 239.33 39.2629 240.369C39.2873 241.408 38.8986 242.415 38.1821 243.168C37.4657 243.92 36.4799 244.358 35.4409 244.386C34.7692 244.407 34.1044 244.244 33.5182 243.915Z" fill="#2F2E41"/>
<path d="M7.73782 234.559C8.23102 237.379 13.776 239.362 20.4434 239.017C26.5745 238.735 31.5876 236.582 32.5061 234.03C32.1662 233.93 31.8127 233.883 31.4583 233.891L8.30885 234.489C8.11682 234.496 7.92576 234.519 7.73782 234.559Z" fill="#3F3D56"/>
<path d="M21.6653 256.293C21.6958 256.285 21.7248 256.273 21.7511 256.255L25.0193 254.116C25.0588 254.09 25.0913 254.055 25.1138 254.014C25.1362 253.972 25.148 253.926 25.148 253.879C25.1481 253.831 25.1363 253.785 25.1139 253.744C25.0914 253.702 25.059 253.667 25.0195 253.641L21.6225 251.416C21.5913 251.395 21.5564 251.381 21.5197 251.374C21.483 251.367 21.4452 251.367 21.4086 251.375C21.372 251.382 21.3372 251.397 21.3063 251.418C21.2754 251.439 21.2489 251.466 21.2284 251.497C21.2079 251.528 21.1938 251.563 21.1869 251.6C21.18 251.637 21.1804 251.675 21.1881 251.711C21.1957 251.748 21.2106 251.782 21.2317 251.813C21.2529 251.844 21.2799 251.87 21.3113 251.891L24.3453 253.878L21.4402 255.78C21.3839 255.817 21.3425 255.872 21.3234 255.937C21.3042 256.001 21.3085 256.07 21.3355 256.132C21.3625 256.193 21.4105 256.243 21.4709 256.273C21.5313 256.302 21.6002 256.309 21.6653 256.293H21.6653Z" fill="#63FF68"/>
<path d="M16.5034 256.531C16.5582 256.517 16.6077 256.487 16.6454 256.445C16.6831 256.403 16.7074 256.35 16.715 256.294C16.7227 256.238 16.7135 256.181 16.6886 256.13C16.6636 256.08 16.6241 256.037 16.575 256.009L13.5624 254.282L16.4742 252.119C16.5041 252.097 16.5293 252.069 16.5485 252.037C16.5676 252.005 16.5802 251.97 16.5857 251.933C16.5911 251.896 16.5892 251.858 16.5801 251.822C16.5711 251.786 16.5549 251.752 16.5327 251.722C16.5105 251.692 16.4826 251.667 16.4506 251.648C16.4186 251.629 16.3832 251.616 16.3463 251.611C16.3094 251.605 16.2718 251.607 16.2357 251.616C16.1995 251.625 16.1655 251.641 16.1356 251.664L12.8756 254.085C12.8377 254.113 12.8074 254.15 12.7875 254.193C12.7675 254.236 12.7585 254.283 12.7613 254.33C12.7641 254.377 12.7785 254.423 12.8034 254.463C12.8282 254.503 12.8626 254.536 12.9035 254.559L16.2923 256.502C16.3562 256.539 16.4319 256.549 16.5034 256.531Z" fill="#63FF68"/>
<path d="M21.3403 258.168C21.3678 258.161 21.394 258.15 21.4181 258.135C21.45 258.115 21.4778 258.09 21.4998 258.06C21.5219 258.03 21.5378 257.996 21.5466 257.959C21.5554 257.923 21.557 257.885 21.5513 257.849C21.5456 257.812 21.5327 257.776 21.5133 257.744L16.8803 250.127C16.8409 250.063 16.7778 250.018 16.7047 250C16.6316 249.983 16.5546 249.995 16.4904 250.034C16.4262 250.073 16.3802 250.136 16.3623 250.209C16.3444 250.282 16.3561 250.359 16.3949 250.423L21.0279 258.04C21.0595 258.092 21.1069 258.132 21.1631 258.155C21.2193 258.178 21.2814 258.183 21.3403 258.168Z" fill="#63FF68"/>
<path d="M446.026 310.762C445.68 310.938 445.328 311.114 444.981 311.284C436.005 315.772 428.825 318.323 419.003 321.118C418.173 311.858 417.372 295.583 416.594 285.494C416.39 282.875 416.185 280.676 415.986 279.125C415.936 278.301 415.768 277.488 415.486 276.711L415.52 279.125L415.606 285.494L416.1 321.913C403.882 325.146 391.331 326.955 378.698 327.304C378.039 327.321 377.391 327.332 376.766 327.344C376.545 327.35 376.329 327.355 376.113 327.355C375.403 327.361 374.698 327.367 373.988 327.367C360.675 327.376 347.409 325.768 334.484 322.578C334.762 313.415 335.041 297.321 335.308 285.494C335.365 283.181 335.416 281.028 335.472 279.125C335.58 275.058 335.694 272.127 335.802 271.144C335.706 271.318 335.632 271.503 335.58 271.695C335.054 274.144 334.696 276.627 334.507 279.125C334.308 281.028 334.109 283.181 333.91 285.494C332.854 297.781 331.752 314.488 330.615 321.572C323.853 319.726 317.217 317.443 310.75 314.738C307.341 313.318 303.993 311.786 300.706 310.142C301.331 306.052 301.984 301.468 302.655 296.713C303.177 293.026 303.717 289.237 304.268 285.494C305.12 279.71 334.069 217.262 340.892 215.074L341.062 215.029L341.182 215.08L352.799 211.513L354.497 210.99L355.639 210.638L359.661 207.576L361.848 205.911L363.899 204.349L367.91 201.299L392.74 202.827L397.575 214.467L408.402 218.426L408.59 218.341L408.755 218.273L408.925 218.318C415.746 220.505 421.614 224.957 425.558 230.935C426.092 231.736 426.74 232.793 427.473 234.071C428.098 235.156 428.779 236.394 429.518 237.764C430.569 239.712 431.716 241.911 432.932 244.291C433.199 244.813 433.472 245.347 433.744 245.887C434.25 246.887 434.763 247.907 435.284 248.949C436.494 251.363 437.744 253.886 438.993 256.448C440.078 258.669 441.175 263.236 442.254 269.048C443.146 273.876 444.032 279.568 444.89 285.493C446.015 293.174 444.816 302.371 445.833 309.438C445.896 309.887 445.964 310.324 446.026 310.762Z" fill="#3F3D56"/>
<path d="M373.201 197.12C389.151 197.12 402.081 184.191 402.081 168.241C402.081 152.292 389.151 139.362 373.201 139.362C357.252 139.362 344.322 152.292 344.322 168.241C344.322 184.191 357.252 197.12 373.201 197.12Z" fill="#FFB6B6"/>
<path opacity="0.2" d="M327.019 269.023L331.846 250.394L336.109 266.469L327.019 269.023Z" fill="black"/>
<path d="M455.468 256.885C453.741 280.676 455.53 291.152 445.998 310.767C437.325 315.012 428.291 318.476 419.003 321.118C418.037 321.39 417.069 321.655 416.1 321.913C403.882 325.146 391.331 326.955 378.698 327.304C378.039 327.321 377.391 327.332 376.766 327.344C376.545 327.35 376.329 327.355 376.113 327.355C375.403 327.361 374.698 327.367 373.988 327.367C360.675 327.376 347.409 325.768 334.484 322.578C333.189 322.26 331.899 321.924 330.615 321.572C323.853 319.726 317.217 317.443 310.75 314.738C307.341 313.318 303.993 311.786 300.706 310.142C299.962 309.768 299.218 309.393 298.485 309.006C294.719 302.382 292.577 294.327 292.531 284.647C295.139 267.968 449.707 242.501 455.468 256.885Z" fill="#2F2E41"/>
<path opacity="0.2" d="M455.463 260.959C455.551 259.486 455.65 257.965 455.765 256.381C450.005 241.997 295.436 267.464 292.829 284.143C292.836 285.672 292.901 287.156 293.011 288.605C299.326 272.143 446.168 247.938 455.463 260.959Z" fill="black"/>
<path d="M288.687 258.007L301.375 251.664L290.802 223.117L288.016 208.721C287.654 206.851 286.807 205.108 285.561 203.667C284.314 202.227 282.711 201.138 280.913 200.511C279.114 199.884 277.182 199.74 275.31 200.093C273.438 200.447 271.691 201.285 270.245 202.525C268.101 204.362 266.756 206.96 266.491 209.771C266.227 212.581 267.065 215.385 268.829 217.589L279.172 230.518L288.687 258.007Z" fill="#FFB6B6"/>
<path d="M301.375 246.377L284.458 254.835L297.296 295.06C298.218 297.949 299.871 300.55 302.094 302.612C304.317 304.674 307.035 306.127 309.985 306.829C313.622 307.695 317.44 307.38 320.886 305.93C324.332 304.48 327.227 301.97 329.15 298.764L363.192 240.414C365.605 236.394 366.349 231.589 365.267 227.027C364.185 222.464 361.361 218.506 357.4 215.997C355.27 214.648 352.879 213.762 350.384 213.398C347.888 213.034 345.344 213.199 342.917 213.883C340.489 214.567 338.233 215.755 336.295 217.368C334.357 218.982 332.781 220.986 331.668 223.249L310.89 267.523L301.375 246.377Z" fill="#3F3D56"/>
<path d="M119.017 195.127C136.566 195.127 150.792 180.901 150.792 163.352C150.792 145.803 136.566 131.576 119.017 131.576C101.468 131.576 87.2413 145.803 87.2413 163.352C87.2413 180.901 101.468 195.127 119.017 195.127Z" fill="#A0616A"/>
<path d="M87.6229 141.455C90.2064 137.973 93.9199 135.497 96.7603 132.221C98.3188 130.423 99.6128 128.387 101.365 126.777C104.62 123.788 109.173 122.562 113.59 122.41C118.431 122.286 123.234 123.303 127.609 125.379C131.984 127.455 135.809 130.533 138.774 134.362C141.083 133.008 143.392 131.654 145.701 130.3C146.613 132.701 147.525 135.102 148.437 137.503C149.186 136.852 150.141 136.488 151.133 136.474C152.124 136.46 153.089 136.798 153.856 137.427C154.622 138.057 155.141 138.937 155.321 139.913C155.5 140.888 155.328 141.896 154.836 142.757C155.385 141.059 157.903 140.699 159.291 141.82C160.679 142.942 161.051 144.938 160.824 146.708C160.54 148.65 159.682 150.463 158.359 151.913C157.036 153.363 155.31 154.385 153.403 154.846C150.389 155.518 146.882 154.812 144.471 156.74C142.537 158.284 141.954 161.098 139.981 162.591C137.549 164.432 134.113 163.581 131.09 163.988C125.803 164.699 121.616 170.108 122.251 175.405C121.773 173.733 121.27 172.014 120.184 170.656C119.098 169.298 117.27 168.38 115.604 168.879C112.851 169.704 112.401 173.456 113.068 176.251C114.838 183.665 121.543 195.648 121.543 195.648C112.836 199.083 102.462 195.835 95.7441 189.317C89.0259 182.8 85.5269 173.571 84.0027 164.335C82.7102 156.504 82.8934 147.83 87.6229 141.455Z" fill="#2F2E41"/>
<path d="M409.392 184.161C415.438 170.301 412.013 157.547 404.643 150.781V150.775C401.746 144.282 397.895 139.271 393.486 138.096C391.356 136.726 389.288 135.119 386.993 134.301C385.924 133.901 384.785 133.721 383.645 133.773C382.504 133.824 381.386 134.106 380.358 134.602L379.188 134.289C378.194 131.75 377.029 131.699 375.734 133.369C370.746 131.046 366.253 130.006 362.253 130.006C349.21 130.006 341.496 141.05 339.451 154.399L350.352 157.302L354.141 151.264L352.392 157.848L358.407 159.444C367.565 171.368 356.607 198.874 342.717 214.178C346.023 213.264 349.316 212.491 352.596 211.861L364.514 194.386L357.129 210.293C360.964 209.73 365.855 210.27 371.201 211.355C373.001 209.003 373.95 205.867 373.018 203.072C374.542 206.02 375.592 209.189 376.132 212.463C387.414 215.218 402.803 216.632 411.097 217.678C417.798 215.49 417.816 190.785 409.392 184.161Z" fill="#2F2E41"/>
<path d="M413.326 137.015C417.753 146.93 408.819 151.195 400.634 151.074C393.238 150.965 386.952 145.769 386.575 138.382C386.394 134.835 387.629 131.361 390.009 128.724C392.389 126.088 395.719 124.505 399.267 124.323C406.654 123.946 410.309 130.261 413.326 137.015Z" fill="#2F2E41"/>
<path d="M207.906 298.417L200.613 286.251L224.865 267.852L234.948 257.206C236.258 255.823 237.908 254.808 239.733 254.262C241.559 253.716 243.495 253.659 245.349 254.096C247.203 254.534 248.91 255.45 250.3 256.754C251.689 258.057 252.711 259.703 253.266 261.525C254.087 264.226 253.826 267.141 252.539 269.653C251.252 272.166 249.039 274.08 246.368 274.992L230.699 280.342L207.906 298.417Z" fill="#A0616A"/>
<path d="M213.178 298.015L201.822 307.479L198.76 310.03L198.403 310.326C197.613 310.717 196.818 311.104 196.017 311.484C193.619 312.626 191.192 313.711 188.734 314.739C182.267 317.444 175.631 319.727 168.868 321.573C167.584 321.926 166.295 322.261 165 322.579C164.21 322.772 163.415 322.965 162.619 323.147C162.119 323.266 161.614 323.38 161.108 323.488C160.495 323.624 159.881 323.761 159.268 323.886C158.626 324.022 157.984 324.153 157.342 324.278C155.614 322.634 154.239 320.656 153.3 318.465C152.36 316.274 151.876 313.914 151.877 311.53C151.877 311.376 151.877 311.217 151.883 311.058L153.706 264.288L154.513 243.559C154.637 238.871 156.59 234.418 159.954 231.151C163.318 227.884 167.826 226.061 172.515 226.074C173.061 226.074 173.6 226.102 174.134 226.153C174.521 226.653 174.878 227.17 175.225 227.693C176.168 229.09 177.44 231.3 178.94 234.072C179.559 235.214 180.213 236.453 180.9 237.765C181.315 238.554 184.894 249.723 188.376 261.13L186.842 273.043L184.07 294.516L195.443 287.051L203.453 281.791L204.401 283.376L206.873 287.5L211.644 295.453L213.178 298.015Z" fill="#3F3D56"/>
<path d="M206.952 284.648C206.946 285.614 206.924 286.563 206.873 287.5C206.754 290.086 206.454 292.66 205.975 295.203C205.191 299.474 203.792 303.609 201.822 307.479C201.561 307.996 201.283 308.508 200.999 309.008C200.266 309.394 199.522 309.769 198.777 310.144C198.652 310.206 198.527 310.269 198.403 310.325C195.238 311.899 192.015 313.37 188.734 314.739C182.267 317.444 175.631 319.727 168.868 321.573C167.584 321.926 166.295 322.261 165 322.579C162.472 323.204 159.919 323.77 157.342 324.277C146.852 326.338 136.186 327.373 125.495 327.368C124.785 327.368 124.081 327.362 123.371 327.356C123.155 327.356 122.939 327.351 122.717 327.345C122.093 327.334 121.445 327.322 120.786 327.305C108.152 326.956 95.6016 325.147 83.3837 321.914C82.4123 321.659 81.4446 321.394 80.4808 321.119C71.1929 318.477 62.1588 315.014 53.4857 310.769C43.9533 291.153 45.7428 280.677 44.0158 256.886C47.5606 248.03 107.533 254.284 153.706 264.288C166.238 267.004 177.747 269.998 186.842 273.042C196.238 276.184 203.049 279.377 205.719 282.376C206.343 282.997 206.772 283.787 206.952 284.648Z" fill="#2F2E41"/>
<path opacity="0.2" d="M44.0192 260.959C43.931 259.486 43.8324 257.965 43.7173 256.381C49.4777 241.997 204.046 267.464 206.654 284.143C206.646 285.672 206.581 287.156 206.471 288.605C200.157 272.143 53.3145 247.938 44.0192 260.959Z" fill="black"/>
</g>
<defs>
<clipPath id="clip0_38_260">
<rect width="500" height="327.368" fill="white"/>
</clipPath>
</defs>
</svg>
