<svg width="500" height="364" viewBox="0 0 500 364" fill="none" xmlns="http://www.w3.org/2000/svg">
<g clip-path="url(#clip0_38_203)">
<path d="M470.691 2.4069H89.1492C89.1384 1.76511 88.876 1.15322 88.4185 0.703026C87.961 0.252833 87.3449 0.000362363 86.703 0H71.6758C71.0339 0.000273438 70.4178 0.252709 69.9602 0.702921C69.5027 1.15313 69.2403 1.76508 69.2296 2.4069H65.5496C65.5389 1.76511 65.2765 1.15322 64.819 0.703026C64.3614 0.252833 63.7454 0.000362363 63.1035 0H48.0763C47.4344 0.000362363 46.8183 0.252833 46.3608 0.703026C45.9033 1.15322 45.6408 1.76511 45.6301 2.4069H32.2402C24.4697 2.41563 17.0199 5.5063 11.5253 11.0009C6.03062 16.4954 2.93983 23.9451 2.93098 31.7157V32.0042C2.88504 32.0016 2.841 31.9904 2.79409 31.9904H2.45046C2.12866 31.9904 1.81001 32.0538 1.5127 32.1769C1.21539 32.3001 0.945251 32.4806 0.717704 32.7081C0.490156 32.9357 0.309656 33.2058 0.186512 33.5031C0.0633684 33.8004 -9.06113e-06 34.1191 9.71673e-10 34.4409V63.1037C-9.06113e-06 63.4255 0.0633684 63.7442 0.186512 64.0415C0.309656 64.3388 0.490156 64.6089 0.717704 64.8365C0.945251 65.064 1.21539 65.2445 1.5127 65.3677C1.81001 65.4908 2.12866 65.5542 2.45046 65.5542H2.79409C2.84101 65.5542 2.88504 65.543 2.93098 65.5404V334.339C2.93983 342.109 6.03062 349.559 11.5253 355.054C17.0199 360.548 24.4697 363.639 32.2402 363.647H470.691C478.462 363.639 485.911 360.548 491.406 355.053C496.9 349.559 499.991 342.109 500 334.339V31.7157C499.991 23.9452 496.9 16.4955 491.406 11.001C485.911 5.50644 478.462 2.41573 470.691 2.4069ZM491.178 334.339C491.172 339.77 489.012 344.978 485.171 348.818C481.33 352.659 476.123 354.82 470.691 354.826H32.2402C26.8085 354.82 21.601 352.659 17.7602 348.819C13.9194 344.978 11.7588 339.77 11.7526 334.339V31.7157C11.7588 26.284 13.9194 21.0765 17.7602 17.2358C21.601 13.395 26.8085 11.2346 32.2402 11.2285H470.691C476.123 11.2348 481.33 13.3952 485.171 17.236C489.012 21.0767 491.172 26.2841 491.178 31.7157V334.339Z" fill="#CCCCCC"/>
<path d="M470.691 359.727H32.2401C25.5091 359.719 19.0559 357.042 14.2964 352.282C9.53679 347.523 6.85953 341.07 6.85193 334.339V31.7157C6.85952 24.9847 9.53679 18.5315 14.2964 13.772C19.0559 9.01245 25.5091 6.33521 32.2401 6.32764H470.691C477.422 6.33518 483.875 9.0124 488.635 13.7719C493.394 18.5315 496.072 24.9846 496.079 31.7157V334.339C496.072 341.07 493.394 347.523 488.635 352.283C483.875 357.042 477.422 359.719 470.691 359.727Z" fill="#E6E6E6"/>
<path d="M470.825 339.274H32.106C30.6245 339.272 29.2041 338.683 28.1566 337.635C27.109 336.588 26.5198 335.167 26.5182 333.686V32.368C26.5198 30.8865 27.1091 29.4662 28.1566 28.4187C29.2042 27.3711 30.6245 26.7819 32.106 26.7803H470.825C472.307 26.7819 473.727 27.3711 474.775 28.4186C475.822 29.4662 476.412 30.8865 476.413 32.368V333.686C476.412 335.167 475.822 336.588 474.775 337.635C473.727 338.683 472.307 339.272 470.825 339.274Z" fill="#141414"/>
<path d="M16.7818 184.601C17.9403 184.601 18.8795 183.661 18.8795 182.503C18.8795 181.344 17.9403 180.405 16.7818 180.405C15.6232 180.405 14.6841 181.344 14.6841 182.503C14.6841 183.661 15.6232 184.601 16.7818 184.601Z" fill="white"/>
<path d="M191.457 66.6514H98.2565C90.9454 66.6596 83.9362 69.5676 78.7665 74.7373C73.5968 79.907 70.6889 86.9162 70.6806 94.2272V102.651C70.4893 102.599 70.2884 102.591 70.0937 102.63C69.8991 102.668 69.716 102.751 69.5589 102.872C69.4018 102.993 69.2751 103.149 69.1887 103.328C69.1023 103.507 69.0586 103.703 69.061 103.901V110.38C69.0586 110.578 69.1023 110.774 69.1887 110.953C69.2751 111.131 69.4018 111.287 69.5589 111.409C69.716 111.53 69.8991 111.613 70.0937 111.651C70.2884 111.689 70.4893 111.682 70.6806 111.629V121.438C70.4893 121.386 70.2884 121.378 70.0937 121.417C69.8991 121.455 69.7159 121.538 69.5589 121.659C69.4018 121.78 69.2751 121.936 69.1887 122.115C69.1023 122.294 69.0586 122.49 69.061 122.688V138.884C69.0586 139.082 69.1023 139.278 69.1887 139.457C69.2751 139.636 69.4018 139.792 69.5589 139.913C69.7159 140.034 69.8991 140.117 70.0937 140.155C70.2884 140.194 70.4893 140.186 70.6806 140.134V146.056C70.4893 146.003 70.2884 145.996 70.0937 146.034C69.8991 146.072 69.7159 146.155 69.5589 146.276C69.4018 146.398 69.2751 146.554 69.1887 146.732C69.1023 146.911 69.0586 147.107 69.061 147.306V163.501C69.0585 163.7 69.1022 163.896 69.1886 164.074C69.275 164.253 69.4018 164.409 69.5589 164.53C69.7159 164.651 69.8991 164.735 70.0937 164.773C70.2884 164.811 70.4893 164.804 70.6806 164.751V335.779C70.6889 343.09 73.5968 350.099 78.7665 355.269C83.9362 360.439 90.9454 363.347 98.2565 363.355H191.457C198.768 363.347 205.777 360.439 210.947 355.269C216.116 350.099 219.024 343.09 219.032 335.779V94.2272C219.024 86.9162 216.116 79.907 210.947 74.7373C205.777 69.5676 198.768 66.6596 191.457 66.6514ZM213.202 335.779C213.195 341.544 210.902 347.072 206.826 351.148C202.749 355.225 197.222 357.518 191.457 357.525H98.2565C92.4912 357.518 86.964 355.225 82.8873 351.148C78.8107 347.072 76.5175 341.544 76.511 335.779V94.2272C76.5175 88.462 78.8107 82.9347 82.8873 78.8581C86.964 74.7814 92.4912 72.4883 98.2565 72.4818H191.457C197.222 72.4883 202.749 74.7814 206.826 78.8581C210.902 82.9347 213.195 88.462 213.202 94.2272V335.779Z" fill="#CCCCCC"/>
<path d="M191.457 360.764H98.2565C91.6325 360.756 85.2819 358.122 80.598 353.438C75.9142 348.754 73.2794 342.403 73.2719 335.779V94.2273C73.2794 87.6032 75.9141 81.2527 80.598 76.5688C85.2819 71.8849 91.6325 69.2502 98.2565 69.2427H191.457C198.081 69.2502 204.431 71.8849 209.115 76.5688C213.799 81.2527 216.434 87.6032 216.441 94.2273V335.779C216.434 342.403 213.799 348.754 209.115 353.438C204.431 358.122 198.081 360.756 191.457 360.764Z" fill="#E6E6E6"/>
<path d="M193.76 356.877H95.9534C91.4858 356.872 87.2026 355.095 84.0435 351.936C80.8844 348.777 79.1074 344.493 79.1023 340.026V89.9807C79.1074 85.5131 80.8844 81.2299 84.0435 78.0708C87.2025 74.9117 91.4857 73.1347 95.9533 73.1296H108.708C109.447 73.1305 110.155 73.4242 110.677 73.9463C111.199 74.4685 111.493 75.1764 111.494 75.9148C111.496 78.0962 112.364 80.1876 113.906 81.7301C115.449 83.2726 117.54 84.1402 119.721 84.1427H168.696C170.877 84.1402 172.969 83.2726 174.511 81.7301C176.054 80.1876 176.921 78.0962 176.924 75.9148C176.925 75.1764 177.218 74.4685 177.74 73.9463C178.263 73.4242 178.971 73.1305 179.709 73.1296H193.76C198.227 73.1347 202.51 74.9117 205.67 78.0708C208.829 81.2299 210.606 85.5131 210.611 89.9807V340.026C210.606 344.493 208.829 348.777 205.67 351.936C202.51 355.095 198.227 356.872 193.76 356.877Z" fill="#141325"/>
<path d="M149.067 78.7981H137.407C137.063 78.7981 136.733 78.6616 136.49 78.4186C136.247 78.1756 136.111 77.8461 136.111 77.5024C136.111 77.1588 136.247 76.8293 136.49 76.5863C136.733 76.3433 137.063 76.2068 137.407 76.2068H149.067C149.41 76.2076 149.739 76.3444 149.982 76.5873C150.224 76.8302 150.36 77.1593 150.36 77.5024C150.36 77.8455 150.224 78.1747 149.982 78.4176C149.739 78.6605 149.41 78.7973 149.067 78.7981Z" fill="white"/>
<path d="M157.165 78.4742C157.523 78.4742 157.813 78.1842 157.813 77.8264C157.813 77.4686 157.523 77.1786 157.165 77.1786C156.807 77.1786 156.517 77.4686 156.517 77.8264C156.517 78.1842 156.807 78.4742 157.165 78.4742Z" fill="white"/>
<path d="M157.822 139.687L157.957 142.7C173.366 142.01 191.207 143.353 210.197 146.522V143.466C191.179 140.321 173.296 138.993 157.822 139.687Z" fill="#F1F1F1"/>
<path d="M138.663 198.719C138.543 199.873 138.446 201.033 138.371 202.201C138.212 204.497 138.132 206.811 138.132 209.143C138.144 230.856 145.164 251.986 158.148 269.39C171.132 286.794 189.386 299.542 210.197 305.739V112.528C191.086 118.21 174.089 129.431 161.356 144.773C148.623 160.115 140.726 178.889 138.663 198.719Z" fill="#63FF68"/>
<path d="M88.3764 140.309C89.4735 140.309 90.3629 139.42 90.3629 138.323C90.3629 137.225 89.4735 136.336 88.3764 136.336C87.2793 136.336 86.39 137.225 86.39 138.323C86.39 139.42 87.2793 140.309 88.3764 140.309Z" fill="#CCCCCC"/>
<path d="M84.1426 219.995C86.3099 219.995 88.0668 218.238 88.0668 216.071C88.0668 213.904 86.3099 212.147 84.1426 212.147C81.9753 212.147 80.2184 213.904 80.2184 216.071C80.2184 218.238 81.9753 219.995 84.1426 219.995Z" fill="#CCCCCC"/>
<path d="M158.042 116.139C159.612 116.139 160.884 114.867 160.884 113.297C160.884 111.728 159.612 110.455 158.042 110.455C156.472 110.455 155.2 111.728 155.2 113.297C155.2 114.867 156.472 116.139 158.042 116.139Z" fill="#CCCCCC"/>
<path d="M93.38 273.763C94.6324 273.763 95.6476 272.748 95.6476 271.495C95.6476 270.243 94.6324 269.228 93.38 269.228C92.1277 269.228 91.1125 270.243 91.1125 271.495C91.1125 272.748 92.1277 273.763 93.38 273.763Z" fill="#CCCCCC"/>
<path d="M139.182 305.512C140.538 305.512 141.638 304.413 141.638 303.056C141.638 301.7 140.538 300.601 139.182 300.601C137.826 300.601 136.727 301.7 136.727 303.056C136.727 304.413 137.826 305.512 139.182 305.512Z" fill="#CCCCCC"/>
<path d="M210.569 55.8023H205.722V50.9562H203.122V55.8023H198.274V58.4037H203.122V63.2498H205.722V58.4037H210.569V55.8023Z" fill="#CCCCCC"/>
<path opacity="0.1" d="M175.362 200.675C180.039 200.675 183.83 196.884 183.83 192.207C183.83 187.531 180.039 183.74 175.362 183.74C170.686 183.74 166.895 187.531 166.895 192.207C166.895 196.884 170.686 200.675 175.362 200.675Z" fill="black"/>
<path opacity="0.1" d="M179.596 260.333C184.273 260.333 188.064 256.542 188.064 251.866C188.064 247.189 184.273 243.398 179.596 243.398C174.919 243.398 171.128 247.189 171.128 251.866C171.128 256.542 174.919 260.333 179.596 260.333Z" fill="black"/>
<path d="M142.239 198.779C131.849 191.802 124.109 184.919 119.237 178.321C114.376 171.738 112.642 165.791 114.084 160.646C115.526 155.5 120.098 151.321 127.672 148.224C135.265 145.119 145.454 143.261 157.957 142.701L157.822 139.687C131.049 140.886 114.484 148.041 111.179 159.832C107.875 171.622 118.308 186.344 140.558 201.284C158.702 213.468 183.004 224.719 210.197 233.63V230.455C183.646 221.681 159.953 210.674 142.239 198.779Z" fill="#F1F1F1"/>
<path opacity="0.1" d="M142.238 201.193C141.01 200.367 139.819 199.543 138.663 198.719C138.543 199.873 138.446 201.033 138.371 202.201C139.087 202.701 139.816 203.199 140.558 203.697C158.702 215.881 183.004 227.133 210.197 236.044V232.868C183.646 224.094 159.955 213.088 142.238 201.193Z" fill="#F1F1F1"/>
<path d="M254.606 152.6C242.74 149.274 230.978 146.565 219.566 144.48V147.546C230.714 149.602 242.2 152.256 253.792 155.505C290.698 165.85 324.094 180.925 345.416 196.865L347.223 194.448C325.615 178.294 291.857 163.041 254.606 152.6Z" fill="#F1F1F1"/>
<path d="M343.203 209.143C343.194 193.968 339.76 178.991 333.157 165.328C326.554 151.665 316.952 139.669 305.067 130.233C293.183 120.798 279.322 114.166 264.518 110.833C249.713 107.5 234.348 107.551 219.566 110.983V307.295C241.791 312.469 265.113 309.95 285.721 300.15C306.328 290.35 323.001 273.848 333.015 253.344C333.535 252.284 334.034 251.214 334.514 250.134C340.261 237.233 343.222 223.265 343.203 209.143L343.203 209.143Z" fill="#63FF68"/>
<path d="M245.103 90.2037C245.741 90.2037 246.258 89.6867 246.258 89.049C246.258 88.4113 245.741 87.8943 245.103 87.8943C244.465 87.8943 243.948 88.4113 243.948 89.049C243.948 89.6867 244.465 90.2037 245.103 90.2037Z" fill="#F2F2F2"/>
<path d="M323.236 98.5924C324.68 98.5924 325.851 97.4215 325.851 95.9771C325.851 94.5326 324.68 93.3617 323.236 93.3617C321.792 93.3617 320.621 94.5326 320.621 95.9771C320.621 97.4215 321.792 98.5924 323.236 98.5924Z" fill="#CCCCCC"/>
<path d="M415.995 208.77C418.34 208.77 420.241 206.869 420.241 204.524C420.241 202.179 418.34 200.278 415.995 200.278C413.65 200.278 411.749 202.179 411.749 204.524C411.749 206.869 413.65 208.77 415.995 208.77Z" fill="#CCCCCC"/>
<path d="M382.791 138.525C383.797 138.525 384.613 137.709 384.613 136.703C384.613 135.697 383.797 134.881 382.791 134.881C381.785 134.881 380.969 135.697 380.969 136.703C380.969 137.709 381.785 138.525 382.791 138.525Z" fill="#CCCCCC"/>
<path d="M376.414 197.736C377.42 197.736 378.236 196.92 378.236 195.914C378.236 194.908 377.42 194.092 376.414 194.092C375.408 194.092 374.592 194.908 374.592 195.914C374.592 196.92 375.408 197.736 376.414 197.736Z" fill="#CCCCCC"/>
<path d="M326.518 318.014H323.474V314.971H321.842V318.014H318.799V319.646H321.842V322.689H323.474V319.646H326.518V318.014Z" fill="#CCCCCC"/>
<path d="M396.749 302.439H394.475V300.164H393.253V302.439H390.978V303.66H393.253V305.934H394.475V303.66H396.749V302.439Z" fill="#CCCCCC"/>
<path opacity="0.1" d="M243.948 138.707C248.625 138.707 252.416 134.916 252.416 130.24C252.416 125.563 248.625 121.772 243.948 121.772C239.272 121.772 235.481 125.563 235.481 130.24C235.481 134.916 239.272 138.707 243.948 138.707Z" fill="black"/>
<path opacity="0.1" d="M243.948 213.761C248.625 213.761 252.416 209.97 252.416 205.294C252.416 200.617 248.625 196.826 243.948 196.826C239.272 196.826 235.481 200.617 235.481 205.294C235.481 209.97 239.272 213.761 243.948 213.761Z" fill="black"/>
<path opacity="0.1" d="M289.365 168.344C294.042 168.344 297.833 164.553 297.833 159.876C297.833 155.2 294.042 151.409 289.365 151.409C284.689 151.409 280.898 155.2 280.898 159.876C280.898 164.553 284.689 168.344 289.365 168.344Z" fill="black"/>
<path opacity="0.1" d="M317.463 225.693C322.139 225.693 325.93 221.902 325.93 217.225C325.93 212.549 322.139 208.758 317.463 208.758C312.786 208.758 308.995 212.549 308.995 217.225C308.995 221.902 312.786 225.693 317.463 225.693Z" fill="black"/>
<path d="M366.244 213.384C362.268 207.283 355.868 200.912 347.223 194.449L345.416 196.865C362.217 209.424 370.042 221.43 367.453 230.669C366.011 235.815 361.439 239.994 353.865 243.091C346.272 246.196 336.083 248.054 323.58 248.614C320.923 248.733 318.198 248.793 315.403 248.793C290.939 248.792 261.442 244.262 231.284 235.81C227.33 234.701 223.424 233.542 219.566 232.332V235.491C223.159 236.607 226.793 237.682 230.47 238.715C260.891 247.241 290.673 251.809 315.417 251.809C318.25 251.809 321.021 251.749 323.715 251.628C350.488 250.428 367.053 243.274 370.358 231.483C371.891 226.014 370.507 219.925 366.244 213.384Z" fill="#F1F1F1"/>
<path opacity="0.1" d="M323.581 251.027C320.925 251.146 318.199 251.205 315.402 251.205C290.941 251.205 261.441 246.677 231.284 238.223C227.329 237.115 223.423 235.955 219.566 234.745V237.905C223.159 239.021 226.793 240.095 230.469 241.128C260.892 249.654 290.672 254.222 315.417 254.222C318.25 254.222 321.023 254.161 323.717 254.041C326.971 253.896 330.07 253.664 333.015 253.344C333.535 252.284 334.035 251.214 334.514 250.134C331.093 250.554 327.449 250.852 323.581 251.027Z" fill="black"/>
<path d="M289.332 135.592C295.429 135.592 300.372 130.649 300.372 124.551C300.372 118.454 295.429 113.51 289.332 113.51C283.234 113.51 278.291 118.454 278.291 124.551C278.291 130.649 283.234 135.592 289.332 135.592Z" fill="white"/>
<path d="M289.365 108.301C285.18 108.301 281.166 109.964 278.207 112.923C275.247 115.882 273.585 119.896 273.585 124.081C273.585 132.797 289.365 161.416 289.365 161.416C289.365 161.416 305.146 132.797 305.146 124.081C305.146 119.896 303.483 115.882 300.524 112.923C297.565 109.964 293.551 108.301 289.365 108.301ZM289.365 131.779C287.919 131.779 286.505 131.35 285.303 130.547C284.1 129.743 283.163 128.601 282.609 127.265C282.056 125.929 281.911 124.458 282.193 123.04C282.475 121.621 283.172 120.318 284.194 119.295C285.217 118.273 286.52 117.576 287.939 117.294C289.357 117.012 290.828 117.157 292.164 117.71C293.5 118.264 294.642 119.201 295.446 120.404C296.249 121.606 296.678 123.02 296.678 124.466C296.678 126.406 295.908 128.266 294.536 129.637C293.165 131.009 291.305 131.779 289.365 131.779Z" fill="#00264F"/>
<path d="M243.79 175.613C249.887 175.613 254.83 170.67 254.83 164.573C254.83 158.475 249.887 153.532 243.79 153.532C237.692 153.532 232.749 158.475 232.749 164.573C232.749 170.67 237.692 175.613 243.79 175.613Z" fill="white"/>
<path d="M243.823 148.323C239.638 148.323 235.624 149.985 232.665 152.945C229.705 155.904 228.043 159.918 228.043 164.103C228.043 172.819 243.823 201.438 243.823 201.438C243.823 201.438 259.604 172.819 259.604 164.103C259.604 159.918 257.941 155.904 254.982 152.945C252.022 149.985 248.008 148.323 243.823 148.323ZM243.823 171.801C242.377 171.801 240.963 171.372 239.76 170.569C238.558 169.765 237.62 168.623 237.067 167.287C236.513 165.951 236.369 164.48 236.651 163.062C236.933 161.643 237.629 160.34 238.652 159.317C239.675 158.295 240.978 157.598 242.397 157.316C243.815 157.034 245.285 157.179 246.622 157.732C247.958 158.286 249.1 159.223 249.904 160.425C250.707 161.628 251.136 163.042 251.136 164.488C251.136 166.428 250.366 168.288 248.994 169.659C247.623 171.031 245.763 171.801 243.823 171.801Z" fill="#00264F"/>
<path d="M243.79 104.54C249.887 104.54 254.83 99.597 254.83 93.4995C254.83 87.402 249.887 82.459 243.79 82.459C237.692 82.459 232.749 87.402 232.749 93.4995C232.749 99.597 237.692 104.54 243.79 104.54Z" fill="white"/>
<path d="M243.823 77.2494C239.638 77.2494 235.624 78.912 232.665 81.8714C229.705 84.8308 228.043 88.8447 228.043 93.03C228.043 101.745 243.823 130.365 243.823 130.365C243.823 130.365 259.604 101.745 259.604 93.03C259.604 88.8447 257.941 84.8308 254.982 81.8714C252.022 78.912 248.008 77.2494 243.823 77.2494ZM243.823 100.728C242.377 100.728 240.963 100.299 239.76 99.4954C238.558 98.6918 237.62 97.5497 237.067 96.2134C236.513 94.8771 236.369 93.4067 236.651 91.9882C236.933 90.5696 237.629 89.2665 238.652 88.2438C239.675 87.2211 240.978 86.5246 242.397 86.2424C243.815 85.9602 245.285 86.105 246.622 86.6585C247.958 87.212 249.1 88.1494 249.904 89.352C250.707 90.5546 251.136 91.9685 251.136 93.4149C251.136 94.3752 250.947 95.3262 250.58 96.2134C250.212 97.1007 249.673 97.9068 248.994 98.5859C248.315 99.265 247.509 99.8036 246.622 100.171C245.735 100.539 244.784 100.728 243.823 100.728Z" fill="#00264F"/>
<path d="M317.623 190.104C323.721 190.104 328.664 185.161 328.664 179.064C328.664 172.966 323.721 168.023 317.623 168.023C311.526 168.023 306.583 172.966 306.583 179.064C306.583 185.161 311.526 190.104 317.623 190.104Z" fill="white"/>
<path d="M317.657 162.814C313.472 162.814 309.458 164.476 306.498 167.436C303.539 170.395 301.876 174.409 301.876 178.594C301.876 187.31 317.657 215.929 317.657 215.929C317.657 215.929 333.437 187.31 333.437 178.594C333.437 174.409 331.775 170.395 328.815 167.436C325.856 164.476 321.842 162.814 317.657 162.814ZM317.657 186.292C316.21 186.292 314.797 185.863 313.594 185.06C312.391 184.256 311.454 183.114 310.9 181.778C310.347 180.441 310.202 178.971 310.484 177.552C310.766 176.134 311.463 174.831 312.486 173.808C313.508 172.785 314.812 172.089 316.23 171.807C317.649 171.524 319.119 171.669 320.455 172.223C321.792 172.776 322.934 173.714 323.737 174.916C324.541 176.119 324.97 177.533 324.97 178.979C324.97 180.919 324.199 182.779 322.828 184.15C321.456 185.522 319.596 186.292 317.657 186.292Z" fill="#00264F"/>
<path d="M175.476 165.263C181.574 165.263 186.517 160.32 186.517 154.222C186.517 148.125 181.574 143.182 175.476 143.182C169.379 143.182 164.436 148.125 164.436 154.222C164.436 160.32 169.379 165.263 175.476 165.263Z" fill="white"/>
<path d="M175.51 137.972C171.325 137.972 167.311 139.635 164.351 142.594C161.392 145.554 159.729 149.568 159.729 153.753C159.729 162.468 175.51 191.088 175.51 191.088C175.51 191.088 191.291 162.468 191.291 153.753C191.291 149.568 189.628 145.554 186.668 142.594C183.709 139.635 179.695 137.972 175.51 137.972ZM175.51 161.451C174.064 161.451 172.65 161.022 171.447 160.218C170.244 159.415 169.307 158.273 168.754 156.936C168.2 155.6 168.055 154.13 168.337 152.711C168.62 151.293 169.316 149.99 170.339 148.967C171.362 147.944 172.665 147.248 174.083 146.965C175.502 146.683 176.972 146.828 178.308 147.382C179.645 147.935 180.787 148.872 181.59 150.075C182.394 151.278 182.823 152.692 182.823 154.138C182.823 156.077 182.052 157.937 180.681 159.309C179.31 160.68 177.449 161.451 175.51 161.451Z" fill="#00264F"/>
<path d="M179.617 225.296C185.714 225.296 190.657 220.353 190.657 214.255C190.657 208.158 185.714 203.215 179.617 203.215C173.519 203.215 168.576 208.158 168.576 214.255C168.576 220.353 173.519 225.296 179.617 225.296Z" fill="white"/>
<path d="M179.65 198.005C175.465 198.005 171.451 199.668 168.492 202.627C165.532 205.587 163.87 209.601 163.87 213.786C163.87 222.501 179.65 251.12 179.65 251.12C179.65 251.12 195.431 222.501 195.431 213.786C195.431 209.601 193.768 205.587 190.809 202.627C187.849 199.668 183.835 198.005 179.65 198.005ZM179.65 221.484C178.204 221.484 176.79 221.055 175.587 220.251C174.385 219.448 173.447 218.306 172.894 216.969C172.34 215.633 172.196 214.163 172.478 212.744C172.76 211.325 173.456 210.022 174.479 209C175.502 207.977 176.805 207.28 178.223 206.998C179.642 206.716 181.112 206.861 182.449 207.414C183.785 207.968 184.927 208.905 185.731 210.108C186.534 211.31 186.963 212.724 186.963 214.171C186.963 216.11 186.193 217.97 184.821 219.342C183.45 220.713 181.59 221.484 179.65 221.484Z" fill="#00264F"/>
</g>
<defs>
<clipPath id="clip0_38_203">
<rect width="500" height="363.647" fill="white"/>
</clipPath>
</defs>
</svg>
