<svg width="500" height="341" viewBox="0 0 500 341" fill="none" xmlns="http://www.w3.org/2000/svg">
<g clip-path="url(#clip0_38_2)">
<path opacity="0.1" d="M496.479 130.681H453.772V182.446H493.357C493.46 182.98 493.562 183.514 493.673 184.049H453.772V225.785L453.972 225.72C455.1 225.325 456.22 224.907 457.33 224.457L458.05 224.169C459.183 223.695 460.303 223.195 461.408 222.668C461.799 222.487 462.189 222.297 462.574 222.101C468.715 219.077 474.376 215.164 479.376 210.489C479.52 210.368 479.654 210.233 479.789 210.108C480.467 209.453 481.136 208.784 481.786 208.101C482.028 207.85 482.251 207.599 482.502 207.339C483.268 206.508 484.007 205.648 484.727 204.784C484.834 204.654 484.936 204.524 485.043 204.404C487.941 200.847 490.373 196.936 492.28 192.763C492.34 192.642 492.391 192.507 492.447 192.382C493.032 191.072 493.557 189.744 494.012 188.392C494.203 187.825 494.389 187.254 494.551 186.682C494.612 186.511 494.658 186.339 494.709 186.171C497.074 177.885 497.348 169.263 497.348 160.693C497.348 159.693 497.348 158.694 497.348 157.697C497.348 154.236 497.297 150.753 497.236 147.273C497.236 146.372 497.19 145.471 497.171 144.565C497.111 142.271 497.032 139.967 496.92 137.672C496.892 137.035 496.86 136.394 496.823 135.763C496.823 135.396 496.786 135.029 496.758 134.662C496.674 133.327 496.581 132 496.479 130.681Z" fill="#63FF68"/>
<path opacity="0.1" d="M453.772 73.0444H477.202C473.366 67.7076 469.204 62.6131 464.739 57.7898C461.26 53.9901 457.599 50.2833 453.772 46.7159V73.0444Z" fill="#63FF68"/>
<path opacity="0.1" d="M453.772 74.647V129.078H496.344C496.344 128.92 496.344 128.758 496.302 128.614C496.265 128.182 496.228 127.755 496.186 127.327C496.145 126.826 496.089 126.319 496.038 125.818C495.987 125.316 495.922 124.726 495.857 124.182C495.792 123.639 495.736 123.091 495.666 122.547C495.596 122.004 495.531 121.46 495.457 120.922C495.383 120.383 495.313 119.839 495.234 119.3C495.169 118.836 495.104 118.404 495.034 117.958C494.937 117.322 494.835 116.69 494.728 116.058C494.728 115.965 494.695 115.868 494.681 115.779C493.909 111.166 492.862 106.602 491.546 102.114C490.155 97.3591 488.389 92.7227 486.264 88.2479C483.979 83.5106 481.323 78.9613 478.321 74.6423L453.772 74.647Z" fill="#63FF68"/>
<path opacity="0.1" d="M352.35 130.681V182.446H443.571V130.681H352.35ZM352.35 184.044V219.101C362.969 215.705 375.111 217.08 386.12 219.867C394.644 222.027 402.95 224.977 411.459 227.09C415.26 228.063 419.118 228.793 423.012 229.274L423.969 229.38L425.362 229.506L426.756 229.608C426.804 229.604 426.852 229.604 426.9 229.608C427.104 229.608 427.313 229.608 427.522 229.636H427.736C427.987 229.636 428.238 229.664 428.488 229.664C428.846 229.664 429.208 229.664 429.571 229.696H430.035C430.393 229.696 430.755 229.696 431.118 229.696H431.912H432.553C432.827 229.696 433.096 229.696 433.366 229.668C433.802 229.668 434.239 229.631 434.68 229.603L435.493 229.548C435.828 229.548 436.167 229.501 436.497 229.469C437.207 229.413 437.89 229.343 438.61 229.255C438.889 229.222 439.172 229.19 439.451 229.148L439.864 229.097C440.566 229.004 441.258 228.897 441.959 228.777C442.475 228.698 442.99 228.605 443.511 228.507V184.044H352.35ZM420.197 73.0258V74.6238H352.35V129.078H443.571V74.6423H438.996V73.0444H443.571V37.867C425.827 23.5693 405.086 12.3746 381.986 7.20924C372.257 5.05653 362.314 4.01863 352.35 4.11559V73.0444L420.197 73.0258ZM211.631 72.7193L211.952 73.0258H342.145V4.59404C318.966 6.52176 296.363 14.307 278.14 27.2064C269.384 33.3984 261.52 40.7423 251.695 45.4896C246.54 48.0477 240.908 49.5032 235.159 49.7631L211.631 72.7193ZM210.735 44.6442V60.1357L223.314 47.8586C218.636 46.2421 214.948 45.1412 210.716 44.6628L210.735 44.6442ZM210.317 239.535H210.735V273.495C215.482 273.139 220.211 272.653 224.921 272.036C245.979 269.317 266.614 263.971 286.343 256.122C288.462 255.268 290.564 254.39 292.651 253.488C294.042 252.869 295.425 252.25 296.799 251.63C298.862 250.683 300.909 249.709 302.94 248.709C311.934 244.296 320.609 239.26 328.902 233.64C329.417 233.287 329.938 232.934 330.449 232.576C331.474 231.864 332.494 231.146 333.51 230.421C334.016 230.054 334.522 229.692 335.024 229.32L336.069 228.549C337.11 227.773 338.146 226.997 339.195 226.226C340.166 225.53 341.146 224.833 342.14 224.182V184.049H237.542C237.616 183.816 237.686 183.584 237.765 183.338C237.681 183.575 237.607 183.803 237.537 184.049H210.716V239.525L210.317 239.535ZM210.735 74.6331V129.078H342.145V74.6423L210.735 74.6331ZM210.735 130.672V182.446H342.145V130.681L210.735 130.672ZM184.462 46.2375L200.516 61.9054V44.5838C195.137 44.9183 189.785 45.4695 184.462 46.2375ZM72.6681 130.681V182.446H200.516V130.681H72.6681ZM103.567 258.533C122.944 265.91 143.203 270.716 163.828 272.831H163.917C167.812 273.243 171.722 273.562 175.646 273.788H175.79C184.007 274.252 192.257 274.359 200.492 274.052V184.044H72.6681L73.1327 243.65M37.2677 182.446H62.4814V130.681H52.5084C51.4725 132.497 50.4691 134.332 49.5169 136.185C49.0059 137.175 48.5089 138.178 48.0258 139.182C41.4623 152.815 37.291 167.782 37.2677 182.446ZM37.2677 184.044C37.4721 194.561 39.8411 204.887 45.039 214.423C49.359 222.32 55.3604 229.287 62.4628 235.326V184.044H37.2677ZM53.442 129.078H62.4814V115.608C59.2181 119.925 56.2002 124.422 53.442 129.078ZM110.061 73.0444H197.501L197.817 72.7378L197.352 72.2733L172.766 48.2999C165.465 49.8175 158.255 51.7452 151.171 54.0738C150.502 54.2921 149.833 54.5383 149.169 54.7473C135.499 59.3878 122.384 65.524 110.061 73.0444ZM72.6681 103.41V129.078H184.792H200.506V76.1241L198.713 74.6656H107.506C94.7049 82.7075 82.9953 92.3687 72.6681 103.41Z" fill="#63FF68"/>
<path opacity="0.1" d="M453.772 102.104V129.078H496.344C496.344 128.92 496.344 128.758 496.302 128.614C496.265 128.182 496.228 127.755 496.186 127.327C496.145 126.826 496.089 126.319 496.038 125.818C495.987 125.316 495.922 124.726 495.857 124.182C495.792 123.639 495.736 123.091 495.666 122.547C495.596 122.004 495.531 121.46 495.457 120.922C495.383 120.383 495.313 119.839 495.234 119.3C495.169 118.836 495.104 118.404 495.034 117.958C494.937 117.322 494.835 116.69 494.728 116.058C494.728 115.965 494.695 115.868 494.681 115.779C493.909 111.166 492.862 106.602 491.546 102.114L453.772 102.104Z" fill="#63FF68"/>
<path opacity="0.1" d="M496.479 130.681H453.772V182.446H493.357C493.46 182.98 493.562 183.514 493.673 184.049H453.772V225.785L453.972 225.72C455.1 225.325 456.22 224.907 457.33 224.457L458.05 224.169C459.183 223.695 460.303 223.195 461.408 222.668C461.799 222.487 462.189 222.297 462.574 222.101C468.715 219.077 474.376 215.164 479.376 210.489C479.52 210.368 479.654 210.233 479.789 210.108C480.467 209.453 481.136 208.784 481.786 208.101C482.028 207.85 482.251 207.599 482.502 207.339C483.268 206.508 484.007 205.648 484.727 204.784C484.834 204.654 484.936 204.524 485.043 204.404C487.941 200.847 490.373 196.936 492.28 192.763C492.34 192.642 492.391 192.507 492.447 192.382C493.032 191.072 493.557 189.744 494.012 188.392C494.203 187.825 494.389 187.254 494.551 186.682C494.612 186.511 494.658 186.339 494.709 186.171C497.074 177.885 497.348 169.263 497.348 160.693C497.348 159.693 497.348 158.694 497.348 157.697C497.348 154.236 497.297 150.753 497.236 147.273C497.236 146.372 497.19 145.471 497.171 144.565C497.111 142.271 497.032 139.967 496.92 137.672C496.892 137.035 496.86 136.394 496.823 135.763C496.823 135.396 496.786 135.029 496.758 134.662C496.674 133.327 496.581 132 496.479 130.681Z" fill="#63FF68"/>
<path opacity="0.1" d="M411.464 82.4415V129.083H443.576V82.4415H439V66.6481H420.202V82.4415H411.464Z" fill="#63FF68"/>
<path opacity="0.1" d="M443.576 130.681H411.464V182.446H443.576V130.681Z" fill="#63FF68"/>
<path opacity="0.1" d="M443.576 184.049H411.464V227.09C415.263 228.061 419.12 228.79 423.012 229.274L423.973 229.38L425.367 229.506C425.831 229.543 426.296 229.58 426.76 229.608H426.904C427.109 229.608 427.318 229.608 427.527 229.636H427.741C427.991 229.636 428.247 229.659 428.498 229.664C428.86 229.664 429.218 229.664 429.58 229.692H430.045C430.402 229.692 430.76 229.692 431.127 229.692H431.917C432.13 229.692 432.349 229.692 432.562 229.692L433.375 229.664C433.807 229.664 434.248 229.627 434.685 229.599L435.493 229.543L436.501 229.464C437.207 229.408 437.895 229.334 438.61 229.25L439.451 229.143L439.864 229.092C440.566 228.999 441.258 228.893 441.959 228.772C442.48 228.693 442.995 228.595 443.515 228.502L443.576 184.049Z" fill="#63FF68"/>
<path opacity="0.1" d="M237.203 76.9324H210.721V129.078H237.203V76.9324Z" fill="#63FF68"/>
<path opacity="0.1" d="M210.721 130.681V182.446H342.15V160.122H272.143V173.291H237.198V130.681H210.721Z" fill="#63FF68"/>
<path opacity="0.1" d="M210.298 239.553H210.716V273.495C215.464 273.139 220.192 272.653 224.902 272.036C245.977 269.321 266.628 263.973 286.371 256.118C292.017 253.857 297.549 251.389 302.968 248.713C311.952 244.294 320.619 239.257 328.907 233.64C330.975 232.237 333.014 230.799 335.024 229.325C336.418 228.303 337.811 227.253 339.205 226.24C340.176 225.539 341.156 224.847 342.154 224.192V184.049H237.57C237.644 183.807 237.714 183.584 237.788 183.333C237.709 183.57 237.635 183.798 237.565 184.049H210.716V239.53L210.298 239.553Z" fill="#63FF68"/>
<path opacity="0.1" d="M141.657 73.0444H158.909V68.2738H151.171V54.0737C150.502 54.2967 149.828 54.5382 149.164 54.7473V68.2738H141.657V73.0444Z" fill="#63FF68"/>
<path opacity="0.1" d="M100.074 129.078H184.797H184.769H184.806H200.516V76.9324H196.066V115.487H175.72V92.6654H158.909V74.647H141.657V92.6654H124.856V115.478H100.074V129.078Z" fill="#63FF68"/>
<path opacity="0.1" d="M100.074 130.681V182.446H200.516V130.681H100.074ZM103.581 258.533C122.958 265.91 143.217 270.716 163.842 272.831H163.931C167.826 273.243 171.736 273.562 175.66 273.788H175.804C184.021 274.252 192.271 274.359 200.506 274.052V184.044H100.074V202.397H72.6682L72.8121 243.376" fill="#63FF68"/>
<path opacity="0.1" d="M60.7116 184.049H37.2863C37.4907 194.561 39.8644 204.882 45.0622 214.418C49.3775 222.343 55.3837 229.283 62.4814 235.321V202.397H60.7116V184.049Z" fill="#63FF68"/>
<path opacity="0.1" d="M37.2724 182.446H60.7116V139.182H48.0491C41.4669 152.815 37.291 167.786 37.2724 182.446Z" fill="#63FF68"/>
<path opacity="0.1" d="M224.907 91.4297H210.721V107.781H224.907V91.4297Z" fill="#63FF68"/>
<path opacity="0.1" d="M224.907 125.316H210.721V129.078H224.907V125.316Z" fill="#63FF68"/>
<path opacity="0.1" d="M224.907 130.681H210.721V141.667H224.907V130.681Z" fill="#63FF68"/>
<path opacity="0.1" d="M224.907 159.207H210.721V175.557H224.907V159.207Z" fill="#63FF68"/>
<path opacity="0.1" d="M224.907 193.097H210.721V209.448H224.907V193.097Z" fill="#63FF68"/>
<path opacity="0.1" d="M210.716 239.53L210.298 239.553H210.716V243.348H224.902V226.983H210.716V239.53Z" fill="#63FF68"/>
<path opacity="0.1" d="M210.716 260.865V273.495C215.464 273.139 220.192 272.653 224.902 272.036V260.888L210.716 260.865Z" fill="#63FF68"/>
<path opacity="0.1" d="M342.15 181.248H281.355V182.446H342.15V181.248Z" fill="#63FF68"/>
<path opacity="0.1" d="M342.15 184.049H281.355V188.652H342.15V184.049Z" fill="#63FF68"/>
<path opacity="0.1" d="M342.15 203.739H281.355V211.144H342.15V203.739Z" fill="#63FF68"/>
<path opacity="0.1" d="M281.35 226.208V233.64H328.907C330.975 232.237 333.014 230.799 335.024 229.325C336.418 228.303 337.811 227.258 339.205 226.24L281.35 226.208Z" fill="#63FF68"/>
<path opacity="0.1" d="M281.35 248.713V256.118H286.371C292.02 253.857 297.552 251.389 302.968 248.713H281.35Z" fill="#63FF68"/>
<path opacity="0.1" d="M163.847 146.34H175.813V135.698H163.847V146.34Z" fill="#63FF68"/>
<path opacity="0.1" d="M422.989 96.7531H434.954V86.1111H422.989V96.7531Z" fill="#63FF68"/>
<path opacity="0.1" d="M422.989 121.474H434.954V110.832H422.989V121.474Z" fill="#63FF68"/>
<path opacity="0.1" d="M422.989 146.191H434.954V135.549H422.989V146.191Z" fill="#63FF68"/>
<path opacity="0.1" d="M422.989 170.912H434.954V160.27H422.989V170.912Z" fill="#63FF68"/>
<path opacity="0.1" d="M422.989 195.634H434.954V184.992H422.989V195.634Z" fill="#63FF68"/>
<path opacity="0.1" d="M422.989 220.35H434.954V209.708H422.989V220.35Z" fill="#63FF68"/>
<path opacity="0.1" d="M118.158 146.34H130.124V135.698H118.158V146.34Z" fill="#63FF68"/>
<path opacity="0.1" d="M163.847 172.589H175.813V161.947H163.847V172.589Z" fill="#63FF68"/>
<path opacity="0.1" d="M118.158 172.589H130.124V161.947H118.158V172.589Z" fill="#63FF68"/>
<path opacity="0.1" d="M163.847 198.839H175.813V188.197H163.847V198.839Z" fill="#63FF68"/>
<path opacity="0.1" d="M118.158 198.839H130.124V188.197H118.158V198.839Z" fill="#63FF68"/>
<path opacity="0.1" d="M163.847 225.093H175.813V214.451H163.847V225.093Z" fill="#63FF68"/>
<path opacity="0.1" d="M118.158 225.093H130.124V214.451H118.158V225.093Z" fill="#63FF68"/>
<path opacity="0.1" d="M163.847 251.342H175.813V240.701H163.847V251.342Z" fill="#63FF68"/>
<path opacity="0.1" d="M118.158 251.342H130.124V240.701H118.158V251.342Z" fill="#63FF68"/>
<path opacity="0.1" d="M175.818 273.811V266.945H163.852V272.835L175.818 273.811Z" fill="#63FF68"/>
<path opacity="0.1" d="M453.772 115.766V121.855H494.728V115.766H453.772ZM490.649 116.151H494.008V121.474H490.649V116.151ZM486.571 116.151H489.929V121.474H486.571V116.151ZM482.502 116.151H485.86V121.474H482.502V116.151ZM478.423 116.151H481.782V121.474H478.423V116.151ZM474.35 116.151H477.722V121.474H474.364L474.35 116.151ZM470.271 116.151H473.63V121.474H470.29L470.271 116.151ZM466.193 116.151H469.551V121.474H466.193V116.151ZM462.119 116.151H465.478V121.474H462.119V116.151ZM458.045 116.151H461.404V121.474H458.045V116.151ZM453.972 116.151H457.33V121.474H453.972V116.151Z" fill="#63FF68"/>
<path opacity="0.1" d="M453.772 133.491V139.581H494.728V133.491H453.772ZM490.649 133.877H494.008V139.195H490.649V133.877ZM486.571 133.877H489.929V139.195H486.571V133.877ZM482.502 133.877H485.86V139.195H482.502V133.877ZM478.423 133.877H481.782V139.195H478.423V133.877ZM474.35 133.877H477.722V139.195H474.364L474.35 133.877ZM470.271 133.877H473.63V139.195H470.29L470.271 133.877ZM466.193 133.877H469.551V139.195H466.193V133.877ZM462.119 133.877H465.478V139.195H462.119V133.877ZM458.045 133.877H461.404V139.195H458.045V133.877ZM453.972 133.877H457.33V139.195H453.972V133.877Z" fill="#63FF68"/>
<path opacity="0.1" d="M453.772 151.217V157.302H494.728V151.217H453.772ZM490.649 151.598H494.008V156.917H490.649V151.598ZM486.571 151.598H489.929V156.917H486.571V151.598ZM482.502 151.598H485.86V156.917H482.502V151.598ZM478.423 151.598H481.782V156.917H478.423V151.598ZM474.35 151.598H477.722V156.917H474.364L474.35 151.598ZM470.271 151.598H473.63V156.917H470.29L470.271 151.598ZM466.193 151.598H469.551V156.917H466.193V151.598ZM462.119 151.598H465.478V156.917H462.119V151.598ZM458.045 151.598H461.404V156.917H458.045V151.598ZM453.972 151.598H457.33V156.917H453.972V151.598Z" fill="#63FF68"/>
<path opacity="0.1" d="M453.772 168.938V175.019H494.728V168.938H453.772ZM490.649 169.314H494.008V174.647H490.649V169.314ZM486.571 169.314H489.929V174.647H486.571V169.314ZM482.502 169.314H485.86V174.647H482.502V169.314ZM478.423 169.314H481.782V174.647H478.423V169.314ZM474.35 169.314H477.722V174.647H474.364L474.35 169.314ZM470.271 169.314H473.63V174.647H470.29L470.271 169.314ZM466.193 169.314H469.551V174.647H466.193V169.314ZM462.119 169.314H465.478V174.647H462.119V169.314ZM458.045 169.314H461.404V174.647H458.045V169.314ZM453.972 169.314H457.33V174.647H453.972V169.314Z" fill="#63FF68"/>
<path opacity="0.1" d="M453.772 186.655V192.763H492.28C492.336 192.642 492.391 192.507 492.442 192.382H490.649V187.04H494.008V188.369C494.203 187.802 494.389 187.231 494.551 186.655H453.772ZM486.571 187.04H489.929V192.359H486.571V187.04ZM482.502 187.04H485.86V192.359H482.502V187.04ZM478.423 187.04H481.782V192.359H478.423V187.04ZM474.35 187.04H477.722V192.359H474.364L474.35 187.04ZM470.271 187.04H473.63V192.359H470.29L470.271 187.04ZM466.193 187.04H469.551V192.359H466.193V187.04ZM462.119 187.04H465.478V192.359H462.119V187.04ZM458.045 187.04H461.404V192.359H458.045V187.04ZM453.972 187.04H457.33V192.359H453.972V187.04Z" fill="#63FF68"/>
<path opacity="0.1" d="M453.772 204.376V210.461H479.371C479.52 210.335 479.65 210.205 479.784 210.08H478.423V204.761H481.782V208.092L482.502 207.325V204.771H484.727C484.834 204.64 484.936 204.51 485.043 204.39L453.772 204.376ZM474.35 204.757H477.722V210.08H474.364L474.35 204.757ZM470.271 204.757H473.63V210.08H470.29L470.271 204.757ZM466.193 204.757H469.551V210.08H466.193V204.757ZM462.119 204.757H465.478V210.08H462.119V204.757ZM458.045 204.757H461.404V210.08H458.045V204.757ZM453.972 204.757H457.33V210.08H453.972V204.757Z" fill="#63FF68"/>
<path opacity="0.1" d="M453.772 222.101V225.785L453.972 225.72V222.468H457.33V224.447L458.045 224.15V222.492H461.404V222.677C461.799 222.496 462.189 222.306 462.574 222.111L453.772 222.101Z" fill="#63FF68"/>
<path opacity="0.1" d="M210.298 239.553H210.716H210.298ZM237.537 184.044C237.611 183.812 237.681 183.58 237.76 183.333C237.681 183.57 237.607 183.812 237.537 184.044ZM420.197 73.0444V74.6424H438.996V73.0444H420.197ZM210.298 239.553H210.716H210.298ZM237.537 184.044C237.611 183.812 237.681 183.58 237.76 183.333C237.681 183.57 237.607 183.812 237.537 184.044ZM210.298 239.553H210.716H210.298ZM237.537 184.044C237.611 183.812 237.681 183.58 237.76 183.333C237.681 183.57 237.607 183.812 237.537 184.044Z" fill="#63FF68"/>
<path opacity="0.1" d="M500 324.247H34.62V340.7H500V324.247Z" fill="#63FF68"/>
<path d="M51.0173 219.644H48.6622V272.608H51.0173V219.644Z" fill="#535461"/>
<path d="M65.7981 272.445L65.6494 274.833L65.445 278.201L65.3568 279.594L65.1477 282.962L65.0595 284.355L64.8504 287.718L62.4768 326.017C62.3742 327.665 61.6484 329.213 60.4467 330.346C59.2451 331.478 57.6575 332.111 56.0061 332.116H43.6734C42.0243 332.112 40.4386 331.48 39.2373 330.351C38.036 329.221 37.3087 327.677 37.2027 326.031L34.8244 287.732L34.62 284.369L34.5318 282.976L34.3181 279.608L34.2345 278.214L34.0255 274.847L33.8768 272.459C33.8489 272.002 33.915 271.543 34.0709 271.112C34.2269 270.681 34.4694 270.287 34.7836 269.953C35.0978 269.619 35.477 269.353 35.8978 269.171C36.3186 268.99 36.7722 268.896 37.2306 268.896H62.4489C62.9061 268.896 63.3585 268.988 63.7785 269.169C64.1984 269.35 64.5769 269.614 64.8906 269.947C65.2044 270.279 65.4468 270.672 65.6028 271.102C65.7589 271.532 65.8253 271.989 65.7981 272.445Z" fill="#3F3D56"/>
<path d="M65.654 274.833L65.445 278.2H34.2345L34.0301 274.833H65.654Z" fill="#9D9CB5"/>
<path d="M65.3614 279.603L65.1524 282.976H34.5318L34.3228 279.603H65.3614Z" fill="#9D9CB5"/>
<path d="M65.0595 284.378L64.8551 287.746H34.8291L34.62 284.378H65.0595Z" fill="#9D9CB5"/>
<path d="M30.4348 239.497C44.1332 249.405 49.8374 264.911 49.8374 264.911C49.8374 264.911 33.3287 264.344 19.6442 254.431C5.95967 244.519 0.204376 229.018 0.204376 229.018C0.204376 229.018 16.7317 229.585 30.4348 239.497Z" fill="#63FF68"/>
<path d="M0.204376 229.018C0.204376 229.018 17.3402 238.531 22.8354 246.405C28.3305 254.278 49.8188 264.911 49.8188 264.911" stroke="#535461" stroke-width="2" stroke-miterlimit="10"/>
<path d="M39.2744 219.528C46.7345 224.921 49.8374 233.361 49.8374 233.361C49.8374 233.361 40.8538 233.05 33.3937 227.657C25.9337 222.264 22.8354 213.824 22.8354 213.824C22.8354 213.824 31.819 214.13 39.2744 219.528Z" fill="#63FF68"/>
<path d="M22.8354 213.824C22.8354 213.824 32.1581 219.003 35.1542 223.286C38.1503 227.569 49.8374 233.361 49.8374 233.361" stroke="#535461" stroke-width="2" stroke-miterlimit="10"/>
<path d="M60.6745 232.929C52.1089 242.345 50.2973 254.645 50.2973 254.645C50.2973 254.645 62.3746 251.682 70.9402 242.266C79.5058 232.85 81.3174 220.555 81.3174 220.555C81.3174 220.555 69.2401 223.514 60.6745 232.929Z" fill="#63FF68"/>
<path d="M81.3174 220.555C81.3174 220.555 70.1691 230.203 67.3216 236.854C64.4742 243.506 50.2973 254.645 50.2973 254.645" stroke="#535461" stroke-width="2" stroke-miterlimit="10"/>
<path opacity="0.2" d="M188.731 35.6188C193.808 35.6188 197.924 31.5031 197.924 26.4261C197.924 21.3491 193.808 17.2334 188.731 17.2334C183.654 17.2334 179.538 21.3491 179.538 26.4261C179.538 31.5031 183.654 35.6188 188.731 35.6188Z" stroke="#6C63FF" stroke-miterlimit="10"/>
<path opacity="0.2" d="M188.731 43.0416C197.907 43.0416 205.347 35.6026 205.347 26.4261C205.347 17.2495 197.907 9.81049 188.731 9.81049C179.554 9.81049 172.115 17.2495 172.115 26.4261C172.115 35.6026 179.554 43.0416 188.731 43.0416Z" stroke="#6C63FF" stroke-miterlimit="10"/>
<path opacity="0.2" d="M188.731 52.6198C203.197 52.6198 214.925 40.8925 214.925 26.426C214.925 11.9596 203.197 0.232239 188.731 0.232239C174.265 0.232239 162.537 11.9596 162.537 26.426C162.537 40.8925 174.265 52.6198 188.731 52.6198Z" stroke="#6C63FF" stroke-miterlimit="10"/>
<path d="M252.239 336.873C251.993 335.043 250.734 332.692 250.734 332.692L244.012 322.868H244.073C244.073 322.868 243.009 317.93 244.073 315.515C245.137 313.099 240.292 307.126 240.292 307.126C240.292 307.126 239.702 305.63 241.221 303.79C242.74 301.951 240.292 296.553 240.292 296.553C240.292 296.553 239.107 285.289 238.991 283.547C238.875 281.805 237.927 272.287 237.927 272.287L235.679 252.058L231.684 198.453L231.61 197.45C232.107 197.213 232.367 197.064 232.367 197.064L231.531 167.442L232.223 166.834C238.262 161.506 252.155 149.182 252.021 148.899C251.839 148.555 250.334 128.298 250.163 123.212C250.011 119.593 249.207 116.032 247.789 112.7C247.441 112.022 246.437 107.59 246.019 105.695L245.838 104.854C245.838 104.854 241.76 97.2687 242.122 93.822C242.484 90.3753 243.186 87.7834 234.495 86.5803C234.495 86.5803 227.165 85.5165 222.849 82.6134C220.272 80.8769 217.468 79.5044 214.516 78.5349C214.516 78.5349 212.918 75.7479 211.362 76.2867V70.3688C212.557 69.9008 213.585 69.0865 214.314 68.0305C215.043 66.9745 215.44 65.7248 215.454 64.4417V43.1252C215.43 41.3939 214.719 39.7431 213.478 38.5358C212.236 37.3285 210.566 36.6635 208.835 36.6871H190.352C190.085 36.6938 189.818 36.7171 189.553 36.7568V27.0021C189.553 26.8611 189.524 26.7217 189.468 26.5923C189.412 26.4629 189.331 26.3463 189.228 26.2495C189.021 26.0466 188.742 25.9332 188.452 25.9337C188.165 25.93 187.887 26.0403 187.681 26.2405C187.475 26.4408 187.356 26.7146 187.351 27.0021V37.4489C186.321 37.9867 185.456 38.7948 184.85 39.7865C184.243 40.7783 183.918 41.9164 183.909 43.0788V64.3952C183.923 65.6779 184.32 66.9272 185.048 67.9831C185.776 69.039 186.803 69.8536 187.997 70.3224V75.9476C187.249 75.8594 186.139 76.375 184.876 78.9484C184.876 78.9484 178.549 82.5112 176.361 82.9153C174.173 83.3194 166.43 85.9578 166.43 85.9578C165.253 86.7834 163.849 87.2248 162.412 87.2213C159.987 87.2213 157.976 92.396 158.273 95.2109C158.57 98.0258 158.092 100.093 155.848 100.209C153.605 100.325 154.831 104.822 154.84 104.854C154.812 104.98 154.738 105.319 154.631 105.811C154.195 107.776 153.238 111.989 152.903 112.649C151.475 115.979 150.663 119.54 150.506 123.161C150.33 128.27 148.82 148.504 148.648 148.848C148.537 149.076 158.059 157.581 164.762 163.522L165.728 164.377L162.649 192.494C162.649 192.494 162.649 195.643 165.817 198.003C165.817 198.323 165.817 198.662 165.779 199.006C165.645 202.258 165.375 206.276 164.85 207.321C163.921 209.179 164.14 219.04 164.14 219.04C164.14 219.04 163.211 239.158 162.012 241.337C160.814 243.515 160.591 248.119 160.949 249.038C161.306 249.958 159.764 274.094 159.764 274.094L158.58 284.894C158.58 284.894 158.937 295.239 157.873 295.471C156.81 295.703 156.215 302.824 156.215 302.824C156.215 302.824 152.434 307.883 154.088 309.722C155.741 311.562 153.842 312.365 153.67 312.825C153.498 313.285 150.065 315.008 152.55 321.442C152.573 321.507 152.606 321.563 152.634 321.623C150.311 324.768 142.939 334.95 143.385 336.487C143.723 337.484 144.427 338.314 145.355 338.81C147.088 339.823 150.065 340.292 154.794 338.81C162.658 336.339 162.068 334.555 162.068 334.555C162.068 334.555 162.128 331.684 165.38 331.452C168.632 331.22 171.056 328.293 171.056 328.293L170.675 326.9L170.15 324.981C170.216 324.41 170.615 323.472 172.413 322.938C175.135 322.134 174.424 317.08 174.424 317.08C174.424 317.08 174.187 311.789 175.353 311.102C176.519 310.414 176.059 301.677 176.059 301.677C176.059 301.677 177.364 295.355 179.255 291.1C181.145 286.845 183.394 261.566 183.394 261.566C183.394 261.566 184.927 249.155 186.348 245.592C187.769 242.029 189.07 232.028 189.07 232.028C189.07 232.028 197.821 215.478 197.938 211.799C197.938 211.799 199.071 208.352 200.163 212.147C201.254 215.942 204.441 225.019 204.441 225.019L207.516 236.167L211.181 252.829L213.545 266.852C213.545 266.852 213.197 272.194 214.14 274.052C215.083 275.91 216.388 280.142 215.677 280.95C214.967 281.759 217.099 285.544 217.689 286.348C218.279 287.152 217.689 304.167 217.689 304.167C217.689 304.167 220.406 318.646 224.308 321.172C224.582 321.345 224.871 321.491 225.172 321.609C225.116 323.179 225.06 325.279 225.135 326.375C225.127 326.621 225.168 326.865 225.255 327.095C225.608 327.559 229.631 330.653 230.458 330.653C231.285 330.653 234.239 332.669 234.36 333.645C234.481 334.62 243.004 338.754 244.208 338.875C245.411 338.996 251.268 340.022 252.104 338.41C252.304 337.923 252.351 337.387 252.239 336.873ZM231.299 129.771L231.907 130.282C231.907 130.282 232.525 135.024 232.971 136.441C233.417 137.858 232.883 140.622 232.883 140.622C232.883 140.622 232.971 142.605 233.501 143.636C234.03 144.667 232.46 146.916 232.46 146.916H231.02L230.556 129.162L231.299 129.771ZM167.271 145.099C167.05 144.643 167.016 144.117 167.178 143.636C167.305 143.378 167.406 143.107 167.48 142.828C167.654 142.104 167.761 141.365 167.8 140.622C167.801 140.614 167.801 140.606 167.8 140.598C167.754 140.329 167.298 137.811 167.716 136.418C168.135 135.024 168.78 130.258 168.78 130.258L169.184 129.919L170.113 129.139C170.113 129.139 170.141 128.842 170.178 128.354C170.378 132.534 170.536 137.105 170.281 137.356C169.816 137.821 168.093 142.298 168.506 142.466C168.641 142.521 168.455 144.324 168.144 146.73C167.795 146.221 167.502 145.676 167.271 145.104V145.099Z" fill="url(#paint0_linear_38_2)"/>
<path d="M189.795 27.4898V41.5784C189.795 41.8617 189.682 42.1335 189.482 42.3338C189.281 42.5342 189.01 42.6468 188.726 42.6468C188.443 42.6468 188.171 42.5342 187.971 42.3338C187.77 42.1335 187.658 41.8617 187.658 41.5784V27.4898C187.658 27.3495 187.686 27.2105 187.739 27.0809C187.793 26.9513 187.872 26.8335 187.971 26.7343C188.07 26.6351 188.188 26.5564 188.317 26.5027C188.447 26.449 188.586 26.4214 188.726 26.4214C189.009 26.4238 189.279 26.5372 189.479 26.737C189.679 26.9368 189.792 27.2072 189.795 27.4898Z" fill="#6F758D"/>
<path d="M210.949 65.1523V87.0448C210.944 88.7939 210.247 90.4699 209.01 91.7067C207.773 92.9436 206.097 93.6406 204.348 93.6455H194.89C193.14 93.6418 191.463 92.9453 190.225 91.7084C188.988 90.4714 188.29 88.7947 188.285 87.0448V65.1523C188.291 63.4028 188.989 61.7267 190.227 60.4901C191.464 59.2534 193.141 58.5565 194.89 58.5516H204.348C206.097 58.5565 207.773 59.2535 209.01 60.4903C210.247 61.7272 210.944 63.4032 210.949 65.1523Z" fill="#6F758D"/>
<path d="M173.76 147.19L171.953 169.486C171.953 169.486 169.24 167.029 165.728 163.824C159.225 157.892 149.981 149.396 150.088 149.173C150.26 148.829 151.723 128.6 151.895 123.523C152.047 119.913 152.833 116.358 154.218 113.02C154.543 112.365 155.472 108.161 155.895 106.197C156.029 105.583 156.108 105.189 156.108 105.189L159.123 103.981C159.123 103.981 171.776 118.097 171.776 118.357C171.776 118.618 170.917 129.459 170.917 129.459L170.016 130.244L169.626 130.579C169.626 130.579 169.022 135.317 168.59 136.734C168.186 138.081 168.627 140.621 168.673 140.886V140.909C168.635 141.651 168.529 142.388 168.357 143.111C168.288 143.391 168.191 143.663 168.069 143.924C167.914 144.404 167.945 144.925 168.158 145.383C168.397 146.02 168.708 146.628 169.087 147.194L173.76 147.19Z" fill="#3F3D56"/>
<path d="M250.446 149.169C250.581 149.438 237.082 161.757 231.234 167.075L228.581 169.482L226.774 147.185H231.42C231.42 147.185 232.971 144.946 232.455 143.933C231.94 142.921 231.852 140.919 231.852 140.919C231.852 140.919 232.367 138.164 231.94 136.738C231.512 135.312 230.904 130.583 230.904 130.583L230.314 130.054L229.613 129.441C229.613 129.441 228.744 118.613 228.744 118.353C228.744 118.093 241.397 103.976 241.397 103.976L244.407 105.184C244.407 105.184 244.477 105.509 244.584 106.025C244.993 107.883 245.977 112.342 246.302 113.016C247.688 116.353 248.475 119.908 248.625 123.518C248.811 128.595 250.274 148.825 250.446 149.169Z" fill="#3F3D56"/>
<path d="M250.502 338.392C249.698 339.999 243.999 338.968 242.847 338.856C241.695 338.745 233.403 334.606 233.287 333.635C233.171 332.664 230.3 330.648 229.501 330.648C228.702 330.648 224.796 327.55 224.447 327.09C224.364 326.861 224.325 326.619 224.331 326.375C224.21 324.489 224.447 319.63 224.447 319.63L241.091 320.559L249.182 332.711C249.182 332.711 250.399 335.033 250.641 336.892C250.738 337.395 250.69 337.915 250.502 338.392Z" fill="#3F3D56"/>
<path opacity="0.1" d="M250.502 338.392C249.698 339.999 243.999 338.968 242.847 338.856C241.695 338.745 233.403 334.606 233.287 333.635C233.171 332.664 230.3 330.648 229.501 330.648C228.702 330.648 224.796 327.55 224.447 327.09C224.364 326.861 224.325 326.619 224.331 326.375C224.21 324.489 224.447 319.63 224.447 319.63L241.091 320.559L249.182 332.711C249.182 332.711 250.399 335.033 250.641 336.892C250.738 337.395 250.69 337.915 250.502 338.392Z" fill="black"/>
<path opacity="0.1" d="M250.502 338.392C249.698 339.999 243.998 338.968 242.847 338.856C241.695 338.745 233.403 334.606 233.287 333.635C233.171 332.664 230.3 330.648 229.501 330.648C228.702 330.648 224.796 327.55 224.447 327.09C224.364 326.861 224.325 326.619 224.331 326.375L229.729 329.794C229.729 329.794 233.171 331.977 234.09 333.296C235.01 334.615 242.247 337.314 242.847 337.365C243.311 337.412 248.049 336.501 250.641 336.901C250.737 337.401 250.688 337.918 250.502 338.392Z" fill="black"/>
<path d="M171.827 328.349C171.827 328.349 169.472 331.276 166.318 331.503C165.488 331.512 164.693 331.837 164.095 332.413C163.498 332.989 163.143 333.772 163.104 334.601C163.104 334.601 163.68 336.385 156.048 338.852C151.454 340.338 148.565 339.869 146.878 338.852C145.971 338.348 145.29 337.518 144.974 336.529C144.458 334.694 154.613 320.736 154.613 320.736L163.852 320.16L170.452 323.147L171.46 326.923L171.827 328.349Z" fill="#3F3D56"/>
<path opacity="0.1" d="M171.827 328.349C171.827 328.349 169.472 331.276 166.318 331.503C165.488 331.512 164.693 331.837 164.095 332.413C163.498 332.989 163.143 333.772 163.104 334.601C163.104 334.601 163.68 336.385 156.048 338.852C151.454 340.338 148.565 339.869 146.878 338.852C145.971 338.348 145.29 337.518 144.974 336.529C144.458 334.694 154.613 320.736 154.613 320.736L163.852 320.16L170.452 323.147L171.46 326.923L171.827 328.349Z" fill="black"/>
<path opacity="0.1" d="M171.827 328.349C171.827 328.349 169.472 331.276 166.318 331.503C165.488 331.512 164.693 331.837 164.095 332.413C163.498 332.989 163.143 333.772 163.104 334.601C163.104 334.601 163.68 336.385 156.048 338.852C151.454 340.338 148.565 339.869 146.878 338.852C151.212 338.387 160.781 335.665 161.743 334.718C162.89 333.566 164.326 330.412 165.301 330.356C165.975 330.314 169.412 328.242 171.474 326.96L171.827 328.349Z" fill="black"/>
<path d="M242.679 315.552C241.648 317.963 242.679 322.896 242.679 322.896C242.679 322.896 227.299 323.704 223.514 321.177C219.728 318.65 217.085 304.19 217.085 304.19C217.085 304.19 217.656 287.207 217.085 286.399C216.513 285.591 214.446 281.81 215.134 281.011C215.821 280.212 214.558 275.957 213.643 274.122C212.728 272.287 213.067 267.006 213.067 267.006L210.772 253.005L207.214 236.362L204.232 225.214C204.232 225.214 201.133 216.146 200.079 212.356C199.025 208.566 197.919 212.012 197.919 212.012C197.808 215.687 189.312 232.214 189.312 232.214C189.312 232.214 188.048 242.196 186.669 245.754C185.289 249.313 183.802 261.71 183.802 261.71C183.802 261.71 181.624 286.956 179.784 291.202C177.945 295.448 176.719 301.779 176.719 301.779C176.719 301.779 177.183 310.503 176.031 311.19C174.879 311.878 175.102 317.159 175.102 317.159C175.102 317.159 175.79 322.208 173.147 323.016C170.504 323.825 170.968 325.539 170.968 325.539C170.968 325.539 156.28 327.936 153.865 321.521C151.449 315.106 154.794 313.373 154.952 312.913C155.11 312.454 156.968 311.655 155.356 309.815C153.744 307.976 157.423 302.926 157.423 302.926C157.423 302.926 157.999 295.815 159.03 295.582C160.061 295.35 159.718 285.024 159.718 285.024L160.865 274.238C160.865 274.238 162.361 250.135 162.017 249.215C161.673 248.295 161.901 243.706 163.048 241.527C164.195 239.349 165.106 219.263 165.106 219.263C165.106 219.263 164.874 209.392 165.793 207.558C166.314 206.517 166.574 202.518 166.722 199.252C166.815 196.767 166.843 194.705 166.843 194.705L179.692 189.883L196.228 184.606L210.117 191.258L230.43 195.16L230.686 198.667L234.546 252.22L236.729 272.422C236.729 272.422 237.658 281.944 237.765 283.663C237.872 285.382 239.024 296.637 239.024 296.637C239.024 296.637 241.434 302.03 239.953 303.865C238.471 305.7 239.024 307.195 239.024 307.195C239.024 307.195 243.729 313.141 242.679 315.552Z" fill="#3F3D56"/>
<path opacity="0.1" d="M218.599 84.411L213.322 178.465L184.625 172.441L178.944 134.736L184.569 84.123L188.805 84.6665L196.279 85.6187L203.679 86.0786L211.696 85.1821L218.599 84.411Z" fill="black"/>
<path d="M218.599 85.1031L213.322 179.153L184.625 173.128L178.944 135.424L184.569 84.8151L188.805 85.354L196.279 86.3062L203.679 86.7661L211.696 85.8696L218.599 85.1031Z" fill="#63FF68"/>
<path d="M195.011 87.6254L205.342 87.9692L202.439 92.0336C202.439 92.0336 202.643 100.246 204.023 102.601C205.402 104.956 204.998 141.337 204.998 141.337L202.267 146.558L197.561 140.705L197.617 92.6747L195.011 87.6254Z" fill="#3F3D56"/>
<path opacity="0.1" d="M195.011 87.6254L205.342 87.9692L202.439 92.0336C202.439 92.0336 202.643 100.246 204.023 102.601C205.402 104.956 204.998 141.337 204.998 141.337L202.267 146.558L197.561 140.705L197.617 92.6747L195.011 87.6254Z" fill="black"/>
<path opacity="0.1" d="M211.195 76.9509L201.556 87.6254L207.065 93.3621L216.188 84.4714L211.195 76.9509Z" fill="black"/>
<path d="M210.558 76.9649L201.551 86.9333L207.061 92.6747L216.202 83.7793L211.738 77.0531C211.677 76.9555 211.594 76.8735 211.495 76.814C211.397 76.7544 211.285 76.7189 211.171 76.7103C211.056 76.7017 210.94 76.7203 210.834 76.7645C210.728 76.8087 210.633 76.8774 210.558 76.9649Z" fill="#63FF68"/>
<path opacity="0.1" d="M197.482 87.1098L187.728 77.3551L186.808 82.4601L191.286 93.6502L197.482 87.1098Z" fill="black"/>
<path d="M197.826 86.4224L188.071 76.663L187.152 81.7726L191.63 92.9627L197.826 86.4224Z" fill="#63FF68"/>
<path opacity="0.1" d="M230.672 198.667C225.996 200.904 220.986 202.362 215.84 202.982C206.373 204.19 200.177 192.14 200.177 192.14L196.563 196.846C195.415 201.839 177.908 203.098 170.796 201.203C169.32 200.84 167.933 200.183 166.718 199.271C166.811 196.786 166.839 194.723 166.839 194.723L179.692 189.883L196.228 184.606L210.117 191.258L230.43 195.16L230.672 198.667Z" fill="black"/>
<path opacity="0.1" d="M218.594 85.0985L213.318 179.148L184.625 173.109L178.944 135.41L184.569 84.778L188.805 85.3168C188.696 87.1553 188.489 88.9865 188.183 90.8027C187.495 94.0171 191.741 116.857 191.741 116.857C191.741 116.857 199.81 142.466 203.447 138.777C207.084 135.089 212.226 115.594 212.226 115.594C215.728 108.361 212.286 88.1085 212.026 87.6765C211.845 87.0719 211.734 86.4484 211.696 85.8185L218.594 85.0985Z" fill="black"/>
<path opacity="0.1" d="M230.992 157.86L231.234 167.075L228.581 169.482L226.774 147.185H230.732L230.992 157.86Z" fill="black"/>
<path opacity="0.1" d="M168.678 140.882V140.905C168.64 141.647 168.534 142.384 168.362 143.107C168.362 142.902 168.362 142.786 168.325 142.772C168.158 142.698 168.357 141.857 168.678 140.882Z" fill="black"/>
<path opacity="0.1" d="M173.76 147.19L171.953 169.486C171.953 169.486 169.24 167.029 165.728 163.824L166.146 159.876C166.146 159.876 167.628 150.167 168.167 145.383C168.406 146.02 168.718 146.628 169.096 147.194L173.76 147.19Z" fill="black"/>
<path d="M189.326 77.0067C189.326 77.0067 187.607 74.4844 185.256 79.3618C185.256 79.3618 179.116 82.9199 176.993 83.3194C174.87 83.7189 167.354 86.3619 167.354 86.3619C166.218 87.1851 164.851 87.6274 163.448 87.6254C161.097 87.6254 159.146 92.7861 159.434 95.6011C159.722 98.416 159.262 100.478 157.079 100.595C154.896 100.711 156.104 105.24 156.104 105.24L170.624 121.883C170.624 121.883 171.553 137.212 171.089 137.677C170.624 138.141 168.961 142.61 169.365 142.786C169.77 142.963 167.182 159.889 167.182 159.889L163.68 192.763C163.68 192.763 163.68 198.267 170.796 200.163C177.912 202.058 195.415 200.794 196.563 195.801L200.177 191.095C200.177 191.095 206.373 203.173 215.84 201.942C225.307 200.711 231.336 197.297 231.336 197.297L230.3 157.873L229.613 129.469L244.417 105.198C244.417 105.198 240.459 97.6217 240.803 94.1797C241.146 90.7376 241.839 88.141 233.403 86.9472C233.403 86.9472 226.287 85.8881 222.097 82.9896C219.605 81.2574 216.881 79.886 214.005 78.9158C214.005 78.9158 212.101 75.4784 210.456 76.9649C210.456 76.9649 211.655 82.2417 211.511 83.1893C211.367 84.1369 211.766 88.3268 212.026 88.7635C212.286 89.2001 215.742 109.448 212.226 116.681C212.226 116.681 207.084 136.19 203.447 139.86C199.81 143.529 191.741 117.939 191.741 117.939C191.741 117.939 187.495 95.104 188.183 91.8896C188.87 88.6752 189.326 77.0067 189.326 77.0067Z" fill="#3F3D56"/>
<path d="M201.612 152.244C203.007 152.244 204.139 151.112 204.139 149.717C204.139 148.321 203.007 147.19 201.612 147.19C200.216 147.19 199.085 148.321 199.085 149.717C199.085 151.112 200.216 152.244 201.612 152.244Z" fill="#3F3D56"/>
<path d="M201.612 164.149C203.007 164.149 204.139 163.018 204.139 161.622C204.139 160.226 203.007 159.095 201.612 159.095C200.216 159.095 199.085 160.226 199.085 161.622C199.085 163.018 200.216 164.149 201.612 164.149Z" fill="#3F3D56"/>
<path opacity="0.1" d="M201.612 152.244C203.007 152.244 204.139 151.112 204.139 149.717C204.139 148.321 203.007 147.19 201.612 147.19C200.216 147.19 199.085 148.321 199.085 149.717C199.085 151.112 200.216 152.244 201.612 152.244Z" fill="black"/>
<path opacity="0.1" d="M201.612 164.149C203.007 164.149 204.139 163.018 204.139 161.622C204.139 160.226 203.007 159.095 201.612 159.095C200.216 159.095 199.085 160.226 199.085 161.622C199.085 163.018 200.216 164.149 201.612 164.149Z" fill="black"/>
<path opacity="0.1" d="M224.299 312.11C224.299 312.11 234.662 312.913 235.698 313.717C236.734 314.521 224.299 312.11 224.299 312.11Z" fill="black"/>
<path opacity="0.1" d="M162.588 303.962C162.588 303.962 164.771 306.717 163.852 307.98C162.932 309.244 162.588 303.962 162.588 303.962Z" fill="black"/>
<path opacity="0.1" d="M165.227 313.88C165.227 313.88 169.245 311.241 170.852 312.997C172.459 314.753 165.227 313.88 165.227 313.88Z" fill="black"/>
<path opacity="0.1" d="M210.949 65.1523V71.7809C210.12 72.1449 209.225 72.3331 208.319 72.3337H190.923C190.015 72.3343 189.116 72.1444 188.285 71.7763V65.1523C188.291 63.4028 188.989 61.7267 190.227 60.4901C191.464 59.2534 193.141 58.5565 194.89 58.5516H204.348C206.097 58.5578 207.772 59.2551 209.008 60.4917C210.245 61.7282 210.942 63.4036 210.949 65.1523Z" fill="black"/>
<path opacity="0.1" d="M189.795 36.6871V41.5831C189.795 41.8664 189.682 42.1382 189.482 42.3385C189.281 42.5389 189.01 42.6515 188.726 42.6515C188.443 42.6515 188.171 42.5389 187.971 42.3385C187.77 42.1382 187.658 41.8664 187.658 41.5831V37.4629C188.317 37.0769 189.041 36.8141 189.795 36.6871Z" fill="black"/>
<path d="M209.346 37.1331H189.892C186.814 37.1331 184.318 39.6287 184.318 42.7072V65.6587C184.318 68.7372 186.814 71.2328 189.892 71.2328H209.346C212.424 71.2328 214.92 68.7372 214.92 65.6587V42.7072C214.92 39.6287 212.424 37.1331 209.346 37.1331Z" fill="#DCDFED"/>
<path opacity="0.1" d="M208.305 59.9127V73.8155H190.923V59.8848C192.065 59.0191 193.458 58.5509 194.89 58.5516H204.348C205.78 58.563 207.169 59.0408 208.305 59.9127Z" fill="black"/>
<path opacity="0.1" d="M208.51 37.1331H190.575V72.6914H208.51V37.1331Z" fill="black"/>
<path d="M208.319 37.1331H190.923V72.6914H208.319V37.1331Z" fill="#6F758D"/>
<path d="M197.826 49.4008H192.201V50.4413H197.826V49.4008Z" fill="#DCDFED"/>
<path d="M207.181 49.4008H201.556V50.4413H207.181V49.4008Z" fill="#DCDFED"/>
<path d="M204.366 60.8928H194.872V61.5152H204.366V60.8928Z" fill="#DCDFED"/>
<path d="M319.008 99.1453L325.734 132.376C325.811 132.745 326.005 133.079 326.286 133.329C326.566 133.58 326.92 133.734 327.295 133.77L331.777 134.207C332.107 134.787 332.407 135.383 332.674 135.995C333.473 137.853 333.993 140.083 335.716 141.184C336.645 142.113 338.74 141.95 339.939 141.955C341.198 141.908 342.456 142.083 343.655 142.47C343.516 142.454 343.376 142.454 343.237 142.47C344.017 142.783 344.772 143.155 345.494 143.585C345.55 143.659 345.61 143.734 345.657 143.808C345.847 144.101 346.001 144.454 346.321 144.598C346.228 144.784 346.669 144.788 347.376 144.691C347.445 144.703 347.512 144.725 347.575 144.756C347.764 144.882 347.923 145.049 348.04 145.243C349.206 146.795 351.37 147.18 353.321 147.232C355.272 147.283 357.335 147.148 359.053 148.072C359.462 148.291 359.843 148.565 360.27 148.75C360.248 148.953 360.256 149.158 360.294 149.359C360.495 150.001 360.756 150.624 361.074 151.217C361.231 151.519 361.317 151.852 361.325 152.192C361.333 152.532 361.263 152.869 361.12 153.177C360.976 153.428 360.744 153.642 360.595 153.874C360.395 154.28 360.295 154.727 360.303 155.179C360.168 157.293 360.038 159.448 360.614 161.483C360.949 162.667 361.515 163.898 361.144 165.069C360.921 165.775 360.368 166.374 360.289 167.108C360.21 167.842 360.674 168.613 360.949 169.352C361.594 171.103 361.241 173.202 360.795 175.009C360.824 175.025 360.853 175.039 360.883 175.051C360.555 175.437 360.283 175.867 360.075 176.329C359.365 177.857 359.411 179.617 359.462 181.299C359.56 184.462 359.666 187.663 360.544 190.701C360.694 191.133 360.797 191.58 360.851 192.034C360.865 192.462 360.828 192.891 360.739 193.311C360.53 194.528 360.275 195.74 359.973 196.939C359.804 197.452 359.736 197.993 359.773 198.532C359.862 199.234 360.303 199.842 360.595 200.492C361.761 203.084 360.507 206.276 361.641 208.881C361.91 209.499 362.305 210.057 362.537 210.688C363.048 212.082 362.76 213.587 362.932 215.036C363.118 216.061 363.369 217.073 363.685 218.065C364.507 221.289 363.146 224.726 363.94 227.959C364.618 230.746 365.306 233.533 365.334 236.371C365.375 238.355 365.101 240.338 365.334 242.308C365.566 244.277 366.383 246.307 368.069 247.357C368.967 247.868 369.97 248.163 371.001 248.221C372.998 258.612 372.882 269.324 374.619 279.771C374.967 281.879 375.395 283.951 375.608 286.102C376.598 296.042 372.886 305.69 370.792 315.515L370.457 315.719C367.879 317.326 365.134 319.138 364.112 321.981C363.796 322.859 363.722 323.978 364.428 324.596C364.691 324.767 364.94 324.96 365.171 325.172C365.733 325.85 365.241 327.067 365.919 327.625C366.363 327.699 366.811 327.746 367.261 327.764C366.952 328.501 366.642 329.239 366.332 329.98C366.049 330.635 365.761 331.35 365.937 332.042C366.099 332.481 366.316 332.898 366.583 333.282C367.07 334.327 367.296 335.475 367.243 336.627C367.201 337.009 367.306 337.392 367.535 337.7C367.663 337.817 367.811 337.91 367.972 337.974C370.038 338.88 372.306 339.229 374.55 338.984C376.793 338.74 378.933 337.911 380.755 336.58C380.931 336.468 381.079 336.319 381.192 336.144C381.248 336.024 381.29 335.897 381.317 335.767C381.61 334.564 381.907 333.361 382.2 332.158C382.237 332.019 382.27 331.875 382.307 331.735C382.651 330.314 382.999 328.897 383.347 327.476C383.812 325.478 384.318 323.476 384.657 321.437C384.657 322.571 384.657 323.699 384.657 324.833V328.8C384.647 329.384 384.667 329.969 384.718 330.551C385.205 330.551 385.693 330.551 386.181 330.551C386.216 330.556 386.252 330.551 386.285 330.537C386.317 330.523 386.346 330.501 386.367 330.472C386.432 330.326 386.464 330.167 386.46 330.007C386.531 328.558 386.582 327.106 386.613 325.65C386.673 323.105 386.682 320.541 386.636 318.004C386.636 317.428 386.692 316.244 386.599 315.45C386.838 314.887 387.037 314.308 387.193 313.717C387.43 312.918 387.658 312.11 387.853 311.297C388.161 311.254 388.474 311.254 388.782 311.297C388.792 315.988 388.336 320.668 387.421 325.269C388.322 326.11 389.915 325.622 390.64 324.619C391.365 323.616 391.458 322.297 391.569 321.089C391.908 317.057 392.559 313.057 393.213 309.063C393.282 308.374 393.479 307.705 393.794 307.088C394.105 306.559 394.593 306.159 394.867 305.593C395.155 304.887 395.242 304.115 395.118 303.363C394.951 301.603 394.514 299.81 393.436 298.397C392.424 297.074 390.742 296.172 389.093 296.368L388.991 296.182C388.034 294.263 388.132 292.001 388.253 289.883C388.386 287.474 388.522 285.064 388.661 282.655C389.056 279.998 389.367 277.341 389.553 274.679C390.018 272.97 390.645 271.307 391.063 269.57C391.063 267.884 391.662 266.128 391.681 264.395C391.688 262.593 391.553 260.793 391.276 259.012C390.747 255.351 389.79 251.77 388.996 248.165C388.866 247.557 388.782 246.911 388.694 246.275C389.232 245.961 389.728 245.58 390.171 245.141C389.358 238.824 388.619 232.042 391.611 226.412C392.498 224.749 393.711 223.161 394.022 221.303C394.101 220.838 394.124 220.346 394.221 219.876C394.358 219.322 394.553 218.783 394.802 218.269L400.72 204.868L401.677 202.713C402.703 200.39 403.73 198.068 404.608 195.666C405.639 192.879 406.466 189.985 407.242 187.11C407.706 185.386 408.171 183.631 408.138 181.847C408.053 180.263 407.68 178.708 407.037 177.258C406.898 176.928 406.749 176.603 406.573 176.277C406.754 176.222 406.93 176.18 407.107 176.124C407.502 173.314 407.836 170.216 406.252 167.865C405.943 167.491 405.693 167.071 405.514 166.62C405.23 165.659 405.844 164.679 406.039 163.694C406.438 161.682 405.082 159.792 403.92 158.096C403.743 157.87 403.605 157.616 403.512 157.344C403.298 156.573 403.767 155.714 403.776 154.933C403.778 154.726 403.732 154.521 403.642 154.334C408.124 154.594 412.546 155.765 417.043 155.936C419.89 156.048 423.082 155.602 424.889 153.428C426.045 152.035 426.459 150.2 426.57 148.407C426.774 145.104 426.106 141.815 425.548 138.55C425.186 136.334 424.898 134.104 424.67 131.865C425.135 131.907 425.599 131.931 426.064 131.931C428.725 131.931 431.494 131.54 433.696 130.072C435.897 128.605 437.37 125.804 436.678 123.253C436.288 121.813 435.284 120.624 434.55 119.328C431.958 114.753 432.692 108.933 434.922 104.162C435.967 101.905 437.351 99.5634 436.933 97.1108C436.339 93.6734 432.637 91.885 429.859 89.7483C427.444 87.8514 425.536 85.3854 424.307 82.5709C423.078 79.7565 422.566 76.6812 422.817 73.6204C423.03 71.3582 423.648 68.9753 422.742 66.8897C421.767 64.6554 419.356 63.4801 417.326 62.1238C414.174 60.0067 411.632 57.0996 409.954 53.6929C408.919 51.5747 408.064 49.6331 405.621 48.9084C403.656 48.3929 401.597 48.3547 399.614 48.7969L400.023 48.6018C399.837 48.6344 399.652 48.6715 399.475 48.7133L399.187 48.7923C397.316 48.3851 395.377 48.3962 393.511 48.8248C389.734 49.7306 385.614 52.4433 382.52 54.6776C381.594 55.322 380.744 56.0684 379.984 56.9027C379.905 56.9909 379.817 57.0699 379.738 57.1581C379.366 57.5691 379.053 58.0304 378.809 58.5285C378.648 58.8918 378.528 59.272 378.451 59.6619C378.131 60.7334 378.001 61.8527 378.066 62.9692C377.899 63.2014 377.736 63.4337 377.601 63.6799C375.627 66.812 374.925 70.5801 375.638 74.2129C376.352 77.8458 378.426 81.0687 381.438 83.2219C380.882 84.4896 380.225 85.7105 379.473 86.8729C378.674 88.1643 377.829 89.4324 376.965 90.6819L367.675 93.5619C367.089 93.7477 366.504 93.9289 365.942 94.1658C365.261 94.455 364.624 94.8363 364.047 95.2992C363.116 96.0325 362.392 96.9954 361.946 98.0932C361.499 99.191 361.346 100.386 361.501 101.561C361.543 101.802 361.599 102.025 361.655 102.276C361.376 103.698 361.162 105.142 360.949 106.577C360.67 108.515 360.391 110.452 360.136 112.393C359.182 114.317 358.765 116.463 358.928 118.604C358.959 119.898 359.073 121.189 359.267 122.468C359.234 123.606 359.221 124.745 359.267 125.883C359.355 127.326 359.355 128.773 359.267 130.216C359.108 131.535 358.85 132.839 358.496 134.118C358.483 134.235 358.446 134.348 358.387 134.45C358.327 134.551 358.248 134.639 358.152 134.708L358.045 134.736L357.423 134.676L356.735 134.597C356.734 134.499 356.726 134.401 356.712 134.304L349.387 98.4671C349.301 98.0706 349.082 97.7156 348.766 97.4618C348.449 97.208 348.055 97.0709 347.65 97.0736H320.74C320.483 97.0736 320.228 97.1301 319.995 97.2392C319.762 97.3482 319.555 97.5071 319.39 97.7047C319.225 97.9022 319.105 98.1336 319.039 98.3825C318.973 98.6315 318.962 98.8918 319.008 99.1453ZM404.255 141.931C404.312 141.783 404.379 141.639 404.455 141.499C404.729 141.035 405.128 140.654 405.384 140.185C405.514 139.921 405.582 139.63 405.582 139.335C405.582 139.04 405.514 138.749 405.384 138.485C405.119 138.02 405.848 137.579 406.062 137.091C406.162 136.698 406.186 136.29 406.132 135.888C406.213 135.212 406.474 134.57 406.889 134.03C407.4 133.222 407.915 132.423 408.44 131.624C408.593 131.382 408.756 131.159 408.905 130.909C408.99 131.069 409.085 131.224 409.188 131.373C409.569 131.803 409.86 132.305 410.043 132.85C410.075 133.232 410.075 133.616 410.043 133.998C410.043 135.187 410.795 136.232 411.367 137.282C411.938 138.331 412.356 139.646 411.761 140.682C411.552 141.044 411.297 141.611 411.655 141.778C411.854 141.871 412.119 141.778 412.291 141.908C412.533 142.127 412.203 142.494 411.901 142.628C410.905 143.058 409.831 143.28 408.747 143.28C407.662 143.28 406.589 143.058 405.593 142.628C405.175 142.41 404.719 142.159 404.255 141.931ZM347.12 135.716L354.552 136.446C353.936 136.747 353.254 136.888 352.569 136.854L350.766 136.316C350.766 136.316 350.766 136.436 350.706 136.641C350.367 136.552 350.023 136.469 349.684 136.39C348.815 136.185 347.961 135.958 347.111 135.716H347.12Z" fill="url(#paint1_linear_38_2)"/>
<path d="M404.371 55.2675C406.028 58.6424 408.539 61.5249 411.655 63.6287C413.666 64.9805 416.044 66.151 417.01 68.3714C417.912 70.4431 417.298 72.8168 417.089 75.0697C416.838 78.1105 417.342 81.1663 418.558 83.9649C419.774 86.7634 421.663 89.2178 424.057 91.1092C426.802 93.2321 430.467 95.0158 431.053 98.4346C431.471 100.873 430.124 103.205 429.064 105.449C426.881 110.196 426.133 115.984 428.697 120.531C429.427 121.827 430.412 123.007 430.802 124.438C431.489 126.979 430.031 129.747 427.852 131.224C425.674 132.702 422.938 133.082 420.308 133.082C418.395 133.082 416.323 132.794 414.967 131.452C414.038 130.551 413.601 129.297 413.174 128.094L409.848 118.692C409.244 117.001 408.612 115.245 407.353 113.963C404.687 111.241 400.33 111.529 396.521 111.576C390.907 111.642 385.323 110.761 380.003 108.97C376.891 107.92 373.5 106.132 372.78 102.931C372.069 99.8002 374.21 96.8181 376.096 94.2215C377.508 92.286 378.843 90.2963 380.1 88.2525C381.327 86.2644 382.502 84.1741 382.836 81.8655C383.398 78.0286 381.601 74.3032 380.207 70.6847C378.814 67.0661 377.843 62.788 379.868 59.4807C380.741 58.1938 381.857 57.0894 383.152 56.2291C386.195 54.0041 390.282 51.3099 394.017 50.4041C396.019 49.9367 398.105 49.9655 400.093 50.4877C402.499 51.217 403.344 53.1447 404.371 55.2675Z" fill="#3F3D56"/>
<path d="M363.369 100.074C362.622 102.62 362.092 105.224 361.785 107.86C360.856 114.228 359.927 120.634 360.103 127.062C360.189 128.5 360.189 129.941 360.103 131.378C359.945 132.688 359.69 133.984 359.341 135.256C359.329 135.373 359.292 135.485 359.233 135.586C359.173 135.687 359.093 135.774 358.998 135.842C358.779 135.949 358.533 135.842 358.278 135.814C357.451 135.712 356.842 136.511 356.201 137.049C355.578 137.553 354.815 137.854 354.016 137.913C353.217 137.972 352.419 137.786 351.728 137.379C351.94 138.324 351.873 139.311 351.534 140.218C351.195 141.125 350.599 141.914 349.819 142.489C349.028 143.049 348.125 143.431 347.173 143.61C346.22 143.789 345.241 143.76 344.3 143.525C345.253 143.376 346.158 144.045 346.697 144.858C346.883 145.151 347.032 145.499 347.348 145.643C347.664 145.787 348.216 145.606 348.588 145.801C348.774 145.921 348.932 146.08 349.052 146.265C350.204 147.812 352.346 148.193 354.273 148.244C356.201 148.295 358.24 148.165 359.941 149.08C360.345 149.335 360.762 149.569 361.19 149.782C362.528 150.334 364.126 149.782 365.166 148.792C366.207 147.803 366.783 146.405 367.21 145.025C368.929 139.451 368.604 133.454 368.241 127.62C367.675 118.339 366.495 108.84 363.369 100.074Z" fill="#454B69"/>
<path opacity="0.1" d="M363.369 100.074C362.622 102.62 362.092 105.224 361.785 107.86C360.856 114.228 359.927 120.634 360.103 127.062C360.189 128.5 360.189 129.941 360.103 131.378C359.945 132.688 359.69 133.984 359.341 135.256C359.329 135.373 359.292 135.485 359.233 135.586C359.173 135.687 359.093 135.774 358.998 135.842C358.779 135.949 358.533 135.842 358.278 135.814C357.451 135.712 356.842 136.511 356.201 137.049C355.578 137.553 354.815 137.854 354.016 137.913C353.217 137.972 352.419 137.786 351.728 137.379C351.94 138.324 351.873 139.311 351.534 140.218C351.195 141.125 350.599 141.914 349.819 142.489C349.028 143.049 348.125 143.431 347.173 143.61C346.22 143.789 345.241 143.76 344.3 143.525C345.253 143.376 346.158 144.045 346.697 144.858C346.883 145.151 347.032 145.499 347.348 145.643C347.664 145.787 348.216 145.606 348.588 145.801C348.774 145.921 348.932 146.08 349.052 146.265C350.204 147.812 352.346 148.193 354.273 148.244C356.201 148.295 358.24 148.165 359.941 149.08C360.345 149.335 360.762 149.569 361.19 149.782C362.528 150.334 364.126 149.782 365.166 148.792C366.207 147.803 366.783 146.405 367.21 145.025C368.929 139.451 368.604 133.454 368.241 127.62C367.675 118.339 366.495 108.84 363.369 100.074Z" fill="black"/>
<path d="M391.569 269.993C391.105 272.004 390.292 273.936 389.86 275.962C389.538 277.701 389.349 279.461 389.293 281.229L388.796 290.185C388.675 292.308 388.578 294.542 389.521 296.446C390.176 297.766 391.309 298.871 391.634 300.311C392.136 302.564 390.524 304.687 389.019 306.438L381.587 315.036C379.264 317.73 376.723 320.564 373.281 321.479C372.768 321.651 372.216 321.671 371.693 321.535C370.731 321.219 370.267 320.058 370.406 319.054C370.625 318.064 371.077 317.14 371.725 316.36C373.667 313.633 375.752 310.949 377.016 307.846C378.619 303.902 378.781 299.531 378.684 295.271C378.317 277.908 373.936 260.744 374.433 243.395C378.224 243.107 382.163 242.466 385.958 242.512C389.344 242.549 388.94 246.001 389.53 248.713C390.315 252.304 391.258 255.862 391.787 259.504C392.058 261.276 392.19 263.067 392.182 264.86C392.164 266.569 391.569 268.316 391.569 269.993Z" fill="#FBBEBE"/>
<path opacity="0.05" d="M391.569 269.993C391.105 272.004 390.292 273.936 389.86 275.962C389.538 277.701 389.349 279.461 389.293 281.229L388.796 290.185C388.675 292.308 388.578 294.542 389.521 296.446C390.176 297.766 391.309 298.871 391.634 300.311C392.136 302.564 390.524 304.687 389.019 306.438L381.587 315.036C379.264 317.73 376.723 320.564 373.281 321.479C372.768 321.651 372.216 321.671 371.693 321.535C370.731 321.219 370.267 320.058 370.406 319.054C370.625 318.064 371.077 317.14 371.725 316.36C373.667 313.633 375.752 310.949 377.016 307.846C378.619 303.902 378.781 299.531 378.684 295.271C378.317 277.908 373.936 260.744 374.433 243.395C378.224 243.107 382.163 242.466 385.958 242.512C389.344 242.549 388.94 246.001 389.53 248.713C390.315 252.304 391.258 255.862 391.787 259.504C392.058 261.276 392.19 263.067 392.182 264.86C392.164 266.569 391.569 268.316 391.569 269.993Z" fill="black"/>
<path d="M389.326 296.669C391.049 296.316 392.856 297.25 393.92 298.653C394.983 300.056 395.415 301.839 395.582 303.595C395.705 304.342 395.62 305.109 395.336 305.811C395.062 306.355 394.584 306.773 394.273 307.297C393.961 307.911 393.766 308.577 393.697 309.262C393.056 313.234 392.41 317.215 392.071 321.224C391.969 322.445 391.871 323.741 391.142 324.735C390.412 325.729 388.856 326.222 387.965 325.381C388.866 320.805 389.316 316.151 389.307 311.487C387.282 311.209 385.521 312.802 384.197 314.358C382.844 315.949 381.602 317.631 380.481 319.393C379.459 321.014 378.526 322.71 377.23 324.117C375.902 325.526 374.25 326.589 372.419 327.216C370.587 327.842 368.63 328.013 366.718 327.713C366.049 327.16 366.537 325.948 365.979 325.274C365.758 325.058 365.518 324.861 365.264 324.684C364.567 324.071 364.637 322.961 364.953 322.087C365.965 319.254 368.669 317.442 371.223 315.858C375.841 312.96 380.514 310.103 385.159 307.293C386.935 306.205 388.29 304.546 389 302.587C389.168 302.104 389.892 296.479 389.326 296.669Z" fill="#3F3D56"/>
<path opacity="0.05" d="M389.326 296.669C391.049 296.316 392.856 297.25 393.92 298.653C394.983 300.056 395.415 301.839 395.582 303.595C395.705 304.342 395.62 305.109 395.336 305.811C395.062 306.355 394.584 306.773 394.273 307.297C393.961 307.911 393.766 308.577 393.697 309.262C393.056 313.234 392.41 317.215 392.071 321.224C391.969 322.445 391.871 323.741 391.142 324.735C390.412 325.729 388.856 326.222 387.965 325.381C388.866 320.805 389.316 316.151 389.307 311.487C387.282 311.209 385.521 312.802 384.197 314.358C382.844 315.949 381.602 317.631 380.481 319.393C379.459 321.014 378.526 322.71 377.23 324.117C375.902 325.526 374.25 326.589 372.419 327.216C370.587 327.842 368.63 328.013 366.718 327.713C366.049 327.16 366.537 325.948 365.979 325.274C365.758 325.058 365.518 324.861 365.264 324.684C364.567 324.071 364.637 322.961 364.953 322.087C365.965 319.254 368.669 317.442 371.223 315.858C375.841 312.96 380.514 310.103 385.159 307.293C386.935 306.205 388.29 304.546 389 302.587C389.168 302.104 389.892 296.479 389.326 296.669Z" fill="black"/>
<path d="M390.078 264.953C391.007 276.565 388.406 288.104 386.093 299.508C385.873 300.421 385.755 301.356 385.739 302.295C385.83 303.456 386.018 304.607 386.302 305.737C387.175 310.442 386.055 315.268 384.945 319.928C384.169 323.151 383.087 326.793 380.077 328.2C377.954 329.195 375.474 328.763 373.174 328.307C372.415 328.228 371.693 327.938 371.089 327.471C370.262 326.691 370.229 325.404 370.299 324.271C371.098 311.464 377.583 299.187 376.338 286.413C376.129 284.299 375.706 282.209 375.358 280.114C373.565 269.249 373.778 258.096 371.507 247.324C371.396 246.952 371.396 246.554 371.507 246.182C371.704 245.813 372.015 245.518 372.394 245.341C374.494 244.087 376.737 242.967 379.157 242.628C381.048 242.363 383.431 242.568 385.019 243.743C386.687 244.974 386.799 247.622 387.286 249.554C388.536 254.608 389.66 259.736 390.078 264.953Z" fill="#FBBEBE"/>
<path d="M387.04 330.105C387.046 330.265 387.014 330.424 386.947 330.569C386.927 330.598 386.9 330.621 386.868 330.636C386.836 330.651 386.801 330.657 386.766 330.653C386.302 330.653 385.8 330.653 385.321 330.653C385.269 330.072 385.248 329.489 385.256 328.907V324.963C385.256 321.832 385.256 318.697 385.396 315.584C385.395 315.471 385.412 315.358 385.447 315.25C385.479 315.181 385.535 315.127 385.605 315.097C385.949 314.934 386.752 314.432 387.049 315.013C387.347 315.594 387.212 317.405 387.226 318.162C387.272 320.694 387.268 323.235 387.226 325.766C387.17 327.213 387.108 328.659 387.04 330.105Z" fill="#3F3D56"/>
<path d="M361.715 192.833C361.729 193.26 361.691 193.687 361.603 194.105C361.394 195.313 361.139 196.516 360.846 197.71C360.679 198.222 360.611 198.761 360.647 199.299C360.735 199.995 361.172 200.599 361.46 201.245C362.611 203.823 361.371 207 362.495 209.606C362.76 210.219 363.15 210.777 363.383 211.404C363.889 212.769 363.601 214.284 363.773 215.728C363.954 216.748 364.202 217.756 364.516 218.743C365.329 221.948 363.982 225.367 364.767 228.586C365.44 231.341 366.114 234.118 366.16 236.947C366.198 238.917 365.928 240.891 366.16 242.851C366.393 244.811 367.201 246.827 368.868 247.873C370.188 248.695 371.813 248.802 373.374 248.802C376.37 248.857 379.38 248.769 382.372 248.537C385.363 248.305 388.582 247.817 390.691 245.689C389.888 239.404 389.158 232.66 392.117 227.058C392.991 225.404 394.189 223.848 394.5 221.999C394.575 221.535 394.598 221.047 394.695 220.578C394.831 220.028 395.024 219.494 395.271 218.985L401.124 205.653C401.434 204.938 401.743 204.222 402.053 203.507C403.066 201.184 404.083 198.862 404.956 196.498C405.974 193.711 406.782 190.849 407.558 187.988C408.022 186.269 408.487 184.527 408.44 182.748C408.359 181.172 407.991 179.625 407.353 178.182C407.005 177.341 406.605 176.514 406.192 175.706C394.589 172.972 382.649 171.95 370.75 172.673C368.857 172.712 366.979 173.025 365.176 173.602C363.939 174.035 362.824 174.759 361.924 175.711C361.516 176.154 361.181 176.659 360.93 177.206C360.233 178.73 360.275 180.481 360.326 182.153C360.424 185.298 360.53 188.485 361.399 191.504C361.549 191.935 361.655 192.38 361.715 192.833Z" fill="#3F3D56"/>
<path d="M369.849 323.662C371.608 324.996 373.675 325.865 375.859 326.189C377.782 326.473 379.896 326.268 381.433 325.06C383.18 323.667 383.756 321.344 384.276 319.17L384.941 316.276C385.182 315.236 385.405 314.195 385.605 313.146C386.112 310.375 386.268 307.552 386.069 304.743C387.644 305.356 388.592 307.232 388.694 308.923C388.796 310.614 388.276 312.268 387.797 313.894C387.607 314.681 387.316 315.442 386.933 316.156C386.65 316.62 386.283 317.048 386.041 317.549C385.739 318.288 385.566 319.074 385.53 319.872C385.171 322.479 384.653 325.062 383.979 327.606L382.948 331.842L382.846 332.265L381.94 335.832C381.916 335.962 381.874 336.087 381.814 336.204C381.706 336.379 381.56 336.529 381.387 336.641C379.586 337.961 377.468 338.782 375.248 339.022C373.028 339.261 370.784 338.911 368.743 338.006C368.585 337.941 368.439 337.85 368.311 337.737C368.086 337.429 367.985 337.048 368.028 336.669C368.079 335.523 367.854 334.383 367.373 333.343C367.109 332.96 366.895 332.544 366.736 332.107C366.56 331.42 366.843 330.714 367.122 330.059L369.254 325.065C369.491 324.475 369.463 324.173 369.849 323.662Z" fill="#3F3D56"/>
<path d="M374.856 115.775C374.935 116.881 375.152 117.974 375.502 119.026C375.764 119.784 376.22 120.46 376.826 120.987C377.82 119.644 379.613 119.184 380.932 118.2C382.098 117.34 382.92 116.109 383.789 114.948C385.498 112.663 387.505 110.591 389.363 108.408C389.641 108.078 389.915 107.748 390.185 107.409C391.13 106.259 391.985 105.038 392.744 103.758C394.287 101.106 395.341 98.0537 397.659 96.0424C398.922 94.9508 400.506 94.2262 401.63 92.9859C400.869 91.8664 400.585 90.5101 400.316 89.1816C400.031 87.8991 399.81 86.603 399.656 85.2982C399.614 84.9545 399.591 84.6061 399.577 84.2577C399.577 84.1091 399.577 83.9605 399.554 83.7932C399.554 82.7295 400.242 80.8993 399.155 80.3001C398.151 79.7473 396.512 79.7427 395.341 79.7566H395.151C392.417 79.7839 389.751 80.6106 387.481 82.1349C386.966 82.4518 386.515 82.8631 386.153 83.3473C385.544 84.2763 385.512 85.3911 385.558 86.5013C385.558 86.7568 385.582 87.0076 385.6 87.2538C385.6 87.3746 385.6 87.5 385.6 87.6254C385.642 88.861 385.521 90.1849 384.671 91.0396C383.742 91.9686 382.265 92.0104 381.006 92.4053C380.797 92.4703 380.597 92.5446 380.402 92.6236C379.016 93.2493 377.833 94.2521 376.988 95.5175C376.04 96.9688 375.369 98.5831 375.009 100.279C374.655 101.805 374.434 103.359 374.35 104.924C374.108 108.515 374.48 112.175 374.856 115.775Z" fill="#FBBEBE"/>
<path opacity="0.1" d="M385.577 87.2538C385.577 87.3746 385.577 87.5 385.577 87.6254C387.119 88.1875 390.872 86.6082 392.61 86.6082C396.056 86.6082 397.12 87.291 399.614 85.2797C399.559 84.7873 399.526 84.2903 399.512 83.7932C399.512 82.7295 400.2 80.8993 399.113 80.3001C398.026 79.7009 396.284 79.7427 395.109 79.7566C392.375 79.7839 389.709 80.6106 387.44 82.1349C386.924 82.4518 386.474 82.8631 386.111 83.3473C385.382 84.4621 385.498 85.9253 385.577 87.2538Z" fill="black"/>
<path d="M376.031 72.8865C376.031 74.7914 376.405 76.6779 377.134 78.4379C377.863 80.198 378.932 81.7971 380.279 83.1439C381.626 84.4908 383.226 85.5589 384.986 86.2872C386.746 87.0155 388.633 87.3897 390.538 87.3885C394.383 87.386 398.071 85.8574 400.79 83.1382C403.509 80.4191 405.037 76.7319 405.04 72.8865C404.972 69.0846 403.414 65.4615 400.701 62.7969C397.988 60.1323 394.338 58.6393 390.536 58.6393C386.733 58.6393 383.083 60.1323 380.37 62.7969C377.657 65.4615 376.099 69.0846 376.031 72.8865Z" fill="#FBBEBE"/>
<path d="M400.432 90.0269C400.889 89.6448 401.448 89.4057 402.039 89.3395C402.894 89.3395 403.595 90.0409 403.948 90.8166C404.301 91.5924 404.413 92.4563 404.715 93.2553C405.128 94.3351 405.881 95.2513 406.861 95.8659C407.544 96.2932 408.357 96.5905 408.826 97.2594C409.564 98.3045 409.114 99.7631 408.491 100.883C406.169 105.063 401.988 107.785 397.942 110.349L393.39 113.239C391.565 114.446 389.676 115.555 387.732 116.56C384.574 118.116 381.159 119.115 378.019 120.703C376.575 121.433 375.158 122.301 373.56 122.561C373.224 121.487 373.012 120.377 372.928 119.254C372.153 112.328 371.386 105.254 372.928 98.4578C373.216 97.1618 373.62 95.838 374.531 94.8764C375.127 94.3091 375.809 93.8389 376.551 93.4829C378.394 92.4929 380.289 91.6044 382.228 90.8213C383.136 90.3803 384.135 90.1591 385.145 90.1756C385.06 90.9337 384.835 91.6694 384.481 92.3449L377.165 108.631C376.7 109.653 376.236 110.721 376.273 111.845C376.328 113.443 377.406 114.999 376.965 116.537C381.212 110.338 386.087 104.594 391.513 99.3961C391.753 99.1975 391.951 98.9527 392.094 98.6762C392.227 98.2414 392.255 97.7816 392.178 97.3337C392.127 96.479 392.303 95.3363 393.018 94.765C393.515 94.3655 394.249 94.2494 394.797 93.901C396.721 92.6886 398.56 91.3183 400.432 90.0269Z" fill="#63FF68"/>
<path opacity="0.1" d="M361.659 176.997C365.268 178.92 369.338 179.859 373.411 180.249C377.485 180.639 381.582 180.477 385.67 180.319C388.773 180.207 391.871 180.082 394.96 179.97C399.178 179.803 403.321 179.464 407.353 178.191C407.005 177.35 406.605 176.524 406.192 175.715C394.589 172.982 382.649 171.96 370.75 172.682C368.857 172.721 366.979 173.034 365.176 173.611C363.939 174.045 362.824 174.768 361.924 175.72C361.859 176.152 361.757 176.579 361.659 176.997Z" fill="black"/>
<path d="M362.314 131.666C363.921 137.096 362.82 143.037 361.817 148.606C361.218 148.908 361.032 149.712 361.162 150.372C361.363 151.013 361.621 151.635 361.933 152.23C362.089 152.529 362.174 152.86 362.182 153.197C362.19 153.535 362.121 153.869 361.98 154.176C361.836 154.431 361.608 154.64 361.459 154.873C361.263 155.276 361.165 155.72 361.172 156.169C361.037 158.273 360.911 160.414 361.478 162.44C361.808 163.619 362.37 164.846 361.998 166.007C361.78 166.708 361.237 167.303 361.158 168.037C361.079 168.771 361.538 169.533 361.808 170.271C362.444 172.009 362.101 174.099 361.659 175.896C365.268 177.82 369.338 178.758 373.411 179.148C377.485 179.538 381.582 179.376 385.67 179.222L394.96 178.869C399.21 178.702 403.391 178.358 407.446 177.062C407.836 174.275 408.166 171.186 406.601 168.85C406.295 168.477 406.049 168.058 405.871 167.61C405.593 166.653 406.197 165.682 406.392 164.702C406.787 162.7 405.463 160.818 404.292 159.128C404.119 158.902 403.984 158.649 403.893 158.38C403.679 157.609 404.143 156.759 404.153 155.983C404.157 155.757 404.106 155.534 404.004 155.333C403.832 155.007 403.512 154.784 403.335 154.459C403.154 154.038 403.1 153.573 403.177 153.121C403.391 150.22 403.741 147.332 404.227 144.458C404.274 144.198 404.32 143.933 404.38 143.673C404.468 143.276 404.612 142.893 404.808 142.535C405.077 142.071 405.472 141.695 405.737 141.225C405.867 140.963 405.935 140.675 405.935 140.382C405.935 140.09 405.867 139.801 405.737 139.539C405.472 139.051 406.201 138.633 406.41 138.146C406.509 137.756 406.531 137.35 406.475 136.952C406.557 136.277 406.815 135.637 407.223 135.094C407.729 134.29 408.24 133.496 408.761 132.702C411.074 129.119 413.479 125.599 415.975 122.143C417.192 120.48 418.419 118.833 419.658 117.201C420.657 115.886 421.683 114.548 422.185 112.974C422.273 112.7 422.343 112.421 422.394 112.138C422.671 110.626 422.453 109.065 421.772 107.688C421.177 106.498 420.271 105.509 419.477 104.436C418.594 103.247 417.837 101.946 416.825 100.869C415.812 99.791 414.446 98.9269 412.965 98.9269C412.105 98.9269 411.106 99.1685 410.507 98.5553C410.289 98.3324 410.173 98.0351 409.95 97.8261C409.318 97.2268 408.287 97.6356 407.53 98.063L393.004 106.271L390.649 107.609C390.222 107.864 389.785 108.115 389.358 108.375C387.328 109.554 385.383 110.873 383.538 112.323C380.844 114.479 377.866 116.467 375.52 118.994C375.302 119.226 375.084 119.458 374.875 119.714C374.45 116.76 374.028 113.801 373.606 110.837C373.451 109.985 373.395 109.119 373.439 108.254C373.552 107.404 373.761 106.568 374.062 105.765C374.155 105.481 374.257 105.189 374.35 104.901L375.915 100.204C376.682 97.905 377.499 95.5128 379.232 93.8173C379.651 93.4589 380.037 93.0624 380.384 92.6328V92.6096C380.546 92.3944 380.657 92.1442 380.706 91.8789C380.755 91.6137 380.742 91.3406 380.667 91.0814L368.432 94.8996C367.856 95.0808 367.275 95.262 366.722 95.4989C366.055 95.7899 365.43 96.1696 364.864 96.6276C363.943 97.3601 363.227 98.319 362.786 99.4108C362.346 100.503 362.196 101.69 362.351 102.857C362.472 103.619 362.742 104.352 362.899 105.105C363.178 106.471 363.619 108.05 363.025 109.313C362.43 110.577 361.896 111.706 361.339 112.899C360.878 113.81 360.495 114.758 360.196 115.733C359.865 117.066 359.732 118.44 359.801 119.811C359.873 122.874 360.402 125.908 361.371 128.814C361.664 129.771 362.026 130.709 362.314 131.666Z" fill="#454B69"/>
<path d="M387.286 138.545L358.273 135.814L353.205 135.242L357.864 136.891L387.286 138.545Z" fill="#3F3D56"/>
<path d="M387.937 139.948V137.765L357.181 136.246L355.686 137.533L387.937 139.948Z" fill="#3F3D56"/>
<path d="M387.839 135.786C387.193 135.614 386.501 135.647 385.846 135.493C385.001 135.289 384.239 134.769 383.375 134.662C382.841 134.624 382.305 134.663 381.782 134.778L377.801 135.475C377.494 135.526 377.132 135.623 377.025 135.916C376.997 136.049 377.005 136.187 377.048 136.317C377.091 136.446 377.169 136.561 377.271 136.65C377.982 137.407 379.129 137.514 380.161 137.579L382.948 137.746C383.488 137.733 384.023 137.854 384.504 138.099C384.745 138.229 384.931 138.442 385.027 138.698C385.124 138.954 385.124 139.236 385.029 139.493C384.878 139.742 384.657 139.941 384.392 140.064C383.285 140.673 382.013 140.914 380.76 140.752C379.75 140.559 378.76 140.276 377.801 139.906C375.357 139.125 372.778 138.853 370.225 139.107C369.565 139.172 368.789 139.363 368.553 139.985C368.49 140.204 368.481 140.435 368.528 140.657C368.575 140.88 368.676 141.088 368.822 141.263C369.811 142.656 371.786 142.693 373.467 143.065C375.043 143.426 376.501 144.182 377.703 145.262C377.336 146.019 377.643 146.916 378.01 147.673C378.43 148.539 378.929 149.365 379.501 150.139C379.808 150.62 380.24 151.009 380.751 151.263C381.088 151.382 381.443 151.443 381.8 151.445C385.246 151.657 388.706 151.469 392.108 150.883C392.474 150.857 392.822 150.712 393.097 150.469C393.272 150.232 393.383 149.954 393.418 149.661C393.771 147.927 394.081 146.183 394.347 144.43C394.514 143.325 394.584 142.164 394.04 141.146C393.618 140.347 392.949 140.087 392.266 139.548C390.742 138.35 389.795 136.306 387.839 135.786Z" fill="#FBBEBE"/>
<path d="M350.367 99.712L357.572 135.442C357.625 135.711 357.615 135.988 357.542 136.252C357.469 136.515 357.336 136.759 357.152 136.961C356.968 137.164 356.739 137.321 356.484 137.419C356.228 137.518 355.953 137.555 355.681 137.528L328.526 134.848C328.153 134.812 327.802 134.657 327.524 134.406C327.246 134.155 327.057 133.821 326.983 133.454L320.327 100.399C320.276 100.146 320.282 99.8837 320.345 99.6325C320.407 99.3813 320.525 99.1471 320.689 98.9468C320.853 98.7464 321.059 98.5849 321.293 98.4739C321.527 98.3628 321.782 98.305 322.041 98.3045H348.653C349.057 98.3061 349.448 98.447 349.76 98.7034C350.073 98.9597 350.287 99.316 350.367 99.712Z" fill="#3F3D56"/>
<path d="M336.854 142.224C335.145 141.128 334.634 138.931 333.84 137.063C333.208 135.688 332.48 134.36 331.661 133.087C330.969 131.944 330.268 130.556 330.825 129.339C331.26 128.562 331.974 127.981 332.822 127.713C333.591 127.35 334.456 127.244 335.289 127.411C336.218 127.666 336.91 128.437 337.542 129.171L339.781 131.768C340.803 132.957 341.852 134.165 343.2 134.968C344.017 135.425 344.881 135.791 345.778 136.06C347.385 136.593 349.011 137.057 350.655 137.454C351.6 137.635 352.522 137.92 353.405 138.304C353.583 138.369 353.746 138.469 353.885 138.598C354.024 138.727 354.136 138.883 354.213 139.056C354.251 139.27 354.245 139.489 354.197 139.7C354.148 139.912 354.057 140.111 353.93 140.287C353.363 141.346 352.717 143.497 351.528 143.873C350.411 144.152 349.272 144.331 348.123 144.407C346.99 144.528 346.098 144.064 345.076 143.636C343.793 143.146 342.421 142.926 341.049 142.991C339.841 142.986 337.788 143.158 336.854 142.224Z" fill="#FBBEBE"/>
<path d="M351.723 137.379C351.723 137.379 350.72 144.254 344.291 143.515C344.291 143.515 347.696 144.876 347.338 145.634C346.981 146.391 355.235 144.156 355.235 144.156L355.662 140.57C355.662 140.57 355.936 138.596 355.662 138.54C355.388 138.485 351.723 137.379 351.723 137.379Z" fill="#454B69"/>
<path opacity="0.1" d="M351.723 137.379C351.723 137.379 350.72 144.254 344.291 143.515C344.291 143.515 347.696 144.876 347.338 145.634C346.981 146.391 355.235 144.156 355.235 144.156L355.662 140.57C355.662 140.57 355.936 138.596 355.662 138.54C355.388 138.485 351.723 137.379 351.723 137.379Z" fill="black"/>
<path opacity="0.1" d="M381.317 108.686C380.687 109.006 380.168 109.51 379.831 110.131C379.294 110.986 378.887 111.916 378.623 112.89C378.307 114.075 378.159 115.399 377.285 116.253" fill="black"/>
<path opacity="0.1" d="M408.245 127.699C407.775 129.37 407.97 131.157 408.789 132.688C411.102 129.105 413.506 125.585 416.002 122.129C417.201 120.476 418.419 118.833 419.658 117.201C420.657 115.886 421.683 114.548 422.185 112.974C422.273 112.7 422.343 112.421 422.394 112.138C421.774 111.23 420.852 110.572 419.793 110.28C418.107 115.166 413.833 118.669 410.781 122.845C409.631 124.284 408.769 125.932 408.245 127.699Z" fill="black"/>
<path opacity="0.1" d="M386.738 152.699L396.841 153.043C397.705 153.07 398.769 153.242 399.038 154.06C399.122 154.32 399.103 154.603 399.187 154.859C399.47 155.788 400.701 155.89 401.663 155.885C402.499 155.885 403.335 155.918 404.167 155.983C404.17 155.757 404.119 155.534 404.018 155.333C403.846 155.007 403.526 154.784 403.349 154.459C403.168 154.038 403.114 153.573 403.191 153.122C403.405 150.22 403.755 147.332 404.241 144.458C404.287 144.198 404.334 143.933 404.394 143.673C403.544 143.241 402.685 142.833 401.76 142.93C400.929 143.018 400.167 143.511 399.336 143.464C397.891 143.395 396.897 141.783 395.457 141.69C395.143 141.714 394.827 141.676 394.528 141.578C394.064 141.346 393.999 140.742 393.766 140.292C393.418 139.627 392.442 139.465 391.713 139.637C391.732 141.164 391.634 142.69 391.42 144.203C391.348 144.867 391.192 145.52 390.956 146.145C390.682 146.777 390.337 147.377 389.929 147.933C388.861 149.535 387.821 151.101 386.738 152.699Z" fill="black"/>
<path d="M420.322 109.713C422.12 110.177 423.393 111.85 423.918 113.629C424.443 115.408 424.35 117.298 424.303 119.147C424.123 126.021 424.59 132.897 425.697 139.683C426.226 142.935 426.904 146.186 426.705 149.489C426.593 151.273 426.189 153.112 425.042 154.482C423.24 156.647 420.099 157.088 417.284 156.982C412.231 156.782 407.27 155.305 402.211 155.333C401.25 155.333 400.023 155.226 399.735 154.311C399.652 154.05 399.67 153.772 399.587 153.512C399.322 152.694 398.258 152.522 397.394 152.49L387.286 152.151C388.369 150.553 389.409 148.983 390.491 147.385C390.898 146.827 391.244 146.228 391.523 145.596C391.757 144.969 391.913 144.315 391.987 143.65C392.201 142.139 392.298 140.614 392.275 139.089C393.004 138.917 393.98 139.089 394.328 139.744C394.565 140.208 394.64 140.798 395.095 141.03C395.394 141.13 395.71 141.166 396.024 141.137C397.464 141.23 398.462 142.846 399.902 142.916C400.734 142.963 401.5 142.452 402.327 142.382C403.637 142.247 404.808 143.111 406.011 143.641C406.995 144.07 408.056 144.292 409.13 144.292C410.203 144.292 411.265 144.07 412.249 143.641C412.546 143.511 412.872 143.144 412.63 142.925C412.467 142.781 412.198 142.893 412.003 142.795C411.631 142.614 411.901 142.066 412.11 141.708C412.695 140.677 412.282 139.386 411.715 138.327C411.148 137.268 410.424 136.241 410.41 135.075C410.442 134.697 410.442 134.316 410.41 133.937C410.228 133.395 409.941 132.895 409.564 132.465C408.528 130.95 408.38 128.948 408.83 127.165C409.333 125.393 410.17 123.734 411.297 122.278C414.363 118.107 418.636 114.604 420.322 109.713Z" fill="#454B69"/>
<path opacity="0.1" d="M392.986 106.285L390.631 107.623C391.353 107.956 392.093 108.251 392.847 108.505C398.151 110.289 396.261 112.76 401.858 112.686C405.672 112.644 410.024 112.351 412.69 115.073C413.954 116.355 414.586 118.111 415.185 119.807C415.459 120.573 415.733 121.349 416.002 122.129C417.201 120.476 418.419 118.833 419.658 117.201C420.657 115.886 421.683 114.548 422.185 112.974C422.73 111.224 422.582 109.331 421.772 107.688C421.177 106.499 420.271 105.509 419.477 104.436C418.594 103.247 417.837 101.946 416.825 100.869C415.812 99.791 414.446 98.927 412.965 98.927C412.105 98.927 411.106 99.1685 410.507 98.5554C410.289 98.3324 410.173 98.0351 409.95 97.8261C409.318 97.2269 408.287 97.6356 407.53 98.063L392.986 106.285Z" fill="black"/>
<path d="M378.944 62.1888C379.02 61.4968 379.19 60.8186 379.45 60.1728C379.692 59.6766 380.005 59.2181 380.379 58.8118C381.603 57.4298 383.104 56.3212 384.785 55.5585C386.465 54.7957 388.288 54.3958 390.134 54.385C390.45 54.368 390.767 54.4187 391.063 54.5336C391.137 54.5681 391.207 54.6102 391.272 54.659C393.929 52.8707 397.018 51.1055 399.898 50.4087C401.9 49.9414 403.985 49.9701 405.974 50.4924C408.389 51.217 409.225 53.1447 410.261 55.249C411.918 58.6317 414.432 61.521 417.554 63.6287C419.565 64.9805 421.944 66.151 422.91 68.3714C423.811 70.4431 423.198 72.8168 422.989 75.0697C422.737 78.1105 423.242 81.1663 424.457 83.9649C425.673 86.7634 427.562 89.2178 429.956 91.1092C432.702 93.2321 436.367 95.0158 436.952 98.4346C437.37 100.873 436 103.205 434.964 105.449C432.781 110.196 432.033 115.984 434.597 120.531C435.326 121.827 436.311 123.007 436.701 124.438C437.384 126.979 435.93 129.747 433.751 131.224C431.573 132.702 428.837 133.082 426.208 133.082C424.294 133.082 422.222 132.794 420.866 131.452C419.937 130.551 419.5 129.297 419.073 128.094C417.961 124.96 416.852 121.826 415.747 118.692C415.143 117.001 414.511 115.245 413.253 113.963C410.586 111.241 406.229 111.529 402.42 111.576C396.818 111.645 398.704 109.174 393.409 107.395C390.292 106.345 386.905 104.557 386.181 101.356C385.47 98.2255 387.611 95.2434 389.497 92.6468C390.91 90.7113 392.246 88.7216 393.506 86.6778C394.728 84.6897 395.903 82.5994 396.242 80.2908C396.804 76.4539 387.5 74.3125 386.106 70.694C385.707 69.6722 385.372 68.6265 385.103 67.5632C384.434 67.5167 383.812 67.4517 383.38 67.4331C381.601 67.3541 379.594 66.6574 378.986 64.9805C378.656 64.0933 378.781 63.1178 378.944 62.1888Z" fill="#3F3D56"/>
<g opacity="0.1">
<path d="M394.607 53.2609C394.311 53.1459 393.995 53.0953 393.678 53.1122H393.548C395.525 51.8689 397.671 50.9191 399.921 50.2926C400.093 50.2508 400.279 50.2183 400.46 50.1858C398.488 51.0935 396.6 52.1722 394.816 53.4095C394.751 53.3543 394.681 53.3046 394.607 53.2609Z" fill="black"/>
<path d="M378.944 62.0773C379.02 61.387 379.191 60.7103 379.45 60.0659C379.692 59.5682 380.005 59.1082 380.379 58.7003C382.35 56.4775 385.015 54.9876 387.941 54.4732C386.408 55.2174 385.039 56.2596 383.914 57.539C383.54 57.947 383.227 58.407 382.985 58.9046C382.726 59.549 382.555 60.2257 382.479 60.916C382.256 61.8331 382.267 62.7914 382.511 63.7031C383.12 65.3753 385.126 66.0767 386.905 66.151C387.337 66.151 387.96 66.2346 388.629 66.2857C388.899 67.3474 389.234 68.3914 389.632 69.4119C391.026 73.0304 400.316 75.1718 399.768 79.0087C399.429 81.3313 398.253 83.4123 397.032 85.3957C395.81 87.3792 394.435 89.4277 393.023 91.3647C391.137 93.9613 388.996 96.9388 389.706 100.079C390.417 103.219 393.817 105.072 396.934 106.118C402.239 107.906 400.344 110.377 405.946 110.298C409.755 110.252 414.112 109.964 416.778 112.686C418.037 113.972 418.669 115.724 419.273 117.419C420.378 120.55 421.487 123.682 422.598 126.816C423.026 128.024 423.481 129.273 424.391 130.175C425.748 131.517 427.82 131.796 429.733 131.805C430.822 131.816 431.91 131.734 432.985 131.559C430.95 132.66 428.535 132.952 426.203 132.952C424.289 132.952 422.218 132.664 420.861 131.322C419.932 130.421 419.496 129.171 419.068 127.964C417.956 124.83 416.848 121.697 415.742 118.566C415.138 116.871 414.507 115.12 413.248 113.833C410.582 111.111 406.224 111.399 402.415 111.446C396.813 111.515 398.699 109.044 393.404 107.265C390.287 106.215 386.901 104.427 386.176 101.226C385.465 98.0955 387.607 95.1087 389.493 92.512C390.905 90.5766 392.241 88.5869 393.501 86.5431C394.723 84.5596 395.898 82.4647 396.237 80.156C396.8 76.3192 387.495 74.1778 386.102 70.5592C385.703 69.5388 385.368 68.4947 385.098 67.4331C384.43 67.382 383.807 67.3169 383.375 67.2984C381.596 67.224 379.589 66.5226 378.981 64.8504C378.738 63.9435 378.725 62.9903 378.944 62.0773Z" fill="black"/>
</g>
</g>
<defs>
<linearGradient id="paint0_linear_38_2" x1="197.817" y1="339.799" x2="197.817" y2="25.9801" gradientUnits="userSpaceOnUse">
<stop stop-color="#808080" stop-opacity="0.25"/>
<stop offset="0.54" stop-color="#808080" stop-opacity="0.12"/>
<stop offset="1" stop-color="#808080" stop-opacity="0.1"/>
</linearGradient>
<linearGradient id="paint1_linear_38_2" x1="377.996" y1="339.098" x2="377.996" y2="48.56" gradientUnits="userSpaceOnUse">
<stop stop-color="#808080" stop-opacity="0.25"/>
<stop offset="0.54" stop-color="#808080" stop-opacity="0.12"/>
<stop offset="1" stop-color="#808080" stop-opacity="0.1"/>
</linearGradient>
<clipPath id="clip0_38_2">
<rect width="500" height="340.705" fill="white"/>
</clipPath>
</defs>
</svg>
