<svg width="500" height="399" viewBox="0 0 500 399" fill="none" xmlns="http://www.w3.org/2000/svg">
<g clip-path="url(#clip0_51_78)">
<path d="M439.207 386.515L428.813 386.514L423.868 346.421L439.209 346.422L439.207 386.515Z" fill="#FFB6B6"/>
<path d="M439.573 397.358L407.609 397.357V396.953C407.61 390.082 413.18 384.512 420.05 384.512H420.051L425.89 380.083L436.783 384.513L439.574 384.513L439.573 397.358Z" fill="#2F2E41"/>
<path d="M393.126 386.515L382.731 386.514L377.787 346.421L393.128 346.422L393.126 386.515Z" fill="#FFB6B6"/>
<path d="M393.492 397.358L361.528 397.357V396.953C361.528 390.082 367.098 384.512 373.969 384.512H373.97L379.808 380.083L390.702 384.513L393.492 384.513L393.492 397.358Z" fill="#2F2E41"/>
<path d="M388.172 162.767L448.142 164.029C448.142 164.029 458.923 181.704 450.692 206.639L451.614 213.583L447.826 224.314L445.932 257.139L447.826 262.189L446.564 271.658C446.564 271.658 451.614 334.152 438.989 365.715L423.839 365.084L418.157 282.735L421.313 276.708L420.682 274.183L413.107 236.308L405.532 255.877V266.75L398.588 274.814C398.588 274.814 401.113 349.303 394.17 364.453H377.208L370.813 263.452L377.126 204.745L375.863 200.958L377.757 199.064L376.494 192.751L388.173 162.767L388.172 162.767Z" fill="#2F2E41"/>
<path d="M413.738 47.5626L432.045 43.1438L437.095 55.1377C437.095 55.1377 463.223 69.0253 464.485 87.963C464.485 87.963 468.026 103.113 464.87 110.057C461.714 117.001 448.457 139.095 448.457 139.095C448.457 139.095 460.451 177.601 457.295 179.495C454.139 181.389 379.019 177.601 379.019 173.814C379.019 170.026 391.521 130.257 391.521 130.257L394.169 62.0815L411.213 55.7689L413.738 47.5626L413.738 47.5626V47.5626Z" fill="#63FF68"/>
<path d="M462.542 202.956C458.711 201.025 457.17 196.354 459.1 192.522C459.295 192.136 459.523 191.781 459.769 191.443L449.583 121.603L463.686 122.054L471.063 190.102C473.737 192.37 474.623 196.244 472.976 199.514C471.045 203.345 466.374 204.886 462.542 202.956H462.542Z" fill="#FFB6B6"/>
<path d="M328.728 169.993C327.186 165.99 329.181 161.494 333.184 159.951C333.587 159.796 333.996 159.686 334.405 159.6L373.756 101.01L383.903 110.814L343.674 166.191C344.132 169.667 342.187 173.133 338.771 174.449C334.767 175.992 330.271 173.997 328.728 169.993V169.993Z" fill="#FFB6B6"/>
<path d="M436.844 103.987C432.86 90.2978 439.478 76.3315 453.735 76.3989C457.856 76.4184 461.057 77.6142 461.944 80.9241C465.05 92.509 466.743 109.996 466.743 109.996L470.427 128.615L468.196 132.481L472.848 144.958L470.591 150.861L470.103 181.006L458.741 180.375L446.221 157.394L441.434 154.548C441.434 154.548 445.278 117.392 437.632 106.694L436.844 103.987H436.844V103.987Z" fill="#63FF68"/>
<path d="M385.948 70.2975C392.593 57.683 409.602 54.695 419.81 64.6482C422.761 67.5251 424.233 70.6093 422.572 73.6065C416.757 84.0967 403.279 95.3915 403.279 95.3915L386.682 122.074L382.391 123.305L377.069 135.511L365.663 148.921L350.557 156.887L341.72 148.05L343.596 136.689L366.339 106.387C366.339 106.387 382.702 85.7984 384.635 72.7917L385.948 70.2975V70.2974V70.2975Z" fill="#63FF68"/>
<path d="M417.217 43.8731C417.635 43.9233 418.052 43.961 418.466 43.98C419.757 44.0507 421.031 43.9772 422.259 43.7689C425.992 43.1707 429.382 41.4029 431.999 38.8105C434.765 36.0751 436.658 32.4241 437.17 28.2676C438.368 18.4565 431.382 9.51931 421.571 8.32051C411.901 7.13196 403.086 13.8956 401.678 23.4815C401.656 23.6298 401.634 23.772 401.618 23.9197C400.42 33.7371 407.399 42.6687 417.217 43.8731V43.8731V43.8731Z" fill="#FFB6B6"/>
<path d="M397.644 22.8247C400.186 24.0815 404.338 20.1303 405.929 22.4037C406.187 21.9124 406.472 21.4373 406.754 20.9879C407.009 20.5859 407.374 19.7277 407.796 19.5807C407.262 20.8698 407.38 22.6158 407.935 24.1117C410.442 25.0484 413.723 22.9749 416.043 20.5223C419.687 16.6767 425.636 26.5381 424.229 31.6415C426.02 29.4554 429.904 30.6884 431.221 33.188C432.537 35.6813 430.313 37.6791 429.838 40.4602L433.427 40.0045C435.691 37.7991 435.533 34.083 437.397 31.527C440.512 27.2493 441.719 22.8848 439.377 18.4701C437.301 14.5666 437.106 9.5147 433.296 7.26423C434.961 6.45031 429.041 7.72185 430.622 5.06936C432.211 2.42245 423.745 2.10118 423.192 3.51925C420.773 0.623961 418.333 -1.28496 415.357 1.03499C412.435 3.31746 412.737 5.71659 409.305 5.50159C407.694 5.40179 407.871 8.40488 406.913 9.71417C405.961 11.0165 402.261 11.8525 402.081 11.7131C401.103 10.9484 397.778 17.4582 397.778 17.4582C397.778 17.4582 395.082 21.5511 397.644 22.8247H397.644Z" fill="#2F2E41"/>
<path d="M173.647 136.444C233.783 136.444 282.533 185.194 282.533 245.33C282.533 305.467 233.783 354.217 173.647 354.217C113.511 354.217 30.2848 294.594 64.7609 245.33C99.237 196.067 113.511 136.444 173.647 136.444Z" fill="#333333"/>
<path d="M319.383 141.624C318.407 141.624 317.613 142.418 317.613 143.395V200.051C317.613 201.027 318.407 201.821 319.383 201.821C320.36 201.821 321.154 201.027 321.154 200.051V143.395C321.154 142.418 320.36 141.624 319.383 141.624Z" fill="#3F3D56"/>
<path d="M21.9382 99.1321C20.9617 99.1321 20.1677 99.9261 20.1677 100.903V115.067C20.1677 116.043 20.9617 116.837 21.9382 116.837C22.9146 116.837 23.7087 116.043 23.7087 115.067V100.903C23.7087 99.9261 22.9146 99.1321 21.9382 99.1321Z" fill="#3F3D56"/>
<path d="M21.9382 141.624C20.9617 141.624 20.1677 142.418 20.1677 143.395V170.838C20.1677 171.814 20.9617 172.608 21.9382 172.608C22.9146 172.608 23.7087 171.814 23.7087 170.838V143.395C23.7087 142.418 22.9146 141.624 21.9382 141.624Z" fill="#3F3D56"/>
<path d="M21.9382 180.575C20.9617 180.575 20.1677 181.369 20.1677 182.346V209.789C20.1677 210.765 20.9617 211.559 21.9382 211.559C22.9146 211.559 23.7087 210.765 23.7087 209.789V182.346C23.7087 181.369 22.9146 180.575 21.9382 180.575Z" fill="#3F3D56"/>
<path d="M180.729 43.3611C179.753 43.3611 178.959 44.1551 178.959 45.1316V72.5744C178.959 73.5509 179.753 74.3449 180.729 74.3449C181.706 74.3449 182.5 73.5509 182.5 72.5744V45.1316C182.5 44.1551 181.706 43.3611 180.729 43.3611Z" fill="#3F3D56"/>
<path d="M0 397.258C0 397.842 0.469211 398.311 1.0535 398.311H498.822C499.407 398.311 499.876 397.842 499.876 397.258C499.876 396.674 499.407 396.205 498.822 396.205H1.0535C0.469211 396.205 0 396.674 0 397.258Z" fill="#CCCCCC"/>
<path d="M126.039 237.991H64.7609V236.22H126.039C131.362 236.22 135.693 231.889 135.693 226.566V185.133H137.463V226.566C137.463 232.865 132.338 237.991 126.039 237.991H126.039Z" fill="#63FF68"/>
<path d="M242.962 327.804H103.591V329.575H242.962V327.804Z" fill="#63FF68"/>
<path d="M331.388 226.152H256.946C252.928 226.152 249.66 222.884 249.66 218.866V145.332C249.66 141.315 252.928 138.046 256.946 138.046H331.388C335.406 138.046 338.674 141.315 338.674 145.332V218.866C338.674 222.884 335.406 226.152 331.388 226.152Z" fill="#E6E6E6"/>
<path d="M270.809 140.217C260.328 140.217 251.831 148.714 251.831 159.195V217.306C251.831 220.993 254.819 223.981 258.506 223.981H304.025C321.962 223.981 336.503 209.44 336.503 191.504V146.892C336.503 143.206 333.514 140.217 329.828 140.217H270.809V140.217Z" fill="white"/>
<path d="M314.105 161.587H274.073C273.309 161.587 272.688 160.965 272.688 160.202C272.688 159.438 273.309 158.817 274.073 158.817H314.105C314.869 158.817 315.49 159.438 315.49 160.202C315.49 160.965 314.869 161.587 314.105 161.587Z" fill="#E6E6E6"/>
<path d="M314.105 191.122H274.073C273.309 191.122 272.688 190.501 272.688 189.737C272.688 188.973 273.309 188.352 274.073 188.352H314.105C314.869 188.352 315.49 188.973 315.49 189.737C315.49 190.501 314.869 191.122 314.105 191.122Z" fill="#E6E6E6"/>
<path d="M330.361 176.364H257.817C257.053 176.364 256.432 175.742 256.432 174.979C256.432 174.215 257.053 173.594 257.817 173.594H330.361C331.125 173.594 331.746 174.215 331.746 174.979C331.746 175.742 331.125 176.364 330.361 176.364Z" fill="#E6E6E6"/>
<path d="M331.102 203.131H304.895C304.131 203.131 303.51 202.509 303.51 201.746C303.51 200.982 304.131 200.361 304.895 200.361H331.102C331.865 200.361 332.486 200.982 332.486 201.746C332.486 202.509 331.865 203.131 331.102 203.131Z" fill="#E6E6E6"/>
<path d="M175.024 372.665H115.912C112.722 372.665 110.127 370.07 110.127 366.88V308.489C110.127 305.299 112.722 302.704 115.912 302.704H175.025C178.215 302.704 180.81 305.299 180.81 308.489V366.88C180.81 370.07 178.215 372.665 175.025 372.665H175.024Z" fill="#E6E6E6"/>
<path d="M126.921 304.427C118.598 304.427 111.851 311.174 111.851 319.497V365.641C111.851 368.569 114.224 370.942 117.151 370.942H153.297C167.54 370.942 179.086 359.395 179.086 345.152V309.728C179.086 306.8 176.713 304.427 173.786 304.427H126.921L126.921 304.427H126.921Z" fill="white"/>
<path d="M161.3 321.396H129.512C128.906 321.396 128.413 320.902 128.413 320.296C128.413 319.69 128.906 319.196 129.512 319.196H161.3C161.907 319.196 162.4 319.69 162.4 320.296C162.4 320.902 161.907 321.396 161.3 321.396Z" fill="#E6E6E6"/>
<path d="M161.3 344.849H129.512C128.906 344.849 128.413 344.356 128.413 343.749C128.413 343.143 128.906 342.649 129.512 342.649H161.3C161.907 342.649 162.4 343.143 162.4 343.749C162.4 344.356 161.907 344.849 161.3 344.849Z" fill="#E6E6E6"/>
<path d="M174.209 333.13H116.604C115.998 333.13 115.504 332.637 115.504 332.03C115.504 331.424 115.998 330.931 116.604 330.931H174.209C174.815 330.931 175.308 331.424 175.308 332.03C175.308 332.637 174.815 333.13 174.209 333.13Z" fill="#E6E6E6"/>
<path d="M174.797 354.385H153.987C153.381 354.385 152.887 353.892 152.887 353.285C152.887 352.679 153.381 352.186 153.987 352.186H174.797C175.403 352.186 175.897 352.679 175.897 353.285C175.897 353.892 175.403 354.385 174.797 354.385Z" fill="#E6E6E6"/>
<path d="M133.709 184.687H89.9925C87.6333 184.687 85.714 182.767 85.714 180.408V137.225C85.714 134.866 87.6333 132.947 89.9924 132.947H133.709C136.068 132.947 137.987 134.866 137.987 137.225V180.408C137.987 182.767 136.068 184.687 133.709 184.687Z" fill="#E6E6E6"/>
<path d="M98.1338 134.221C91.9785 134.221 86.9887 139.211 86.9887 145.366V179.492C86.9887 181.657 88.7437 183.412 90.9086 183.412H117.64C128.173 183.412 136.712 174.873 136.712 164.339V138.141C136.712 135.976 134.957 134.221 132.792 134.221H98.1338V134.221L98.1338 134.221Z" fill="white"/>
<path d="M123.559 146.771H100.05C99.602 146.771 99.237 146.406 99.237 145.957C99.237 145.509 99.602 145.144 100.05 145.144H123.559C124.007 145.144 124.372 145.509 124.372 145.957C124.372 146.406 124.007 146.771 123.559 146.771Z" fill="#E6E6E6"/>
<path d="M123.559 164.115H100.05C99.602 164.115 99.237 163.75 99.237 163.302C99.237 162.853 99.602 162.489 100.05 162.489H123.559C124.007 162.489 124.372 162.853 124.372 163.302C124.372 163.75 124.007 164.115 123.559 164.115Z" fill="#E6E6E6"/>
<path d="M133.105 155.449H90.5042C90.0557 155.449 89.6907 155.084 89.6907 154.635C89.6907 154.187 90.0557 153.822 90.5042 153.822H133.105C133.554 153.822 133.919 154.187 133.919 154.635C133.919 155.084 133.554 155.449 133.105 155.449Z" fill="#E6E6E6"/>
<path d="M133.54 171.167H118.15C117.702 171.167 117.337 170.802 117.337 170.354C117.337 169.905 117.702 169.541 118.15 169.541H133.54C133.989 169.541 134.354 169.905 134.354 170.354C134.354 170.802 133.989 171.167 133.54 171.167Z" fill="#E6E6E6"/>
<path d="M261.287 239.134C266.176 239.134 270.14 235.17 270.14 230.281C270.14 225.392 266.176 221.429 261.287 221.429C256.398 221.429 252.435 225.392 252.435 230.281C252.435 235.17 256.398 239.134 261.287 239.134Z" fill="#63FF68"/>
<path d="M136.466 193.986C141.356 193.986 145.319 190.022 145.319 185.133C145.319 180.244 141.356 176.281 136.466 176.281C131.577 176.281 127.614 180.244 127.614 185.133C127.614 190.022 131.577 193.986 136.466 193.986Z" fill="#63FF68"/>
<path d="M178.959 315.266C183.848 315.266 187.811 311.302 187.811 306.413C187.811 301.524 183.848 297.561 178.959 297.561C174.069 297.561 170.106 301.524 170.106 306.413C170.106 311.302 174.069 315.266 178.959 315.266Z" fill="#63FF68"/>
<path d="M198.081 69.8045C204.174 69.8045 209.114 64.9689 209.114 59.0038C209.114 53.0388 204.174 48.2031 198.081 48.2031C191.988 48.2031 187.048 53.0388 187.048 59.0038C187.048 64.9689 191.988 69.8045 198.081 69.8045Z" fill="#F2F2F2"/>
<path d="M286.529 55.3089H227.142C225.105 55.3089 223.447 53.6513 223.447 51.6139C223.447 49.5766 225.105 47.9189 227.142 47.9189H286.529C288.566 47.9189 290.224 49.5766 290.224 51.6139C290.224 53.6513 288.566 55.3089 286.529 55.3089Z" fill="#F2F2F2"/>
<path d="M332.875 67.815H227.142C225.105 67.815 223.447 66.1574 223.447 64.12C223.447 62.0827 225.105 60.425 227.142 60.425H332.875C334.912 60.425 336.57 62.0827 336.57 64.12C336.57 66.1574 334.912 67.815 332.875 67.815Z" fill="#F2F2F2"/>
<path d="M38.3838 115.198C42.3274 115.198 45.5243 112.069 45.5243 108.208C45.5243 104.348 42.3274 101.218 38.3838 101.218C34.4402 101.218 31.2433 104.348 31.2433 108.208C31.2433 112.069 34.4402 115.198 38.3838 115.198Z" fill="#F2F2F2"/>
<path d="M95.6261 105.817H57.1916C55.8731 105.817 54.8003 104.744 54.8003 103.426C54.8003 102.107 55.8731 101.034 57.1916 101.034H95.6261C96.9447 101.034 98.0175 102.107 98.0175 103.426C98.0175 104.744 96.9447 105.817 95.6261 105.817H95.6261Z" fill="#F2F2F2"/>
<path d="M125.621 113.911H57.1916C55.8731 113.911 54.8003 112.838 54.8003 111.519C54.8003 110.201 55.8731 109.128 57.1916 109.128H125.621C126.939 109.128 128.012 110.201 128.012 111.519C128.012 112.838 126.939 113.911 125.621 113.911Z" fill="#F2F2F2"/>
<path d="M252.615 363.955C256.559 363.955 259.755 360.825 259.755 356.965C259.755 353.104 256.559 349.975 252.615 349.975C248.671 349.975 245.474 353.104 245.474 356.965C245.474 360.825 248.671 363.955 252.615 363.955Z" fill="#F2F2F2"/>
<path d="M309.857 354.573H271.423C270.104 354.573 269.031 353.5 269.031 352.182C269.031 350.863 270.104 349.791 271.423 349.791H309.857C311.176 349.791 312.249 350.863 312.249 352.182C312.249 353.5 311.176 354.573 309.857 354.573Z" fill="#F2F2F2"/>
<path d="M339.852 362.667H271.423C270.104 362.667 269.031 361.594 269.031 360.276C269.031 358.957 270.104 357.884 271.423 357.884H339.852C341.17 357.884 342.243 358.957 342.243 360.276C342.243 361.594 341.17 362.667 339.852 362.667Z" fill="#F2F2F2"/>
<path d="M166.786 138.073H165.016V222.172H166.786V138.073Z" fill="#E6E6E6"/>
<path d="M165.901 227.484C168.834 227.484 171.212 225.106 171.212 222.172C171.212 219.239 168.834 216.861 165.901 216.861C162.967 216.861 160.589 219.239 160.589 222.172C160.589 225.106 162.967 227.484 165.901 227.484Z" fill="#E6E6E6"/>
<path d="M246.459 288.566C249.392 288.566 251.77 286.188 251.77 283.255C251.77 280.321 249.392 277.943 246.459 277.943C243.526 277.943 241.147 280.321 241.147 283.255C241.147 286.188 243.526 288.566 246.459 288.566Z" fill="#E6E6E6"/>
<path d="M103.048 215.976C105.981 215.976 108.359 213.598 108.359 210.664C108.359 207.731 105.981 205.353 103.048 205.353C100.114 205.353 97.7365 207.731 97.7365 210.664C97.7365 213.598 100.114 215.976 103.048 215.976Z" fill="#E6E6E6"/>
<path d="M101.085 210.672L72.0374 211.551L72.091 213.322L101.139 212.442L101.085 210.672Z" fill="#E6E6E6"/>
<path d="M289.669 303.589H245.623V283.255H247.393V301.818H289.669V303.589Z" fill="#E6E6E6"/>
<path d="M100.868 273.973C103.801 273.973 106.179 271.595 106.179 268.662C106.179 265.728 103.801 263.35 100.868 263.35C97.9343 263.35 95.5563 265.728 95.5563 268.662C95.5563 271.595 97.9343 273.973 100.868 273.973Z" fill="#E6E6E6"/>
<path d="M143.553 288.996H99.507V268.662H101.277V287.225H143.553V288.996Z" fill="#E6E6E6"/>
<path d="M278.328 248.451H66.7682V250.221H278.328V248.451Z" fill="#E6E6E6"/>
</g>
<defs>
<clipPath id="clip0_51_78">
<rect width="500" height="398.311" fill="white"/>
</clipPath>
</defs>
</svg>
