<svg width="787" height="731" viewBox="0 0 787 731" fill="none" xmlns="http://www.w3.org/2000/svg">
<g clip-path="url(#clip0_23_376)" filter="url(#filter0_i_23_376)">
<path d="M759.457 306.033C720.1 361.147 645.836 373.768 584.389 354.572C564.283 348.138 544.886 339.295 526.55 328.205C515.9 321.872 505.505 314.924 495.321 307.521C492.815 305.708 490.31 303.866 487.83 301.988C486.14 300.723 484.455 299.443 482.777 298.147C461.748 281.946 441.543 264.173 421.677 246.502C372.086 202.391 321.136 156.921 260.206 135.875C247.653 131.541 231.414 129.513 223.652 141.157C216.917 151.267 221.027 165.58 226.726 176.424C247.866 216.592 286.237 241.954 324.643 261.457C363.049 280.96 403.731 296.761 437.117 325.276C470.504 353.791 495.992 399.111 489.164 444.859C483.278 484.284 453.883 516.314 419.707 530.274C385.53 544.224 347.413 542.28 311.887 533.222C276.36 524.154 242.634 508.334 208.347 494.7C187.675 486.469 160.65 480.777 146.933 499.61C135.349 515.523 142.007 540.625 156.114 553.869C170.221 567.112 189.314 571.549 207.532 575.529C264.096 587.899 320.66 600.265 377.224 612.628C394.576 616.413 412.335 620.375 427.452 630.457C442.57 640.529 454.766 658.125 454.333 677.498C453.9 696.591 441.135 713.462 425.49 721.916C409.855 730.361 391.798 731.663 374.379 730.751C309.101 727.329 121.955 613.763 77.0688 599.245C48.2262 589.926 16.6914 576.236 4.52899 546.121C-10.6143 508.632 14.3048 463.274 48.3196 446.152C82.326 429.021 121.751 432.815 158.815 438.582C195.879 444.348 234.166 451.686 270.245 440.73C306.323 429.774 339.379 394.061 335.82 353.251C332.72 317.742 303.513 290.986 272.776 279.193C248.715 269.957 223.117 267.446 197.841 263.289C190.826 262.145 183.836 260.862 176.914 259.281C159.187 255.214 141.895 249.136 125.318 241.145C107.923 232.778 91.3972 222.392 76.0243 210.166C63.7629 200.428 52.3044 189.533 41.7802 177.605C40.1749 175.782 38.5865 173.919 37.0152 172.016C35.5206 170.193 34.0427 168.333 32.5991 166.435C13.8122 141.855 -0.0658656 111.582 4.09609 80.3889C8.24893 49.2793 30.3908 23.3779 56.7534 10.934C71.99 3.74487 88.4243 0.526953 105.062 0.0619365C117.228 -0.204312 129.39 0.754557 141.396 2.92644C196.949 12.6546 247.857 42.2111 295.937 74.2135C344.008 106.216 390.856 141.343 443.114 164.157C495.372 186.98 554.858 196.643 607.872 176.006C660.886 155.377 704.438 99.0918 701.848 37.5516C737.01 70.7072 766.889 112.382 780.121 161.079C793.353 209.775 788.036 266.005 759.457 306.033Z" fill="#3F3D56"/>
<path d="M506.114 242.433C509.528 242.433 512.295 239.403 512.295 235.665C512.295 231.926 509.528 228.896 506.114 228.896C502.7 228.896 499.933 231.926 499.933 235.665C499.933 239.403 502.7 242.433 506.114 242.433Z" fill="#63FF68"/>
<path d="M724.387 156.846C729.665 156.846 733.944 152.161 733.944 146.381C733.944 140.602 729.665 135.917 724.387 135.917C719.109 135.917 714.831 140.602 714.831 146.381C714.831 152.161 719.109 156.846 724.387 156.846Z" fill="#FF6584"/>
<path d="M97.5951 479.48C99.5452 479.48 101.126 477.748 101.126 475.613C101.126 473.478 99.5452 471.746 97.5951 471.746C95.6449 471.746 94.0641 473.478 94.0641 475.613C94.0641 477.748 95.6449 479.48 97.5951 479.48Z" fill="#FF6584"/>
<path d="M198.945 253.337C198.947 256.691 198.577 260.033 197.841 263.289C190.826 262.145 183.836 260.861 176.914 259.28C159.187 255.213 141.895 249.135 125.318 241.145C127.984 231.72 133.648 223.654 141.281 218.411C148.914 213.169 158.011 211.097 166.92 212.573C175.829 214.048 183.959 218.973 189.835 226.452C195.711 233.932 198.944 243.471 198.945 253.337Z" fill="#FF6584"/>
<path d="M663.237 218.228C665.231 218.228 666.848 216.458 666.848 214.274C666.848 212.09 665.231 210.319 663.237 210.319C661.242 210.319 659.626 212.09 659.626 214.274C659.626 216.458 661.242 218.228 663.237 218.228Z" fill="#F0F0F0"/>
<path d="M332.854 653.484C334.849 653.484 336.466 651.713 336.466 649.529C336.466 647.345 334.849 645.575 332.854 645.575C330.86 645.575 329.243 647.345 329.243 649.529C329.243 651.713 330.86 653.484 332.854 653.484Z" fill="#F0F0F0"/>
<path d="M384.663 708.356C386.657 708.356 388.274 706.585 388.274 704.401C388.274 702.217 386.657 700.447 384.663 700.447C382.668 700.447 381.051 702.217 381.051 704.401C381.051 706.585 382.668 708.356 384.663 708.356Z" fill="#F0F0F0"/>
<path d="M64.4719 552.11C66.4663 552.11 68.0831 550.34 68.0831 548.156C68.0831 545.972 66.4663 544.201 64.4719 544.201C62.4774 544.201 60.8606 545.972 60.8606 548.156C60.8606 550.34 62.4774 552.11 64.4719 552.11Z" fill="#F0F0F0"/>
<path d="M241.978 478.637C243.973 478.637 245.589 476.867 245.589 474.683C245.589 472.499 243.973 470.729 241.978 470.729C239.984 470.729 238.367 472.499 238.367 474.683C238.367 476.867 239.984 478.637 241.978 478.637Z" fill="#F0F0F0"/>
<path d="M224.143 86.1636C226.137 86.1636 227.754 84.3931 227.754 82.2091C227.754 80.0251 226.137 78.2546 224.143 78.2546C222.148 78.2546 220.531 80.0251 220.531 82.2091C220.531 84.3931 222.148 86.1636 224.143 86.1636Z" fill="#F0F0F0"/>
<path d="M442.416 395.865C444.41 395.865 446.027 394.094 446.027 391.91C446.027 389.726 444.41 387.956 442.416 387.956C440.421 387.956 438.804 389.726 438.804 391.91C438.804 394.094 440.421 395.865 442.416 395.865Z" fill="#F0F0F0"/>
<path d="M469.594 464.687C471.588 464.687 473.205 462.916 473.205 460.732C473.205 458.548 471.588 456.778 469.594 456.778C467.599 456.778 465.982 458.548 465.982 460.732C465.982 462.916 467.599 464.687 469.594 464.687Z" fill="#F0F0F0"/>
<path d="M144.08 94.832C144.106 114.799 139.798 134.486 131.51 152.271C130.414 154.614 129.254 156.918 128.028 159.181C115.891 181.625 97.7323 199.428 76.0243 210.165C63.7629 200.428 52.3044 189.533 41.7802 177.605C40.1748 175.782 38.5865 173.919 37.0152 172.015C35.5206 170.193 34.0426 168.332 32.5991 166.435C13.8122 141.854 -0.0658703 111.582 4.09609 80.3886C8.24893 49.279 30.3908 23.3775 56.7534 10.9337C71.99 3.74452 88.4243 0.526662 105.062 0.0616455C118.071 12.6423 128.327 28.2688 135.068 45.7821C135.918 47.9862 136.699 50.2183 137.438 52.4783C141.846 66.0769 144.092 80.4022 144.08 94.832Z" fill="#63FF68"/>
<path d="M196.737 101.342C196.737 120.715 179.462 138.683 148.088 151.955C141.812 154.614 135.094 157.023 128.028 159.181C101.58 167.254 70.1044 171.727 37.0152 172.015C35.5206 170.193 34.0426 168.332 32.5991 166.435C32.9557 166.444 33.3123 166.444 33.669 166.444C69.6034 166.444 103.695 161.46 131.51 152.271C136.648 150.569 141.574 148.727 146.254 146.746C175.096 134.554 191.641 117.999 191.641 101.342C191.641 84.6853 175.096 68.14 146.254 55.938C143.4 54.7289 140.462 53.5757 137.438 52.4782C136.699 50.2183 135.918 47.9862 135.068 45.782C139.587 47.3259 143.927 48.9751 148.089 50.7298C179.462 64.0013 196.737 81.9789 196.737 101.342Z" fill="#E4E4E4"/>
<path d="M38.9925 32.2217C40.987 32.2217 42.6038 30.4512 42.6038 28.2672C42.6038 26.0832 40.987 24.3127 38.9925 24.3127C36.9981 24.3127 35.3813 26.0832 35.3813 28.2672C35.3813 30.4512 36.9981 32.2217 38.9925 32.2217Z" fill="#F0F0F0"/>
<path d="M114.581 57.3325C116.576 57.3325 118.193 55.5621 118.193 53.3781C118.193 51.1941 116.576 49.4236 114.581 49.4236C112.587 49.4236 110.97 51.1941 110.97 53.3781C110.97 55.5621 112.587 57.3325 114.581 57.3325Z" fill="#F0F0F0"/>
<path d="M75.513 131.825C94.9079 131.825 110.631 114.608 110.631 93.3695C110.631 72.1311 94.9079 54.9141 75.513 54.9141C56.118 54.9141 40.3952 72.1311 40.3952 93.3695C40.3952 114.608 56.118 131.825 75.513 131.825Z" fill="#F0F0F0"/>
<path opacity="0.3" d="M724.049 296.9C716.167 299.448 698.791 301.327 679.681 302.48C660.58 303.624 639.628 304.127 618.938 304.61C582.724 305.466 546.512 306.325 510.303 307.186C505.326 307.307 500.332 307.419 495.321 307.521C492.815 305.708 490.31 303.866 487.83 301.987C492.272 302.015 496.714 301.987 501.122 301.894C519.951 301.485 535.893 299.876 554.051 299.114C581.993 297.933 612.161 298.863 641.284 299.337C670.407 299.821 703.589 299.644 724.049 296.9Z" fill="#F0F0F0"/>
<path opacity="0.3" d="M168.235 590.075L52.7955 484.767L164.943 594.293C165.16 594.694 165.461 595.032 165.822 595.28C166.182 595.527 166.591 595.677 167.015 595.717C167.439 595.757 167.865 595.686 168.259 595.509C168.653 595.332 169.002 595.055 169.278 594.701C169.555 594.347 169.75 593.926 169.848 593.473C169.946 593.019 169.944 592.547 169.842 592.095C169.74 591.642 169.541 591.223 169.261 590.872C168.982 590.521 168.63 590.248 168.235 590.075H168.235Z" fill="#F0F0F0"/>
<path d="M80.6088 191.257C82.6032 191.257 84.2201 189.487 84.2201 187.303C84.2201 185.119 82.6032 183.348 80.6088 183.348C78.6144 183.348 76.9976 185.119 76.9976 187.303C76.9976 189.487 78.6144 191.257 80.6088 191.257Z" fill="#F0F0F0"/>
<path d="M383.903 645.512L398.84 645.511L405.947 582.42L383.901 582.421L383.903 645.512Z" fill="#FFB6B6"/>
<path d="M380.093 640.171L384.298 640.171L400.712 632.861L409.51 640.17H409.511C414.483 640.17 419.251 642.333 422.766 646.182C426.282 650.032 428.257 655.253 428.257 660.698V661.365L380.094 661.367L380.093 640.171Z" fill="#2F2E41"/>
<path d="M272.041 645.512L257.105 645.511L249.998 582.42L272.044 582.421L272.041 645.512Z" fill="#FFB6B6"/>
<path d="M275.851 661.367L227.688 661.365V660.698C227.688 655.253 229.663 650.032 233.179 646.182C236.694 642.333 241.463 640.17 246.434 640.17H246.435L255.233 632.861L271.648 640.171L275.852 640.171L275.851 661.367Z" fill="#2F2E41"/>
<path d="M325.563 162.001L310.438 174.612L270.262 186.263C270.262 186.263 284.658 296.9 277.863 304.34C271.069 311.781 277.197 311.981 275.831 321.646C274.466 331.311 269.025 356.83 269.025 356.83H388.938C388.938 356.83 389.904 340.971 383.993 337.536C378.082 334.101 389.442 318.071 384.611 315.391C379.781 312.711 386.575 289.46 386.575 289.46L401.3 213.337L362.135 179.782L356.178 164.067L325.563 162.001Z" fill="#63FF68"/>
<path d="M344.434 260.865C347.324 260.865 349.667 258.299 349.667 255.134C349.667 251.97 347.324 249.404 344.434 249.404C341.544 249.404 339.201 251.97 339.201 255.134C339.201 258.299 341.544 260.865 344.434 260.865Z" fill="#F2F2F2"/>
<path d="M269.025 356.83L264.08 496.261C264.08 496.261 242.73 599.244 246.439 601.951C250.147 604.658 251.718 620.802 251.718 620.802L272.734 623.509C272.734 623.509 272.734 612.68 277.679 608.619C282.624 604.557 328.364 413.685 328.364 413.685L372.986 598.231C372.986 598.231 374.103 608.619 377.812 608.619C381.521 608.619 382.757 623.509 382.757 623.509H403.772V608.619C403.772 608.619 413.215 605.34 409.507 594.511C405.798 583.681 388.938 356.83 388.938 356.83H269.025Z" fill="#2F2E41"/>
<path d="M341.268 153.692C355.264 153.692 366.611 141.267 366.611 125.941C366.611 110.614 355.264 98.1897 341.268 98.1897C327.272 98.1897 315.926 110.614 315.926 125.941C315.926 141.267 327.272 153.692 341.268 153.692Z" fill="#FFB6B6"/>
<path opacity="0.1" d="M384.611 250.564L389.556 254.625L392.028 235.673L384.611 250.564Z" fill="black"/>
<path d="M272.631 186.155C272.631 186.155 266.45 184.802 262.742 196.985C259.033 209.168 245.435 255.194 245.435 263.317C245.435 271.439 330.12 307.276 330.12 307.276L321.308 273.427L282.521 251.133L272.631 186.155Z" fill="#63FF68"/>
<path d="M334.048 302.258C342.022 302.258 348.486 295.179 348.486 286.447C348.486 277.715 342.022 270.637 334.048 270.637C326.074 270.637 319.61 277.715 319.61 286.447C319.61 295.179 326.074 302.258 334.048 302.258Z" fill="#FFB6B6"/>
<path opacity="0.1" d="M281.391 234.365L282.521 251.133L318.388 271.748L286.487 248.316L281.391 234.365Z" fill="black"/>
<path d="M367.616 236.756H367.15V222.798C367.15 221.737 366.959 220.686 366.589 219.706C366.218 218.726 365.674 217.835 364.989 217.085C364.304 216.335 363.491 215.74 362.596 215.334C361.701 214.928 360.742 214.719 359.773 214.719H332.767C331.798 214.719 330.839 214.928 329.944 215.334C329.049 215.74 328.236 216.335 327.551 217.085C326.865 217.835 326.322 218.726 325.951 219.706C325.581 220.686 325.39 221.737 325.39 222.798V299.373C325.39 300.434 325.581 301.485 325.951 302.465C326.322 303.445 326.865 304.336 327.55 305.086C328.236 305.836 329.049 306.431 329.944 306.837C330.839 307.243 331.798 307.452 332.767 307.452H359.773C360.742 307.452 361.701 307.243 362.596 306.837C363.491 306.431 364.304 305.836 364.989 305.086C365.674 304.336 366.218 303.445 366.589 302.465C366.959 301.485 367.15 300.434 367.15 299.373V246.692H367.616V236.756Z" fill="#F0F0F0"/>
<path d="M401.3 213.337C401.3 213.337 405.009 216.045 407.481 228.228C409.953 240.411 426.024 286.437 419.843 297.267C413.662 308.096 411.837 319.655 390.822 303.41L361.741 274.254L382.757 252.595L391.41 259.363L401.3 213.337Z" fill="#63FF68"/>
<path d="M346.6 248.849C350.014 248.849 352.781 245.819 352.781 242.08C352.781 238.342 350.014 235.312 346.6 235.312C343.186 235.312 340.419 238.342 340.419 242.08C340.419 245.819 343.186 248.849 346.6 248.849Z" fill="#63FF68"/>
<path d="M364.493 272.719C372.467 272.719 378.931 265.641 378.931 256.909C378.931 248.177 372.467 241.098 364.493 241.098C356.519 241.098 350.055 248.177 350.055 256.909C350.055 265.641 356.519 272.719 364.493 272.719Z" fill="#FFB6B6"/>
<path opacity="0.1" d="M280.71 284.971L322.158 305.048L279.558 295.931L280.71 284.971Z" fill="black"/>
<path d="M315.701 131.471L312.221 116.97C311.313 113.186 310.398 109.326 310.602 105.421C310.806 101.515 312.319 97.4846 315.324 95.3688C318.328 93.2529 322.915 93.7527 324.849 97.0422C325.217 91.7897 329.58 87.7494 334.21 86.3181C338.84 84.8868 343.755 85.4528 348.561 85.6943C353.366 85.9358 358.439 85.7672 362.587 83.0983C362.903 84.1368 362.882 85.2628 362.528 86.2865C362.174 87.3101 361.508 88.1685 360.643 88.7169C361.674 89.025 362.773 88.8926 363.718 88.3467C364.664 87.8007 365.384 86.8819 365.734 85.7761C365.766 88.8181 364.739 91.7593 362.863 94.0026C364.653 93.0302 366.709 92.8218 368.631 93.4179C370.554 94.014 372.205 95.372 373.263 97.2275C375.38 101.246 374.194 106.293 372.956 110.729L366.6 133.498C365.636 130.037 365.454 126.383 364.938 122.808C364.423 119.234 363.505 115.584 361.351 112.84C359.196 110.096 355.536 108.508 352.474 109.87C350.757 110.634 349.447 112.185 347.896 113.298C344.714 115.581 340.667 115.909 336.886 115.444C333.106 114.979 329.422 113.8 325.642 113.33C323.275 113.035 320.634 113.113 318.848 114.839C317.62 116.236 316.809 118.01 316.522 119.924C315.68 123.739 315.348 127.668 315.539 131.587" fill="#2F2E41"/>
</g>
<defs>
<filter id="filter0_i_23_376" x="0" y="0" width="787" height="731" filterUnits="userSpaceOnUse" color-interpolation-filters="sRGB">
<feFlood flood-opacity="0" result="BackgroundImageFix"/>
<feBlend mode="normal" in="SourceGraphic" in2="BackgroundImageFix" result="shape"/>
<feColorMatrix in="SourceAlpha" type="matrix" values="0 0 0 0 0 0 0 0 0 0 0 0 0 0 0 0 0 0 127 0" result="hardAlpha"/>
<feOffset dx="20" dy="4"/>
<feComposite in2="hardAlpha" operator="arithmetic" k2="-1" k3="1"/>
<feColorMatrix type="matrix" values="0 0 0 0 1 0 0 0 0 1 0 0 0 0 1 0 0 0 0.25 0"/>
<feBlend mode="normal" in2="shape" result="effect1_innerShadow_23_376"/>
</filter>
<clipPath id="clip0_23_376">
<rect width="787" height="731" fill="white"/>
</clipPath>
</defs>
</svg>
